<?xml version="1.0" encoding="UTF-8"?>
<!DOCTYPE svg PUBLIC "-//W3C//DTD SVG 1.1//EN" "http://www.w3.org/Graphics/SVG/1.1/DTD/svg11.dtd">
<!-- Creator: CorelDRAW 2021.5 -->
<svg xmlns="http://www.w3.org/2000/svg" xml:space="preserve" width="7in" height="6in" version="1.1" style="shape-rendering:geometricPrecision; text-rendering:geometricPrecision; image-rendering:optimizeQuality; fill-rule:evenodd; clip-rule:evenodd"
viewBox="0 0 7000 6000"
 xmlns:xlink="http://www.w3.org/1999/xlink"
 xmlns:xodm="http://www.corel.com/coreldraw/odm/2003">
 <defs>
  <style type="text/css">
   <![CDATA[
    .fil1 {fill:#14388C;fill-rule:nonzero}
    .fil2 {fill:#BF9B06;fill-rule:nonzero}
    .fil0 {fill:red;fill-rule:nonzero}
   ]]>
  </style>
 </defs>
 <g id="Layer_x0020_1">
  <metadata id="CorelCorpID_0Corel-Layer"/>
  <g id="_1670640558400">
   <path class="fil0" d="M14.11 55l0 3440.55 191.72 191.72c158.7,158.2 414.98,158.2 573.67,0 79.35,-79.35 118.78,-182.84 118.78,-286.59 0,-103.74 -39.42,-207.49 -118.78,-286.59l-455.63 -455.39c-158.2,-158.7 -158.2,-414.98 0,-573.67 78.86,-78.86 182.84,-118.78 286.59,-118.78 103.75,0 207.73,39.92 286.59,118.78l831.68 831.68c158.2,158.2 414.98,158.2 573.43,0 78.86,-78.86 118.78,-182.84 118.78,-286.59 0,-103.74 -39.92,-207.73 -118.78,-286.59l-2288.05 -2288.53z"/>
   <path class="fil1" d="M1159.48 19.02l1172.98 1172.98c158.2,158.2 415.22,158.2 573.43,0 79.35,-78.86 182.85,-118.78 286.59,-118.78 103.99,0 207.49,39.92 286.59,118.78l1067.75 1067.51c158.2,158.69 414.98,158.69 573.43,0 79.35,-79.35 118.78,-182.85 118.78,-286.59 0,-103.74 -39.43,-207.49 -118.78,-286.59l-741.98 -741.98c-158.2,-158.2 -158.2,-415.22 0,-573.43 79.35,-79.35 182.85,-119.27 286.59,-119.27 103.74,0 207.49,39.92 286.59,119.27l304.59 304.58c158.2,158.2 415.22,158.2 573.43,0 79.35,-79.35 118.78,-183.1 118.78,-287.08 0,-103.5 -39.43,-207.49 -118.78,-286.59l-82.32 -82.81 -4587.66 0z"/>
   <path class="fil2" d="M1101.83 4580.07c156.23,156.24 409.56,156.24 565.78,0 156.24,-156.24 156.24,-409.56 0,-565.78 -156.24,-156.24 -409.56,-156.24 -565.78,0 -156.24,156.22 -156.24,409.55 0,565.78z"/>
   <path class="fil2" d="M6199.08 1564.59c156.24,156.24 409.56,156.24 565.78,0 156.24,-156.24 156.24,-409.56 0,-565.78 -156.24,-156.24 -409.56,-156.24 -565.78,0 -156.24,156.23 -156.24,409.55 0,565.78z"/>
   <g>
    <path class="fil2" d="M2944.09 1778.23l0 0c73.19,-73.19 191.72,-73.19 264.66,0l1102.74 1102.74c73.19,73.19 73.19,191.72 0,264.66l0 0c-73.19,73.19 -191.72,73.19 -264.66,0l-1102.74 -1102.73c-73.2,-72.94 -73.2,-191.48 0,-264.67z"/>
    <path class="fil1" d="M2864.74 2160.93c0,54.21 20.45,108.43 61.85,149.83l1102.74 1102.74c39.92,40.17 93.15,62.1 149.83,62.1 32.28,0 63.33,-7.15 91.67,-20.95 21.44,-10.1 40.91,-23.9 58.15,-41.15 81.07,-81.07 82.56,-211.68 4.69,-294.72 -1.72,-1.72 -3.2,-3.2 -4.69,-4.93l-1102.74 -1102.74c-82.56,-82.56 -216.85,-82.56 -299.65,0 -1.72,1.72 -3.2,3.2 -4.69,4.93 -15.27,16.26 -27.35,34.26 -36.47,53.47 -13.8,28.83 -20.7,59.87 -20.7,91.42zm58.41 -53.96c6.65,-19.22 17.25,-37.46 31.54,-53.47 2.22,-2.71 4.43,-5.18 6.9,-7.64 15.77,-15.77 34.26,-27.85 53.72,-35.72 19.46,-7.89 40.41,-11.83 61.36,-11.83 41.64,0 83.29,15.77 115.08,47.56l1102.24 1102.73c2.22,2.22 4.43,4.69 6.65,7.15 56.67,63.82 54.46,161.65 -6.65,222.76 -17.5,17.5 -38.45,30.56 -61.12,38.45 -17,6.16 -35.24,9.12 -53.96,9.12 -43.62,0 -84.28,-17.01 -115.08,-47.56l-1102.74 -1102.74c-45.09,-45.35 -57.91,-111.63 -37.94,-168.8z"/>
   </g>
  </g>
 </g>
</svg>
