<?xml version="1.0" encoding="UTF-8"?>
<!DOCTYPE svg PUBLIC "-//W3C//DTD SVG 1.1//EN" "http://www.w3.org/Graphics/SVG/1.1/DTD/svg11.dtd">
<!-- Creator: CorelDRAW 2021.5 -->
<svg xmlns="http://www.w3.org/2000/svg" xml:space="preserve" width="7in" height="6in" version="1.1" style="shape-rendering:geometricPrecision; text-rendering:geometricPrecision; image-rendering:optimizeQuality; fill-rule:evenodd; clip-rule:evenodd"
viewBox="0 0 7000 6000"
 xmlns:xlink="http://www.w3.org/1999/xlink"
 xmlns:xodm="http://www.corel.com/coreldraw/odm/2003">
 <defs>
  <style type="text/css">
   <![CDATA[
    .fil2 {fill:#14388C;fill-rule:nonzero}
    .fil3 {fill:#BF9B06;fill-rule:nonzero}
    .fil1 {fill:red;fill-rule:nonzero}
    .fil0 {fill:#B2B2B2;fill-rule:nonzero;fill-opacity:0.670588}
   ]]>
  </style>
 </defs>
 <g id="Layer_x0020_1">
  <metadata id="CorelCorpID_0Corel-Layer"/>
  <path class="fil0" d="M844.39 1034.53c3.43,-41.33 27.3,-63.65 68.8,-64.74 40.41,-1.09 69.89,29.8 69.11,70.2 -0.62,40.09 -31.51,69.11 -71.76,67.7 -39.78,-1.41 -69.41,-33.07 -66.14,-73.17zm71.61 -251.46c39.31,-5.93 64.74,-26.99 63.96,-68.8 -0.78,-41.19 -24.8,-64.43 -66.14,-66.3 -39.15,-1.71 -70.82,31.36 -67.54,70.36 3.43,41.65 28.7,61.61 69.72,64.74zm-6.71 -631.49c38.69,2.19 60.68,-21.84 66.61,-61.15 -3.9,-34.63 -22.93,-59.59 -58.65,-61.62 -38.69,-2.03 -63.96,21.53 -65.36,60.22 -1.25,36.04 21.84,60.37 57.4,62.56zm325.41 1275.15c40.72,1.4 79.09,-36.98 77.85,-77.69 -1.25,-39.15 -37.44,-74.1 -76.28,-73.63 -39,0.47 -74.57,35.88 -75.03,74.88 -0.47,38.83 34.47,75.19 73.47,76.44zm-634.45 -3208.91c18.41,0.15 26.36,-10.76 24.81,-27.77 -1.41,-14.98 -11.7,-22 -26.36,-20.9 -14.98,1.09 -22.31,10.14 -22.46,24.96 1.24,14.82 8.89,23.56 24.02,23.71zm312.47 3516.69c43.36,-2.96 69.73,-25.12 70.82,-69.11 0.94,-43.68 -22.93,-69.27 -66.93,-72.39 -42.59,-3.12 -75.35,28.7 -73.79,71.29 1.56,44 26.53,66.61 69.89,70.2zm-314.34 -3195.18c22,1.4 34.17,-10.45 36.98,-35.72 -2.34,-17.94 -12.01,-31.67 -34.79,-31.67 -19.5,0 -31.67,10.77 -33.23,29.95 -1.88,21.53 8.73,36.04 31.04,37.44zm311.37 1928c41.19,2.18 63.19,-24.03 70.2,-65.83 -5.62,-34.94 -24.65,-61.93 -63.02,-63.5 -40.87,-1.71 -67.08,23.24 -68.17,63.96 -1.24,38.07 23.4,63.33 60.99,65.37zm2.81 -1924.87c21.37,-0.78 35.41,-11.23 36.81,-33.07 1.56,-24.03 -10.46,-39 -35.41,-39.78 -21.69,-0.62 -35.41,10.92 -36.81,32.76 -1.72,24.02 10.76,37.91 35.41,40.09zm1.24 331.65c25.58,-3.74 42.74,-17 43.21,-42.9 0.62,-28.39 -16.23,-45.7 -44.62,-45.56 -25.58,0.15 -41.96,16.23 -42.9,41.81 -0.94,28.7 16.85,43.21 44.3,46.64zm-1.87 -649.74c19.03,1.09 29.17,-11.54 33.23,-29.8 -1.87,-18.41 -11.85,-31.2 -30.42,-32.13 -18.87,-0.94 -31.35,11.23 -32.44,29.64 -1.09,18.72 11.23,31.2 29.63,32.29zm324.01 3515.45c38.53,0.63 75.03,-33.7 77.37,-72.7 2.34,-40.56 -34.32,-79.4 -75.35,-80.02 -38.53,-0.63 -75.03,33.69 -77.37,72.7 -2.34,40.4 34.31,79.4 75.35,80.03zm-638.67 -2868.99c25.89,2.18 43.37,-14.04 45.08,-39.16 1.71,-25.89 -15.44,-40.09 -40.72,-44.78 -24.96,3.59 -41.96,17.16 -42.28,43.06 -0.3,23.09 15.45,39 37.91,40.87zm315.74 952.22c38.38,-0.15 58.5,-22.46 56.63,-60.22 -1.72,-35.57 -24.18,-51.95 -59.59,-53.35 -33.85,4.21 -53.98,22.93 -53.2,58.34 0.78,35.26 20.91,55.38 56.16,55.23zm1.87 -632.42c30.42,-0.94 48.21,-20.28 47.27,-50.55 -0.94,-30.42 -20.44,-46.02 -49.76,-48.05 -31.04,3.74 -49.14,20.9 -48.05,51.33 0.93,30.42 20.28,48.36 50.54,47.27zm-0.47 319.02c31.52,-5.46 52.88,-22.31 53.04,-54.29 0.15,-34.48 -21.22,-55.7 -55.69,-55.22 -31.67,0.63 -52.11,21.22 -52.42,52.88 -0.62,34.94 21.85,52.42 55.07,56.63zm-2.03 1910.69c44.46,0.62 67.24,-24.81 71.29,-68.33 -2.97,-43.52 -24.81,-70.04 -69.42,-70.36 -44.15,-0.31 -69.73,24.18 -70.36,68.33 -0.46,44.15 24.19,69.73 68.49,70.36zm-623.22 -1601.65c32.13,-0.31 48.98,-22.46 52.73,-53.67 -6.55,-31.67 -24.49,-52.57 -56.78,-50.55 -29.02,1.88 -48.83,21.84 -48.67,51.48 0,32.15 20.59,53.05 52.73,52.73zm0.16 326.35c34.94,-0.47 52.1,-23.24 55.69,-60.53 -7.64,-28.86 -24.65,-51.95 -60.22,-49.3 -31.52,2.34 -51.48,22.46 -51.33,54.44 0.15,34.63 21.22,55.85 55.85,55.38zm307.16 -958c30.42,2.34 49.14,-13.72 49.92,-44.93 0.63,-28.24 -16.07,-43.06 -43.52,-46.49 -27.92,1.4 -45.7,14.82 -47.42,43.06 -1.72,27.92 12.95,46.33 41.02,48.36zm-309.19 -2.65c25.74,1.4 39.62,-15.6 45.24,-41.96 -2.65,-23.09 -14.97,-41.03 -40.09,-43.52 -25.58,-2.65 -43.37,12.8 -46.33,37.44 -3.43,28.23 13.26,46.48 41.18,48.05zm-2.65 317.3c30.26,1.87 49.76,-14.2 51.32,-44.93 1.4,-30.58 -15.91,-47.27 -46.64,-50.55 -30.11,2.03 -48.21,17.63 -48.36,48.52 -0.16,27.61 15.91,45.24 43.68,46.96zm5.61 1913.96c37.91,-0.78 62.56,-25.74 62.87,-63.8 0.31,-41.19 -26.52,-62.09 -65.99,-67.08 -38.06,6.4 -63.5,26.99 -63.5,65.36 0.16,40.87 25.9,66.3 66.61,65.52zm-2.49 -955.81c38.53,0.15 56.78,-22 58.65,-59.44 -3.59,-34.78 -21.84,-55.22 -57.41,-55.07 -38.22,0.15 -58.65,21.37 -57.72,59.44 0.78,35.26 21.23,54.91 56.48,55.07zm0.31 314.18c37.91,0.31 57.25,-21.37 60.22,-60.68 -2.96,-34.79 -21.21,-57.25 -59.44,-57.25 -37.59,0 -59.13,20.9 -59.28,58.65 -0.31,37.59 20.75,58.97 58.5,59.28zm-1.72 -1908.5c24.65,0.94 37.13,-12.63 38.53,-36.04 -1.56,-22.62 -12.8,-35.72 -34.63,-36.35 -24.49,-0.78 -38.38,12.32 -38.22,36.98 0.31,21.68 12.63,34.63 34.32,35.41zm313.56 955.96c34.94,0.78 52.57,-21.53 57.1,-55.38 -5.15,-33.69 -23.09,-55.54 -58.19,-54.59 -31.83,0.94 -52.1,20.9 -53.04,52.73 -0.94,34.78 19.66,56.47 54.13,57.25zm-1.56 325.73c37.91,1.4 59.44,-19.03 59.75,-57.41 0.31,-35.57 -19.97,-53.98 -53.82,-57.56 -35.41,0.94 -58.04,17 -60.37,52.57 -2.66,37.44 15.9,61.16 54.44,62.41zm-0.78 -641c32.3,1.87 53.98,-18.41 55.38,-50.24 1.41,-32.29 -20.12,-49.92 -53.5,-55.53 -28.86,5.77 -51.02,21.84 -50.7,54.59 0.15,29.65 19.81,49.62 48.82,51.17zm1.72 1598.37c41.34,1.25 62.71,-24.65 69.11,-64.28 -4.37,-40.24 -24.8,-66.93 -65.99,-67.86 -40.87,-0.94 -66.61,23.72 -67.54,64.43 -1.09,41.03 23.56,66.46 64.43,67.7zm-312.15 -2567.75c19.03,1.09 29.17,-11.54 33.23,-29.8 -1.87,-18.41 -11.85,-31.2 -30.42,-32.3 -18.87,-1.09 -31.35,11.23 -32.44,29.64 -1.09,18.88 11.07,31.2 29.63,32.45zm310.13 1927.06c38.69,1.87 60.53,-22.31 65.99,-60.53 -3.74,-36.04 -23.24,-60.53 -58.96,-62.24 -38.69,-1.88 -63.96,22 -64.9,60.53 -0.93,36.19 22.31,60.53 57.87,62.24zm2.81 315.74c41.19,0.31 62.09,-26.52 67.08,-65.99 -6.39,-38.07 -26.98,-63.5 -65.36,-63.5 -40.72,0 -66.3,25.89 -65.52,66.61 0.63,38.07 25.74,62.72 63.81,62.87zm-312.46 321.36c38.69,0.63 59.44,-24.96 64.74,-63.8 -6.24,-36.81 -26.98,-62.25 -65.83,-61.15 -35.72,0.94 -59.75,24.8 -60.53,60.37 -1.09,38.53 23.24,64.11 61.62,64.59zm1261.56 -3195.65c14.98,0.31 23.24,-7.96 25.12,-25.43 -0.63,-11.86 -6.71,-22 -22,-23.24 -14.51,-1.25 -25.43,5 -27.15,20.12 -1.87,16.69 5.62,28.08 24.03,28.55zm-2.96 321.51c21.84,1.72 34.47,-9.98 37.59,-34.94 -2.03,-18.09 -11.39,-32.13 -34.16,-32.44 -19.5,-0.31 -31.83,10.14 -33.85,29.33 -2.19,21.53 8.11,36.35 30.42,38.06zm319.49 3202.98c43.37,-2.03 75.5,-36.35 74.72,-80.19 -0.62,-43.84 -33.69,-76.91 -77.37,-77.54 -45.86,-0.78 -80.96,34.16 -80.34,80.19 0.78,45.87 36.97,79.72 82.99,77.54zm-2.34 -313.72c41.81,-0.94 77.69,-39.16 75.82,-80.65 -1.72,-39.47 -36.98,-73.79 -76.44,-74.41 -41.65,-0.63 -78.78,36.19 -78.62,77.85 0.31,41.65 37.6,78.16 79.25,77.22zm-314.02 -2567.75c25.12,-4.37 41.96,-18.09 41.5,-44.15 -0.46,-23.09 -16.22,-38.84 -39,-39.93 -25.9,-1.41 -43.06,14.82 -44.15,40.24 -0.78,25.9 16.54,39.63 41.65,43.84zm1.41 646.62c31.67,-0.31 48.52,-22.15 53.04,-53.19 -4.68,-31.2 -21.53,-52.42 -53.19,-53.35 -31.83,-0.78 -53.19,19.5 -54.44,50.7 -1.41,34.16 20.28,56.16 54.6,55.85zm-0.47 -318.24c30.89,-0.46 45.7,-19.5 47.27,-50.7 -4.37,-29.17 -21.21,-46.18 -51.95,-44.3 -27.77,1.71 -43.99,19.19 -43.84,47.11 0.16,30.73 17.79,48.36 48.52,47.89zm2.65 633.83c35.57,-1.56 52.1,-24.03 53.51,-59.28 -4.21,-34.01 -22.62,-54.13 -58.19,-53.51 -35.26,0.63 -55.54,20.75 -55.38,56.01 0.16,38.21 22.31,58.34 60.06,56.78zm307.32 1279.35c39,0.94 75.5,-34.16 76.28,-73.48 0.94,-39 -34.16,-75.5 -73.48,-76.28 -39,-0.94 -75.5,34.16 -76.28,73.48 -0.94,38.84 34.32,75.35 73.48,76.28zm-1.72 -1592.91c32.3,-2.34 54.13,-18.57 57.1,-49.92 3.12,-34.63 -17.32,-56.94 -51.33,-59.44 -31.98,-2.34 -53.35,17.63 -56.47,48.82 -3.58,34.8 18.26,53.67 50.7,60.54zm4.06 -318.09c31.04,-3.74 49.13,-20.9 48.04,-51.17 -0.94,-30.42 -20.28,-48.36 -50.54,-47.27 -30.42,0.94 -48.21,20.28 -47.27,50.55 0.94,30.42 20.28,45.86 49.77,47.89zm-0.94 1592.44c40.25,1.09 69.89,-29.8 69.11,-70.2 -0.63,-40.09 -31.52,-69.11 -71.76,-67.7 -39.78,1.4 -69.42,33.07 -66.14,73.16 3.43,41.34 27.3,63.8 68.8,64.74zm1.09 -1923c25.27,-0.15 41.5,-17 41.81,-42.28 0.31,-25.58 -16.38,-39.47 -41.03,-44.15 -25.27,2.18 -42.9,15.6 -44.3,40.56 -1.87,28.24 15.45,46.02 43.52,45.87zm-2521.42 5929.22c-18.87,-0.94 -31.35,11.23 -32.29,29.64 -1.09,18.87 11.23,31.36 29.64,32.3 19.03,1.09 29.17,-11.7 33.23,-29.95 -2.03,-18.25 -11.86,-31.04 -30.58,-31.98zm2522.2 -4966.24c35.26,-0.62 55.07,-20.9 55.38,-56.16 0.31,-38.53 -21.53,-56.94 -58.81,-58.97 -34.79,3.43 -55.38,21.37 -55.54,56.94 -0.16,38.22 20.9,58.81 58.97,58.19zm-625.56 1601.02c39.47,-0.63 74.26,-37.13 72.85,-76.28 -1.4,-39.47 -38.84,-75.35 -77.69,-70.98 -42.28,4.84 -67.24,30.42 -69.57,73.17 -2.35,39.31 34.94,74.88 74.41,74.1zm623.84 -1283.25c38.69,0 59.13,-25.9 63.65,-63.34 -6.4,-38.53 -28.08,-63.18 -66.76,-61.62 -35.57,1.41 -59.44,25.43 -59.59,61.31 -0.16,38.38 24.33,63.65 62.71,63.65zm-625.41 -635.23c32.13,-0.31 53.04,-21.06 52.57,-53.19 -0.47,-32.13 -22.62,-48.98 -53.98,-52.42 -31.67,6.71 -52.57,24.65 -50.23,57.1 2.03,29.01 22,48.82 51.64,48.51zm2.5 315.9c35.1,-1.09 51.95,-23.4 54.6,-58.04 -5.15,-33.54 -23.56,-54.6 -58.81,-53.19 -34.79,1.4 -54.76,22.78 -53.5,57.56 1.4,34.94 22.93,54.76 57.72,53.67zm-3.28 315.74c37.75,0.78 57.72,-20.28 61,-57.88 -2.03,-36.97 -20.44,-59.44 -58.34,-60.06 -37.44,-0.63 -59.59,19.97 -60.22,57.72 -0.78,37.43 19.66,59.43 57.56,60.21zm2.81 -950.81c28.24,-0.46 42.43,-17.78 44.62,-45.55 -2.5,-27.77 -16.54,-44.78 -44.93,-45.39 -28.08,-0.63 -45.56,14.82 -46.65,42.9 -1.24,30.89 15.91,48.51 46.96,48.05zm2.65 -329.16c22.31,-2.18 34.63,-18.41 36.5,-41.19 -5,-25.12 -19.35,-41.03 -45.08,-38.38 -22.31,2.34 -37.29,18.26 -35.72,41.34 1.87,25.12 18.72,40.72 44.3,38.22zm-4.52 1608.98c38.53,-2.03 59.28,-25.27 65.52,-63.02 -4.06,-37.59 -24.18,-63.33 -62.24,-65.21 -38.38,-2.03 -61.93,22 -67.24,59.59 -4.83,33.85 29.33,70.51 63.96,68.64zm1.09 629.3c40.41,0.94 69.42,-30.42 68.17,-70.98 -1.09,-39.78 -32.61,-69.57 -72.7,-66.61 -41.33,3.12 -65.05,26.83 -64.9,68.33 0.16,44.15 25.13,68.33 69.43,69.26zm-0.94 -314.34c39.16,1.4 70.67,-31.83 67.24,-70.82 -3.74,-41.34 -29.02,-61.31 -70.36,-64.11 -39.15,6.08 -64.43,27.46 -63.33,69.11 0.94,41.34 25.12,64.27 66.45,65.83zm308.1 316.52c42.75,-1.09 71.29,-20.75 74.41,-65.05 2.97,-43.21 -18.57,-70.67 -62.71,-76.13 -42.59,-5.15 -77.37,24.65 -77.85,66.93 -0.46,43.83 22.46,68.48 66.14,74.26zm2.03 -315.28c40.41,2.5 70.98,-28.08 70.67,-76.13 -3.28,-33.23 -23.87,-57.87 -65.99,-60.22 -40.41,-2.18 -71.76,28.24 -70.51,68.64 1.4,41.65 24.18,65.21 65.83,67.7zm0.79 -315.27c40.87,0.46 66.61,-24.34 66.93,-65.21 0.31,-41.34 -26.36,-62.09 -66.46,-67.08 -39.93,6.4 -65.83,28.08 -64.43,69.42 1.55,38.07 25.89,62.4 63.96,62.87zm-314.19 -1929.72c21.53,2.19 33.23,-10.76 36.5,-31.2 -1.41,-19.19 -11.23,-31.98 -29.64,-33.54 -21.37,-1.87 -34.78,10.3 -35.87,31.67 -1.1,18.88 10.76,31.21 29.01,33.07zm316.99 1602.11c38.53,-0.78 62.25,-26.52 60.22,-65.21 -1.87,-35.72 -26.52,-55.07 -61.93,-58.5 -36.35,4.83 -60.22,24.96 -60.84,60.84 -0.46,38.69 24.03,63.65 62.56,62.87zm-313.56 -1924.09c14.51,-0.94 22.93,-8.43 22.46,-23.71 -0.31,-12.32 -7.02,-20.44 -19.5,-21.69 -14.66,-1.4 -24.65,5.31 -25.74,20.75 -0.78,15.14 7.33,23.4 22.78,24.65zm310.28 3524.8c41.65,1.25 79.25,-34.94 79.56,-76.75 0.47,-41.65 -36.66,-78.63 -78.16,-78.16 -39.47,0.46 -74.88,34.47 -76.75,74.1 -2.19,41.19 33.54,79.56 75.35,80.81zm2.81 -313.56c38.84,-0.47 74.41,-35.41 75.66,-74.26 1.25,-40.72 -36.19,-78.78 -77.06,-78.47 -38.84,0.46 -74.41,35.41 -75.66,74.25 -1.25,40.72 36.19,78.78 77.06,78.47zm-1895.07 292.19c33.23,-6.24 54.76,-24.81 52.57,-59.75 -2.03,-31.52 -22.31,-51.48 -54.44,-51.33 -34.63,0.15 -55.85,21.22 -55.38,55.85 0.31,34.79 23.09,51.95 57.26,55.23zm-1259.54 1176.24c-19.03,-2.19 -31.83,9.52 -32.29,28.7 -0.31,16.54 11.23,25.74 29.8,29.33 13.57,-2.81 25.89,-10.61 27.46,-27.15 1.56,-17 -9.36,-29.01 -24.96,-30.88zm-2.18 641.78c-15.13,-0.78 -24.03,7.17 -24.03,22.46 -0.15,15.29 8.74,22.62 23.09,23.09 15.91,-1.56 23.24,-10.3 22,-25.27 -0.94,-12.48 -8.74,-19.66 -21.06,-20.28zm315.11 623.22c-16.85,-1.87 -28.24,5.62 -28.7,24.02 -0.31,14.98 7.95,23.24 22.78,24.81 14.98,0.31 24.49,-6.55 25.89,-21.69 1.41,-14.36 -4.83,-25.43 -19.97,-27.15zm-317.46 -948.79c-14.97,1.25 -23.55,8.89 -23.71,24.03 -0.15,18.41 10.77,26.36 27.77,24.8 14.98,-1.4 22,-11.7 20.9,-26.36 -1.09,-14.98 -9.98,-22.31 -24.96,-22.47zm317.46 -2781.31c15.75,-2.19 26.36,-14.51 24.18,-31.2 -2.03,-16.07 -13.41,-25.11 -29.8,-26.21 -16.54,3.43 -28.24,12.95 -27.3,29.49 0.94,19.03 13.73,30.73 32.92,27.93zm-8.58 1897.26c25.58,2.65 40.09,-13.26 45.08,-38.38 -1.87,-22.78 -14.04,-38.84 -36.5,-41.18 -25.58,-2.5 -42.43,13.11 -44.15,38.22 -1.71,22.94 13.26,39 35.57,41.34zm1.87 -312.31c25.58,1.4 39.62,-14.98 43.21,-39.62 -2.81,-23.4 -15.6,-39.16 -38.22,-40.25 -25.43,-1.25 -41.96,14.67 -42.44,40.09 -0.47,22.93 14.82,38.69 37.44,39.78zm-308.57 -70.98c-18.87,-0.94 -31.36,11.23 -32.45,29.64 -1.09,18.87 11.23,31.35 29.64,32.44 19.03,1.25 29.17,-11.54 33.23,-29.8 -2.03,-18.4 -11.7,-31.19 -30.42,-32.28zm-2.65 635.22c-18.1,4.06 -31.04,14.2 -29.8,33.23 1.09,18.41 13.41,30.73 32.44,29.64 18.41,-1.09 30.58,-13.57 29.64,-32.44 -0.93,-18.57 -13.88,-28.39 -32.28,-30.43zm313.56 -1518.34c21.69,-1.72 34.16,-12.95 33.85,-35.26 -0.31,-19.35 -11.39,-31.2 -30.73,-32.61 -21.84,-1.4 -35.57,9.67 -36.66,31.98 -0.94,22.16 11.39,33.85 33.54,35.89zm2.03 324.17c21.84,-0.63 32.29,-13.89 33.23,-35.1 -1.4,-21.69 -12.48,-34.16 -34.32,-34.48 -21.53,-0.46 -34.79,10.92 -35.57,32.61 -0.94,24.33 12.17,37.74 36.66,36.97zm-5.77 -638.35c21.37,2.34 33.38,-10.29 36.97,-30.73 -0.94,-19.35 -11.08,-32.13 -29.17,-34.01 -21.21,-2.18 -34.94,9.83 -36.35,31.2 -1.4,18.87 10.45,31.51 28.55,33.54zm-307.63 632.11c16.38,-0.15 25.74,-11.7 28.24,-28.24 -1.87,-16.54 -11.23,-27.61 -27.46,-29.02 -16.85,-1.4 -28.7,9.83 -30.11,25.58 -1.87,19.03 10.14,31.83 29.33,31.67zm310.75 320.43c21.37,-0.78 35.41,-11.23 36.81,-33.07 1.56,-24.03 -10.45,-39 -35.41,-39.78 -21.69,-0.63 -35.41,10.92 -36.81,32.76 -1.71,24.18 10.76,38.07 35.41,40.09zm-313.09 -5.46c19.03,0.78 31.35,-11.23 32.44,-29.64 1.09,-18.87 -11.23,-31.35 -29.64,-32.44 -19.04,-1.25 -29.18,11.54 -33.7,32.13 3.43,15.13 11.7,29.17 30.89,29.95zm0.62 -642.72c15.13,0.78 23.24,-7.49 25.27,-22.31 0.31,-14.66 -6.08,-24.65 -21.06,-26.36 -14.35,-1.71 -25.58,4.69 -27.61,19.5 -2.34,16.7 5,28.24 23.4,29.17zm-0.62 1205.41c-18.41,1.09 -30.73,13.41 -29.64,32.44 1.09,18.41 13.57,30.58 32.3,29.64 18.56,-0.94 28.55,-13.73 30.42,-32.13 -3.9,-18.26 -14.04,-31.04 -33.07,-29.95zm636.31 309.97c-28.08,0.78 -44.15,17.63 -43.52,45.7 0.63,27.93 17.63,44.15 45.71,43.52 28.24,-0.63 42.12,-18.09 44.46,-45.87 -3.9,-27.14 -18.41,-44.14 -46.65,-43.36zm0.94 313.4c-25.74,-0.31 -42.28,15.76 -43.53,41.19 -1.4,28.7 16.23,43.52 43.37,47.27 25.9,-3.12 42.9,-16.54 44.15,-42.12 1.1,-28.54 -15.59,-46.02 -43.99,-46.33zm-2.96 312.15c-21.69,5.31 -39.62,17.47 -39.78,43.37 -0.15,25.58 15.75,42.43 40.87,43.21 28.08,0.94 45.55,-16.69 44.61,-44.78 -0.63,-25.26 -18.25,-38.52 -45.7,-41.8zm-321.68 648.96c-18.41,0.94 -30.73,13.41 -29.8,32.29 0.94,18.57 13.57,28.55 31.98,30.58 18.26,-3.9 31.04,-14.04 29.95,-33.07 -0.93,-18.41 -13.26,-30.74 -32.13,-29.8zm323.7 -1910.52c-27.92,1.25 -44.15,17.78 -43.52,45.71 0.63,28.08 17.63,44.15 45.71,43.52 28.24,-0.63 42.12,-18.09 44.77,-49.92 -5.77,-21.37 -17.78,-40.56 -46.96,-39.31zm0 312.47c-27.92,1.25 -44.15,17.78 -43.52,45.7 0.63,28.08 17.63,43.99 45.71,43.52 28.24,-0.62 42.12,-18.09 44.77,-49.92 -5.77,-21.37 -17.78,-40.71 -46.96,-39.31zm317 2867.43c-14.35,-1.87 -24.18,4.83 -26.36,20.28 -0.15,14.82 6.4,24.02 21.84,24.8 12.48,0.63 21.22,-5.62 23.24,-17.63 2.49,-14.2 -3.28,-25.43 -18.72,-27.46zm-313.87 -1274.52c-24.49,-0.78 -38.38,12.32 -38.22,36.97 0.15,21.69 12.48,34.63 34.16,35.41 24.65,0.94 37.13,-12.64 38.53,-36.04 -1.41,-22.62 -12.64,-35.72 -34.48,-36.35zm0.62 -317.78c-25.89,-1.4 -43.21,14.82 -44.15,40.25 -0.94,25.89 16.54,39.62 41.65,43.83 25.12,-4.37 41.96,-18.09 41.5,-44.15 -0.62,-23.08 -16.37,-38.68 -39,-39.93zm-324.16 -630.54c-24.34,-1.09 -38.38,12.17 -38.38,36.81 0.15,21.69 12.32,33.69 34.01,35.87 21.53,0 36.04,-9.98 38.22,-31.67 2.34,-23.87 -8.73,-39.93 -33.85,-41.02zm-0.78 313.71c-24.65,-0.46 -37.29,13.41 -36.04,37.59 1.09,21.84 14.82,31.83 38.22,32.44 19.19,-2.18 31.52,-13.41 31.35,-35.26 -0.15,-21.67 -11.85,-34.31 -33.54,-34.78zm318.39 949.57c-19.19,1.71 -30.11,13.88 -29.8,33.23 0.15,22.15 12.63,34.47 34.79,34.01 22.31,-0.63 32.6,-14.35 32.92,-36.19 -3.12,-22 -16.22,-32.92 -37.91,-31.05zm-319.48 -623.69c-21.53,0.31 -34.32,13.57 -32.61,34.94 1.72,21.22 16.07,32.92 37.44,29.8 18.26,-2.65 27.77,-15.6 27.93,-34.94 -3.43,-17.94 -13.73,-30.26 -32.76,-29.8zm-4.68 -955.65c-22.31,2.5 -37.13,18.57 -35.41,41.5 2.03,25.12 18.72,40.56 44.46,37.91 22.46,-2.34 34.47,-18.57 36.19,-41.33 -5.15,-24.96 -19.5,-41.03 -45.24,-38.07zm331.19 1896.8c-16.85,-2.03 -29.01,8.43 -31.35,24.18 -2.81,19.19 8.89,31.98 27.93,32.92 16.69,0.78 25.89,-10.76 30.1,-29.48 -2.49,-13.26 -10.29,-25.74 -26.67,-27.61zm-5.15 -2760.09c27.77,-1.87 45.55,-15.6 46.49,-43.83 0.94,-27.93 -14.98,-45.24 -42.9,-46.18 -27.93,-1.09 -45.08,14.98 -46.33,42.9 -1.1,28.24 15.75,43.06 42.74,47.11zm318.86 -634.13c27.93,-2.03 43.52,-19.97 43.06,-47.74 -0.46,-30.89 -19.03,-46.02 -48.82,-47.73 -30.89,3.59 -47.89,20.75 -46.18,51.17 1.87,30.73 21.68,46.64 51.94,44.3zm631.33 333.53c38.53,0 56.62,-22.31 58.19,-59.75 -3.74,-34.63 -22.15,-54.91 -57.72,-54.6 -38.22,0.31 -58.5,21.84 -57.41,59.75 1.09,35.25 21.69,54.6 56.94,54.6zm-4.37 626.49c36.98,2.34 61,-16.22 63.5,-54.29 2.49,-36.97 -16.22,-61 -54.13,-63.65 -37.13,-2.5 -59.13,16.69 -64.28,54.44 0.15,36.66 16.69,61 54.91,63.5zm-318.86 -2868.67c15.13,0.15 22.93,-8.43 24.49,-23.24 0.15,-14.98 -7.02,-24.18 -22,-25.58 -14.51,-1.25 -25.27,5.31 -26.83,20.44 -1.72,17 6.08,28.23 24.34,28.39zm322.14 2556.36c37.44,0.63 59.44,-19.81 60.21,-57.72 0.78,-37.59 -20.28,-57.72 -57.87,-60.99 -36.97,2.03 -59.44,20.44 -60.06,58.34 -0.47,37.6 19.96,59.59 57.72,60.37zm-323.39 -2234.54c19.35,0.78 32.13,-9.36 34.48,-28.55 2.65,-21.52 -7.33,-36.5 -29.49,-38.69 -21.69,-2.18 -34.78,9.05 -38.37,33.7 1.57,18.41 10.77,32.61 33.39,33.54zm-1.4 960.02c30.89,1.09 48.36,-16.07 47.89,-46.96 -0.46,-28.24 -17.94,-42.28 -45.7,-44.46 -27.61,2.5 -44.62,16.69 -45.24,45.08 -0.47,28.08 14.97,45.24 43.05,46.34zm1.4 -640.54c22.93,-2.03 39,-14.67 41.03,-36.97 2.18,-25.43 -13.41,-42.44 -38.69,-43.84 -23.09,-1.25 -39,13.89 -41.03,36.19 -2.33,25.59 13.73,40.1 38.69,44.62zm2.65 315.27c25.58,-0.46 41.81,-16.85 42.28,-42.43 0.46,-28.7 -17.47,-43.06 -48.52,-46.49 -20.59,5.77 -39.15,17.47 -39.15,43.83 0,28.71 17,45.71 45.4,45.09zm-627.58 1272.18c28.7,0.63 43.06,-17.47 46.49,-48.52 -5.77,-20.59 -17.47,-39.15 -43.84,-39.15 -28.55,0 -45.55,16.85 -45.08,45.24 0.46,25.74 16.84,41.81 42.43,42.43zm950.97 -310.13c34.32,-3.43 55.07,-21.37 55.07,-56.94 0,-35.26 -19.5,-56.01 -54.76,-56.63 -38.07,-0.63 -58.97,20.9 -58.04,58.81 0.94,35.56 22.94,52.57 57.72,54.75zm-0.78 -1274.36c25.74,0.15 42.12,-16.07 43.21,-41.5 1.25,-28.7 -16.54,-43.37 -47.27,-47.42 -21.06,5.15 -39.78,16.69 -40.24,43.06 -0.63,28.38 15.91,45.7 44.3,45.86zm4.52 -636.48c18.26,-2.65 27.77,-15.6 28.08,-37.59 -4.52,-14.04 -13.41,-27.61 -32.76,-26.98 -21.53,0.63 -34.32,13.57 -32.61,34.94 1.56,21.06 15.91,32.75 37.28,29.63zm-3.28 321.04c23.09,-4.52 38.69,-17.63 38.22,-40.56 -0.46,-25.43 -17,-41.81 -42.43,-40.09 -24.8,1.87 -40.41,19.03 -37.13,44.93 2.81,22.62 19.19,34.32 41.34,35.72zm-4.83 1274.98c34.94,1.87 53.35,-19.66 59.28,-53.04 -3.59,-34.01 -20.9,-56.63 -55.85,-56.79 -34.63,0 -55.54,21.22 -55.38,55.85 0.16,32.14 20.28,52.26 51.95,53.98zm-0.78 -643.5c30.26,1.87 49.76,-14.2 51.33,-45.08 1.4,-30.58 -15.91,-47.27 -46.65,-50.55 -30.11,2.03 -48.2,17.63 -48.36,48.52 -0.16,27.93 15.91,45.39 43.68,47.11zm4.06 328.23c32.3,0 49.14,-22 53.2,-53.35 -6.09,-31.67 -24.03,-52.73 -56.47,-51.01 -29.02,1.56 -48.98,21.53 -49.14,51.01 -0.16,32.29 20.43,53.51 52.41,53.35zm-319.02 311.06c29.33,-2.65 44.61,-23.24 46.96,-51.95 -5,-29.95 -21.69,-49.76 -51.17,-49.61 -32.13,0.15 -52.88,20.9 -51.33,53.04 1.56,31.67 23.08,51.33 55.54,48.52zm-318.86 948.63c32.29,0.47 53.04,-19.81 52.41,-51.95 -0.78,-31.98 -22.46,-51.79 -54.59,-49.61 -29.18,1.87 -45.08,22.46 -47.89,51.48 4.21,29.65 20.59,49.45 50.07,50.08zm-307.32 -1923.47c14.98,-1.41 22,-11.7 20.9,-26.36 -1.09,-14.98 -10.14,-22.31 -24.96,-22.46 -14.98,1.25 -23.56,8.89 -23.71,24.03 -0.31,18.24 10.61,26.35 27.77,24.8zm310.59 1609.13c30.42,-0.94 46.02,-20.43 48.05,-49.92 -3.9,-30.73 -20.9,-48.82 -51.33,-47.89 -30.42,0.94 -48.36,20.28 -47.27,50.55 0.94,30.26 20.28,48.21 50.55,47.27zm631.8 -2559.01c14.82,0.46 24.18,-6.09 25.27,-21.53 0.78,-12.32 -5.31,-21.21 -17.47,-23.4 -14.2,-2.65 -25.43,3.12 -27.61,18.26 -2.04,14.19 4.21,24.33 19.81,26.67zm-944.58 1270.3c15.13,-3.43 29.17,-11.85 29.8,-31.04 0.78,-19.04 -11.39,-31.36 -29.8,-32.3 -18.87,-1.09 -31.35,11.23 -32.29,29.64 -1.09,19.03 11.7,29.33 32.29,33.69zm-1.24 958.78c25.58,0.62 39.31,-16.54 44.15,-43.84 -3.9,-21.84 -15.76,-40.09 -41.5,-41.65 -25.74,-1.72 -43.21,14.04 -45.39,38.69 -2.35,28.08 14.66,46.17 42.74,46.8zm4.52 -315.28c22.46,-2.34 34.47,-18.57 36.19,-41.33 -5.15,-24.96 -19.66,-41.03 -45.24,-38.07 -22.31,2.5 -37.13,18.57 -35.41,41.5 1.88,24.96 18.72,40.56 44.46,37.91zm619.94 327.13c31.2,-4.21 52.57,-21.06 53.67,-52.73 1.09,-31.83 -19.03,-53.35 -50.07,-54.91 -34.32,-1.72 -56.31,19.81 -56.31,53.98 -0.16,31.82 21.68,48.82 52.72,53.66zm-627.58 -644.59c24.18,1.41 38.06,-11.08 37.75,-35.72 -0.31,-21.84 -12.95,-32.76 -34.79,-34.16 -21.21,1.09 -34.01,11.7 -34.94,33.54 -0.63,21.37 10.3,35.09 31.98,36.34zm310.75 -958.93c16.69,2.34 28.39,-5 29.18,-23.4 0.62,-15.13 -7.49,-23.24 -22.31,-25.27 -14.67,-0.31 -24.65,6.09 -26.36,21.06 -1.72,14.36 4.52,25.59 19.5,27.61zm2527.81 -937.87c21.84,-0.46 32.61,-13.26 33.85,-34.94 -1.09,-21.37 -11.86,-34.16 -33.7,-34.79 -21.53,-0.63 -35.1,10.3 -36.19,31.98 -1.24,24.34 11.39,38.22 36.04,37.75zm-2525.31 2219.09c27.93,1.41 45.39,-14.35 46.96,-42.27 1.56,-28.24 -14.98,-43.21 -41.81,-47.74 -27.92,1.56 -46.02,14.98 -47.27,43.06 -1.56,27.92 14.04,45.39 42.12,46.95zm309.35 645.37c34.94,3.59 53.67,-18.26 60.68,-50.7 -2.34,-32.29 -18.56,-54.13 -50.07,-57.1 -34.63,-3.28 -56.94,17.32 -59.44,51.33 -2.18,31.82 17.79,53.19 48.83,56.47zm-305.6 -959.71c25.43,-0.31 38.84,-17.78 42.43,-42.75 -3.59,-24.96 -16.85,-41.96 -42.43,-42.74 -25.58,-0.78 -42.75,15.13 -43.99,40.09 -1.56,28.08 15.76,45.71 43.99,45.4zm-4.37 -646.31c21.53,1.72 33.07,-11.23 36.5,-34.48 -3.12,-15.44 -11.54,-29.17 -30.58,-30.42 -21.37,-1.4 -34.63,10.77 -35.41,32.13 -0.78,19.03 11.08,31.35 29.48,32.76zm0.94 316.21c24.49,1.09 38.38,-12.32 38.22,-36.97 -0.15,-21.69 -12.48,-33.7 -36.66,-36.04 -18.87,0.62 -33.7,10.14 -35.72,31.98 -2.18,23.87 9.05,39.94 34.17,41.03zm2522.51 353.5c41.34,0.94 62.56,-25.12 69.11,-67.39 -5.77,-36.81 -25.27,-64.43 -66.77,-64.9 -40.87,-0.46 -66.45,24.18 -67.24,64.9 -0.78,41.03 24.03,66.45 64.9,67.39zm2533.12 944.89c36.04,-3.74 60.53,-23.24 62.24,-58.96 1.87,-38.69 -22,-63.8 -60.53,-64.9 -36.04,-0.94 -60.37,22.31 -62.08,57.87 -2.03,38.69 22.15,60.37 60.37,65.99zm-0.31 -1600.86c27.77,-1.72 45.24,-15.44 46.64,-43.68 1.41,-27.93 -13.72,-46.02 -41.65,-47.74 -30.57,-1.87 -48.98,14.51 -49.3,45.56 -0.16,28.38 16.69,42.89 44.3,45.86zm0.93 -966.11c16.69,0.78 26.06,-10.77 29.95,-29.49 -2.49,-13.41 -10.3,-25.74 -26.67,-27.77 -16.85,-2.03 -29.02,8.58 -31.2,24.34 -2.81,19.34 8.89,32.14 27.92,32.92zm-1.4 1294.48c32.29,0.63 53.19,-19.81 52.41,-51.95 -0.78,-31.98 -22.46,-51.79 -54.59,-49.61 -29.17,1.87 -45.08,22.46 -48.05,51.48 4.36,29.65 20.75,49.61 50.23,50.08zm-630.55 -639.44c27.77,-1.72 43.84,-19.19 43.84,-47.11 -0.15,-30.89 -18.26,-46.49 -48.36,-48.52 -30.58,3.28 -48.05,19.97 -46.65,50.55 1.4,30.89 20.9,46.8 51.17,45.08zm627.11 1583.7c37.13,2.34 61,-16.07 63.02,-54.29 2.03,-37.59 -18.09,-58.5 -55.54,-62.4 -37.44,1.56 -59.75,19.5 -60.37,57.87 -0.78,34.95 17.78,56.63 52.88,58.81zm6.09 -313.87c35.57,-0.31 53.19,-21.37 56.63,-59.13 -3.74,-30.73 -19.81,-53.35 -55.7,-53.82 -38.06,-0.46 -59.12,20.75 -58.19,58.81 0.94,35.25 22,54.44 57.26,54.13zm-0.94 -314.81c31.83,0.46 52.57,-19.97 53.98,-51.48 1.56,-34.78 -20.59,-52.88 -56.47,-58.5 -28.08,5.78 -50.85,21.06 -51.64,53.2 -1.09,34.63 19.81,56.31 54.13,56.78zm312.15 -646.31c24.96,-3.43 41.96,-16.69 42.9,-42.12 1.09,-25.58 -14.98,-42.74 -39.78,-44.15 -28.08,-1.71 -45.87,15.76 -45.7,43.84 0.31,25.27 17.63,38.69 42.59,42.43zm-3.59 2223.46c37.59,2.03 58.5,-17.94 62.4,-55.54 -1.56,-37.29 -19.34,-59.75 -57.72,-60.53 -34.94,-0.63 -56.63,17.78 -58.81,53.04 -2.49,37.13 15.91,60.84 54.14,63.02zm-0.63 -1898.35c30.42,2.34 49.14,-13.72 49.93,-44.93 0.62,-28.24 -16.07,-43.06 -43.53,-46.49 -27.92,1.4 -45.7,14.82 -47.42,43.06 -1.72,27.92 12.94,46.18 41.02,48.36zm4.21 633.98c31.2,-4.52 52.57,-21.22 53.35,-53.04 0.94,-31.83 -19.34,-53.19 -50.39,-54.59 -34.32,-1.56 -56.16,20.12 -56.01,54.44 0.16,31.66 22,48.67 53.04,53.19zm-2.96 -316.06c32.29,1.72 50.23,-18.72 55.07,-50.07 -3.28,-29.8 -19.5,-50.07 -48.83,-51.48 -32.13,-1.56 -53.19,18.25 -53.98,50.39 -0.78,29.64 18.56,49.6 47.74,51.17zm-1.41 1267.19c34.47,2.65 57.72,-14.2 61.46,-49.76 3.9,-37.44 -14.66,-59.59 -52.88,-65.36 -33.39,0.78 -57.41,14.82 -60.84,50.85 -3.59,36.98 13.72,61.31 52.26,64.28zm5.62 -313.09c35.57,-0.15 53.2,-21.37 56.31,-56 -2.65,-34.79 -19.97,-56.01 -55.54,-56.94 -35.1,-0.78 -56.63,18.09 -58.04,53.35 -1.71,37.91 19.04,59.59 57.26,59.59zm-1.87 -325.1c34.94,0.78 52.57,-21.53 57.1,-55.38 -5.15,-33.7 -23.09,-55.54 -58.04,-54.6 -31.83,0.94 -52.1,20.9 -53.04,52.73 -1.24,34.63 19.35,56.47 53.98,57.25zm-312 -1586.83c25.74,0.31 39.47,-17.16 42.9,-42.12 -4.83,-25.27 -18.87,-42.12 -44.93,-40.87 -22.78,1.09 -38.53,16.85 -39.15,39.78 -0.63,25.9 15.6,42.9 41.18,43.21zm-327.13 1920.82c40.87,2.18 67.39,-22.15 69.27,-62.71 2.03,-41.18 -24.18,-63.02 -64.11,-69.57 -39.93,4.83 -66.3,25.74 -66.61,67.08 -0.31,38.38 23.55,63.18 61.46,65.2zm5.78 313.09c41.18,-1.09 61.62,-27.77 65.67,-68.02 -6.55,-39.62 -28.24,-65.52 -69.42,-63.96 -40.72,1.4 -65.37,27.15 -64.11,68.02 1.24,40.56 26.98,65.05 67.86,63.96zm-0.63 -637.72c38.38,-3.12 58.81,-26.67 63.49,-61.15 0,-35.72 -30.73,-68.8 -63.33,-67.55 -38.38,1.41 -61.46,23.72 -65.83,61.62 -3.75,34 31.35,69.89 65.67,67.08zm-5.93 -317.78c37.13,2.5 59.13,-16.69 64.27,-54.29 -0.31,-36.66 -16.85,-61 -54.91,-63.5 -36.97,-2.34 -60.99,16.22 -63.49,54.29 -2.5,36.82 16.22,60.84 54.13,63.49zm-305.13 -1589.48c25.27,-1.09 38.53,-18.57 41.18,-43.83 -4.21,-24.81 -17.94,-41.65 -43.52,-41.65 -25.43,0 -42.43,15.91 -42.9,41.18 -0.63,28.08 17.16,45.39 45.24,44.3zm313.56 1274.52c35.57,-1.56 52.1,-24.03 53.51,-59.28 -4.21,-34.01 -22.62,-54.13 -58.19,-53.51 -35.26,0.63 -55.54,20.75 -55.38,56.01 0.01,38.21 22.31,58.33 60.06,56.78zm-316.99 -1606.02c21.53,0.47 34.79,-10.92 35.57,-32.6 0.94,-24.34 -12.17,-37.75 -36.66,-36.98 -21.84,0.63 -32.44,13.89 -33.23,35.1 1.4,21.69 12.48,34.17 34.32,34.48zm-2.19 -318.86c19.03,1.72 31.83,-10.14 31.51,-29.48 -0.15,-16.38 -11.7,-25.74 -28.24,-28.24 -16.54,1.87 -27.61,11.23 -29.01,27.46 -1.25,17 9.83,28.86 25.74,30.26zm637.72 3505.62c38.22,0.78 61.47,-23.4 65.68,-61.15 3.74,-34.16 -31.35,-69.89 -65.68,-67.08 -38.38,3.12 -58.65,26.83 -63.8,64.43 5.15,37.6 25.58,63.03 63.8,63.81zm-324.01 -3511.54c15.13,1.09 23.24,-7.02 24.65,-22.62 -0.94,-14.51 -8.43,-22.93 -23.71,-22.62 -12.32,0.31 -20.44,7.02 -21.69,19.5 -1.4,14.81 5.31,24.8 20.75,25.74zm322.3 3197.67c38.53,2.19 60.37,-22.78 66.93,-61.46 -4.37,-37.44 -24.81,-62.87 -63.5,-63.65 -35.88,-0.63 -60.37,22.78 -62.71,58.19 -2.65,38.84 21.21,64.74 59.28,66.93zm-324.63 -2875.38c21.37,2.65 33.38,-9.98 37.29,-30.42 -0.78,-19.35 -10.77,-32.29 -28.86,-34.32 -21.21,-2.49 -35.1,9.52 -36.66,30.89 -1.56,19.03 10.14,31.66 28.24,33.85zm7.96 331.03c22.31,-1.87 34.78,-17.94 37.13,-42.12 -4.99,-23.56 -19.03,-40.09 -44.61,-37.75 -22.31,2.03 -37.44,17.94 -36.19,41.03 1.24,25.43 18.09,41.03 43.68,38.84zm-6.56 635.85c32.45,1.41 50.07,-19.19 54.44,-50.39 -3.59,-29.95 -19.97,-50.07 -49.3,-51.33 -32.3,-1.25 -53.04,18.72 -53.51,51.02 -0.31,29.64 19.19,49.45 48.36,50.7zm2.97 -318.54c28.24,0 42.27,-17.47 45.24,-44.93 -3.12,-27.46 -17.47,-44.61 -45.71,-44.3 -28.08,0.31 -44.46,16.85 -44.3,44.93 0.15,27.92 16.69,44.3 44.77,44.3zm-0.94 645.37c34.78,0.15 52.26,-22.31 56.47,-58.34 -6.86,-27.93 -22.61,-50.39 -55.07,-49.92 -34.47,0.31 -55.69,21.69 -54.76,56.16 0.78,31.67 21.53,52.11 53.35,52.11zm326.98 -967.67c21.84,-1.09 31.83,-14.82 32.44,-38.22 -2.34,-19.19 -13.41,-31.52 -35.26,-31.52 -21.69,0.15 -34.32,11.86 -34.79,33.54 -0.3,24.65 13.42,37.28 37.6,36.19zm1262.5 2530.78c21.37,-5.78 39.31,-18.41 38.53,-44.46 -0.78,-25.43 -16.85,-42.12 -42.12,-42.12 -28.08,0 -45.24,17.94 -43.37,46.02 1.56,24.96 19.19,38.38 46.96,40.57zm-331.19 -1264.84c25.58,1.87 39.93,-14.35 44.15,-40.41 -3.12,-21.53 -15.13,-37.91 -37.75,-39.47 -25.43,-1.56 -42.27,14.04 -43.06,39.47 -0.93,23.09 14.36,38.84 36.67,40.41zm329 624.93c24.96,-2.18 40.41,-19.04 37.44,-44.78 -2.65,-22.46 -19.03,-34.32 -41.5,-35.88 -24.8,5.46 -40.87,19.81 -37.75,45.7 2.65,22.31 18.87,36.98 41.81,34.95zm-3.59 -317.61c21.52,0.94 33.85,-10.61 36.35,-32.13 0.15,-21.37 -9.36,-35.41 -31.04,-37.44 -20.9,-1.87 -36.04,7.49 -38.53,29.33 -2.5,23.71 8.26,39.16 33.22,40.25zm-323.07 -624.78c21.53,0.46 34.79,-10.92 35.57,-32.61 0.94,-24.34 -12.17,-37.75 -36.66,-36.97 -21.84,0.62 -32.44,13.89 -33.38,35.1 1.56,21.69 12.63,34.02 34.47,34.48zm321.36 310.6c19.66,-0.31 32.61,-9.83 35.26,-27.93 3.12,-21.21 -8.58,-35.26 -29.8,-37.59 -18.87,-2.03 -31.83,9.2 -34.63,27.46 -3.12,21.37 9.36,33.54 29.17,38.06zm-319.17 -638.04c18.57,-0.94 28.55,-13.72 30.73,-34.47 -5.31,-14.82 -14.04,-29.02 -33.38,-27.61 -18.41,1.4 -30.73,13.57 -29.64,32.44 1.09,18.57 13.57,30.73 32.3,29.64zm-628.21 -307.16c24.65,0.94 37.13,-12.64 38.53,-36.04 -1.56,-22.62 -12.8,-35.72 -34.63,-36.35 -24.49,-0.78 -38.38,12.32 -38.22,36.97 0.31,21.68 12.63,34.63 34.32,35.41zm947.38 1902.1c25.89,1.71 43.21,-14.35 44.61,-39.78 1.41,-25.89 -16.07,-39.93 -41.19,-44.3 -25.11,4.06 -42.12,17.47 -41.81,43.53 0.16,23.24 15.76,39 38.38,40.56zm627.43 295.77c12.32,-0.15 23.4,-5.62 24.8,-20.9 1.56,-17 -6.08,-28.08 -24.49,-28.24 -14.98,-0.15 -23.4,8.27 -24.34,23.24 -0.63,14.98 7.18,23.4 24.03,25.89zm0.63 -314.81c15.29,0 22.46,-9.05 22.78,-23.4 -1.87,-15.91 -10.77,-22.93 -25.58,-21.69 -12.48,1.09 -19.35,9.05 -19.81,21.22 -0.63,15.29 7.48,24.03 22.62,23.87zm-314.34 -948.32c15.13,1.09 23.24,-7.02 24.65,-22.61 -0.94,-14.51 -8.43,-22.93 -23.72,-22.62 -12.32,0.31 -20.43,7.02 -21.69,19.5 -1.24,14.67 5.47,24.65 20.76,25.74zm-0.15 635.39c19.35,-0.78 32.29,-10.77 34.32,-28.86 2.5,-21.22 -9.52,-35.1 -30.89,-36.66 -19.04,-1.41 -31.67,10.3 -33.85,28.39 -2.5,21.22 10.13,33.23 30.42,37.13zm4.68 324.79c18.25,-2.65 31.67,-12.8 31.04,-35.41 -0.46,-19.34 -11.39,-31.2 -30.73,-32.6 -21.84,-1.41 -35.57,9.67 -36.66,31.98 -1.09,22.15 11.39,33.85 36.35,36.04zm-5.78 -641.94c19.04,1.72 31.83,-10.14 31.52,-29.49 -0.15,-16.38 -11.7,-25.74 -30.11,-28.39 -14.04,2.96 -25.89,11.23 -27.15,27.77 -1.09,16.85 9.83,28.7 25.74,30.11zm-309.04 -624.78c16.54,0.31 25.74,-11.23 28.86,-27.77 -1.56,-16.38 -10.61,-27.61 -26.83,-29.33 -16.85,-1.87 -28.86,9.2 -30.73,24.81 -2.18,19.04 9.52,31.98 28.7,32.29zm-325.72 -641.94c15.13,1.09 23.24,-7.02 24.65,-22.62 -0.94,-14.51 -8.43,-22.93 -23.71,-22.62 -12.32,0.31 -20.44,7.02 -21.69,19.5 -1.24,14.66 5.47,24.65 20.76,25.74zm-306.85 1285.75c27.77,-1.72 43.83,-19.19 43.83,-47.11 -0.15,-30.89 -18.25,-46.49 -48.36,-48.52 -30.58,3.28 -48.05,19.97 -46.64,50.55 1.4,30.88 20.9,46.95 51.17,45.08zm-2.19 316.99c31.83,-5.77 51.95,-24.02 49.14,-56.47 -2.49,-29.01 -22.93,-48.05 -52.57,-46.33 -31.83,1.88 -51.48,22.93 -48.98,55.38 2.5,29.17 23.09,44.78 52.42,47.42zm-6.55 324.64c34.32,3.12 56.79,-17.94 58.19,-52.1 1.25,-31.83 -20.12,-49.3 -51.01,-55.38 -31.35,2.81 -53.04,19.5 -55.38,50.85 -2.65,31.83 17.31,53.83 48.2,56.63zm3.28 -956.9c27.92,1.09 45.08,-14.98 46.33,-42.9 1.25,-28.24 -15.6,-43.06 -46.02,-47.58 -23.24,3.74 -42.59,15.44 -43.21,44.3 -0.78,27.92 14.98,45.09 42.9,46.18zm1.72 -314.34c25.58,0.63 39.31,-16.54 43.68,-41.33 -2.5,-25.12 -15.76,-42.28 -41.03,-44.15 -25.74,-1.88 -43.06,14.04 -45.39,38.69 -2.34,28.07 14.67,46.17 42.75,46.8zm-313.87 -960.02c19.03,1.25 29.17,-11.54 33.7,-32.13 -3.43,-15.13 -11.86,-29.17 -30.89,-29.95 -19.04,-0.78 -31.36,11.23 -32.45,29.64 -1.09,18.87 11.23,31.19 29.64,32.44zm313.71 2546.06c31.83,-4.52 53.35,-21.21 54.13,-53.04 0.94,-34.48 -20.13,-56.16 -54.6,-56.31 -31.83,-0.15 -52.42,20.28 -53.67,51.79 -1.09,34.63 21.06,52.57 54.13,57.56zm-1.56 312.31c31.83,-3.12 53.51,-19.66 55.69,-51.17 2.34,-34.47 -18.25,-57.09 -52.57,-58.19 -34.32,-1.09 -55.85,20.75 -55.54,55.22 0.15,31.98 21.52,48.98 52.41,54.13zm2.96 -2546.07c18.41,-1.09 30.57,-13.57 29.64,-32.29 -0.94,-18.57 -13.72,-28.55 -32.29,-30.42 -18.09,4.06 -30.89,14.2 -29.8,33.23 1.26,18.41 13.58,30.57 32.45,29.48zm310.13 1913.33c30.73,0.63 46.65,-17.47 49.14,-47.73 -2.81,-30.42 -19.19,-47.89 -49.92,-47.27 -27.93,0.63 -44.78,17.16 -45.87,45.08 -0.78,30.58 15.91,49.3 46.65,49.92zm-314.81 -1595.72c24.18,1.56 37.91,-10.77 40.25,-38.38 -1.72,-18.09 -11.23,-32.61 -33.39,-33.85 -24.18,-1.4 -38.84,10.61 -39.62,35.57 -0.62,21.53 11.07,35.25 32.76,36.66zm313.56 1269.21c27.92,1.41 45.39,-14.35 46.95,-42.27 1.56,-28.24 -14.97,-43.21 -41.81,-47.74 -27.93,1.56 -46.02,14.98 -47.27,43.06 -1.56,28.08 14.04,45.55 42.12,46.95zm2.8 640.38c30.42,-0.31 46.49,-19.19 48.98,-49.45 -3.12,-30.26 -19.65,-48.83 -50.07,-48.36 -30.42,0.31 -48.67,19.04 -48.36,49.45 0.31,30.42 19.03,48.67 49.45,48.36zm-2.18 -954.56c28.08,0.63 45.39,-17.16 44.3,-45.24 -1.09,-25.27 -18.57,-38.53 -43.68,-41.19 -24.8,4.21 -41.65,17.94 -41.65,43.53 -0.16,25.43 15.91,42.27 41.02,42.9zm-47.27 1217.58c-0.46,30.42 18.09,46.96 49.92,50.39 28.39,-2.97 47.74,-18.57 48.05,-49.14 0.31,-30.42 -17.94,-49.14 -48.36,-49.45 -30.43,-0.63 -49.15,17.78 -49.61,48.2zm-268 -2811.11c14.2,2.03 25.27,-3.74 26.99,-19.34 1.56,-14.67 -5.46,-24.03 -24.18,-26.36 -10.61,1.41 -20.59,7.02 -20.9,22.78 -0.32,12.64 6.08,21.22 18.09,22.93zm-1569.04 22.15c28.08,0.15 44.62,-16.22 44.93,-44.3 0.31,-28.24 -16.85,-42.59 -44.3,-45.7 -27.46,2.81 -44.78,16.85 -44.93,45.24 -0,27.92 16.22,44.61 44.3,44.77zm-946.45 1916.77c39.16,-1.09 74.1,-37.13 73.94,-75.97 -0.15,-39 -35.57,-74.72 -74.57,-75.35 -38.84,-0.62 -75.19,34.16 -76.75,73.32 -1.56,40.56 36.51,79.09 77.38,78zm-1.09 -1912.4c30.42,-0.31 48.67,-19.19 48.36,-49.45 -0.31,-30.42 -19.19,-46.49 -49.3,-48.98 -30.42,3.12 -48.98,19.66 -48.52,50.24 0.31,30.26 19.04,48.51 49.46,48.2zm-1.87 -650.2c21.53,0.94 33.85,-10.61 36.35,-32.13 0.15,-21.37 -9.37,-35.41 -31.04,-37.44 -20.9,-1.87 -36.04,7.49 -38.53,29.33 -2.65,23.71 8.27,39.16 33.22,40.25zm2.5 320.27c25.43,-0.15 38.84,-17.47 42.59,-42.59 -3.43,-24.96 -16.69,-41.96 -42.12,-42.9 -25.58,-1.09 -42.74,14.98 -44.15,39.78 -1.87,28.24 15.45,46.02 43.69,45.71zm0 647.4c31.98,-0.15 48.82,-21.53 54.44,-55.07 -4.37,-28.39 -19.66,-51.17 -51.48,-53.19 -34.47,-2.18 -57.25,18.41 -58.19,52.57 -0.94,34.63 20.74,56.01 55.22,55.7zm-1.56 646.3c38.53,-2.03 59.28,-25.27 65.52,-63.02 -4.06,-37.59 -24.18,-63.34 -62.24,-65.21 -38.38,-1.87 -61.93,22 -67.24,59.59 -4.83,33.85 29.33,70.51 63.96,68.64zm-4.21 629.77c43.68,2.5 71.13,-20.28 73.79,-64.74 2.65,-43.84 -21.06,-68.8 -66.3,-75.04 -41.34,1.72 -70.05,21.22 -72.39,65.99 -2.19,43.68 20.59,71.29 64.9,73.78zm7.17 -314.65c41.5,-2.81 61.62,-27.93 65.37,-68.64 -5.31,-39.78 -26.21,-65.21 -67.86,-65.05 -41.34,0.15 -64.74,24.02 -67.08,65.21 -2.19,39.16 30.42,71.14 69.57,68.48zm-2.5 -645.06c38.22,0.15 56.79,-22.15 58.65,-59.44 -3.43,-37.59 -23.71,-57.87 -61.62,-56.63 -35.1,1.25 -54.91,21.53 -55.22,56.63 -0.31,37.91 20.12,59.44 58.19,59.44zm309.82 643.97c40.87,1.71 66.77,-22.78 68.64,-63.5 1.88,-41.34 -23.87,-63.02 -63.33,-70.04 -40.41,3.59 -67.24,23.87 -68.8,64.9 -1.57,41.02 22.77,67.08 63.49,68.64zm-311.06 -2250.76c14.98,0.78 23.56,-7.02 26.06,-23.87 -0.15,-12.32 -5.62,-23.4 -20.9,-24.8 -17,-1.56 -28.08,6.09 -28.24,24.34 -0.32,15.13 8.11,23.55 23.08,24.33zm316.37 1606.94c31.67,-3.43 53.67,-19.81 54.29,-55.85 0.62,-37.91 -19.35,-59.44 -57.56,-59.59 -35.26,0 -55.7,19.5 -56.79,54.76 -1.09,38.37 19.96,57.88 60.06,60.68zm-2.18 959.09c40.24,0.94 69.57,-30.42 68.48,-70.82 -0.94,-39.93 -32.29,-69.73 -72.39,-66.93 -41.33,2.96 -65.21,26.52 -65.21,68.02 -0.15,44.3 24.81,68.64 69.11,69.73zm-1.88 957.99c42.59,0.63 78.31,-33.23 79.72,-75.82 1.4,-42.43 -32.13,-78.93 -74.41,-81.11 -42.44,-2.03 -79.56,30.73 -82.37,73.01 -2.96,44.77 32.45,83.31 77.07,83.93zm-2.18 -313.71c40.25,2.03 79.25,-34.17 80.5,-75.04 1.25,-40.56 -35.57,-80.34 -76.28,-78.62 -44.78,1.87 -71.6,27.92 -77.22,71.76 -5.15,39.93 32.13,79.71 73,81.9zm4.83 -325.73c39.16,-0.94 74.41,-37.44 73.48,-76.44 -0.94,-39.16 -37.44,-74.41 -76.44,-73.48 -39.16,0.94 -74.26,37.44 -73.48,76.44 1.09,39.31 37.6,74.41 76.44,73.48zm-3.28 -949.73c38.69,1.25 59.9,-24.03 65.83,-63.5 -5.77,-36.19 -26.06,-61.78 -64.9,-61.62 -35.88,0.15 -60.06,23.87 -61.62,59.44 -1.71,38.69 22.47,64.43 60.69,65.68zm-628.52 317.77c41.65,-1.56 68.64,-20.9 72.07,-62.08 3.43,-41.03 -18.72,-66.61 -59.44,-72.39 -38.84,-5.62 -73.63,24.65 -74.1,63.65 -0.63,41.81 22.93,63.65 61.46,70.82zm5.77 632.74c39,-0.15 74.73,-35.41 75.5,-74.57 0.78,-38.85 -34.01,-75.35 -73.16,-76.91 -38.38,-1.56 -75.82,32.76 -78.31,71.76 -2.5,40.56 34.94,79.87 75.97,79.72zm0.47 -318.7c44.61,-0.31 66.45,-26.67 69.57,-70.05 -4.06,-43.68 -26.67,-69.26 -71.13,-68.64 -44.3,0.63 -68.96,26.06 -68.64,70.2 0.63,44.15 26.21,68.8 70.2,68.49zm-1.25 -640.22c37.59,-4.69 63.18,-25.12 64.43,-63.19 1.25,-38.22 -22.78,-61.62 -60.53,-66.3 -34.01,-4.21 -70.04,30.73 -67.7,65.05 2.66,38.38 26.21,58.81 63.81,64.43zm-2.03 1912.86c48.82,1.4 84.55,-34.01 83.77,-82.83 -0.78,-46.49 -34.79,-79.71 -81.43,-79.56 -46.64,0.15 -80.34,33.54 -80.96,80.02 -0.62,46.8 32.3,81.12 78.63,82.37zm-0.78 -2232.51c37.75,1.88 58.34,-18.41 62.09,-56 -1.72,-37.44 -19.81,-59.59 -58.19,-60.06 -34.94,-0.46 -56.47,18.26 -58.5,53.35 -2.18,37.28 16.39,60.83 54.6,62.71zm1.56 1918.33c46.18,0.94 80.96,-33.07 81.12,-78.94 0.15,-46.18 -34.16,-80.34 -80.34,-79.72 -43.84,0.47 -76.91,32.61 -78.47,76.28 -1.56,46.02 31.67,81.43 77.69,82.37zm1.4 -313.72c41.96,0.15 78.31,-35.72 78.47,-77.69 0.15,-41.96 -35.72,-78.31 -77.69,-78.47 -41.96,-0.15 -78.31,35.72 -78.47,77.69 -0.16,41.97 35.72,78.16 77.69,78.47zm312.62 627.11c46.96,0.15 80.65,-33.39 80.65,-80.34 0.15,-46.95 -33.38,-80.65 -80.34,-80.65 -46.96,-0.15 -80.65,33.38 -80.65,80.34 -0.15,46.96 33.38,80.65 80.34,80.65zm-3.9 -627.74c41.19,2.34 80.03,-33.23 81.59,-74.88 1.56,-41.5 -34.48,-79.4 -76.28,-80.19 -39.31,-0.78 -75.66,32.44 -78.63,72.07 -3.28,41.18 31.51,80.5 73.32,82.99zm-308.88 -2237.81c34.94,3.59 48.99,299.05 56.01,266.61 -2.34,-32.29 -18.57,-54.13 -50.07,-57.1 -34.63,-3.28 -56.94,17.32 -59.44,51.33 -2.34,31.98 22.31,-263.96 53.51,-260.83zm314.03 2552.15c46.02,-0.47 79.56,-35.57 78.31,-81.91 -1.25,-43.83 -33.85,-76.13 -77.69,-76.91 -46.18,-0.94 -80.96,33.07 -81.12,79.09 -0.16,46.02 34.31,80.19 80.49,79.72zm-309.19 -3521.22c15.75,-2.18 26.36,-14.51 24.18,-31.2 -2.03,-16.07 -13.41,-25.11 -29.64,-26.2 -16.54,3.43 -28.24,12.94 -27.3,29.48 0.78,18.88 13.57,30.58 32.76,27.93zm-0.79 318.86c21.84,-1.56 31.52,-15.6 31.52,-36.97 -2.34,-21.53 -14.35,-33.07 -36.04,-32.61 -21.69,0.46 -33.85,12.63 -34.01,34.32 0.16,24.81 14.66,36.82 38.53,35.26zm-4.06 650.2c30.42,0.46 46.96,-18.09 50.24,-48.52 -2.5,-29.95 -18.57,-48.98 -48.98,-49.3 -30.42,-0.31 -49.14,17.94 -49.45,48.36 -0.47,30.27 17.78,48.99 48.2,49.46zm1577.31 628.99c31.35,-1.72 48.05,-23.71 51.01,-55.07 -5.93,-30.89 -23.24,-51.95 -55.22,-51.32 -31.52,0.63 -52.57,21.21 -52.42,52.73 -0.01,34.17 22.3,55.54 56.63,53.67zm-1577.78 -957.83c25.89,1.09 42.59,-14.82 44.61,-40.09 2.34,-28.7 -15.13,-43.83 -45.24,-48.98 -22,3.9 -40.56,15.6 -42.12,41.5 -1.87,28.55 14.51,46.33 42.75,47.58zm1260.47 2876.47c39,0.78 75.5,-34.32 76.28,-73.48 0.94,-39 -34.32,-75.5 -73.48,-76.28 -39,-0.78 -75.51,34.32 -76.28,73.48 -0.93,38.84 34.32,75.35 73.48,76.28zm2.65 -1915.52c33.54,-5.62 55.22,-23.87 53.67,-58.96 -1.41,-31.67 -21.53,-51.79 -53.51,-52.26 -34.63,-0.46 -56.16,20.28 -56.31,54.91 -0.32,34.95 22.3,52.42 56.15,56.32zm-1.72 326.04c37.29,-2.49 58.81,-21.37 58.5,-59.59 -0.31,-35.1 -19.66,-55.69 -54.76,-57.1 -37.44,-1.4 -60.22,17.78 -61.31,56.01 -1.09,38.06 19.97,57.72 57.56,60.68zm2.49 -643.96c31.83,-1.56 51.33,-23.09 48.52,-55.54 -2.65,-29.33 -23.24,-44.61 -51.95,-46.96 -29.95,5 -49.61,21.69 -49.61,51.17 0.32,32.14 20.91,52.89 53.04,51.33zm-5.3 1591.5c41.96,-2.18 67.39,-21.84 71.45,-63.8 3.74,-40.25 -25.74,-72.23 -65.68,-73.48 -40.56,-1.25 -71.6,28.39 -70.67,68.8 1.09,42.12 25.12,63.33 64.9,68.48zm2.65 325.73c43.37,-2.96 69.73,-25.12 70.82,-69.27 0.94,-43.68 -22.93,-69.27 -66.93,-72.39 -42.59,-3.12 -75.35,28.7 -73.79,71.29 1.56,44.15 26.52,66.78 69.89,70.36zm5.3 -639.28c36.04,-7.64 63.02,-28.08 61.47,-69.73 -1.56,-40.72 -27.15,-65.37 -68.02,-64.11 -40.72,1.25 -65.21,26.98 -64.11,67.86 0.93,41.18 27.76,61.62 70.66,65.99zm-1585.73 -2565.26c14.98,-1.72 21.53,-11.54 21.21,-26.36 -1.87,-14.82 -9.98,-22.93 -25.11,-22.46 -18.41,0.78 -25.74,12.32 -23.56,29.01 1.87,15.13 13.11,21.37 27.46,19.81zm1576.53 2249.2c34.01,5 70.51,-29.01 68.95,-63.8 -1.87,-38.53 -25.12,-59.44 -62.87,-65.68 -37.59,3.9 -63.33,24.03 -65.36,61.93 -2.18,38.38 21.69,62.09 59.28,67.54zm312.31 -5.3c36.98,2.49 61,-16.22 63.65,-54.29 2.49,-37.13 -16.69,-59.13 -54.29,-64.27 -36.66,0.31 -61,16.85 -63.5,54.91 -2.49,36.98 16.07,61.16 54.14,63.65zm-306.38 -1924.72c18.57,-0.94 28.55,-13.72 30.42,-32.29 -4.06,-18.09 -14.2,-30.89 -33.23,-29.8 -18.41,1.09 -30.73,13.57 -29.64,32.44 1.1,18.41 13.57,30.58 32.45,29.65zm313.56 2242.65c38.06,-4.06 58.34,-27.77 62.56,-65.36 -5.93,-37.75 -26.83,-62.87 -65.05,-62.87 -38.22,0 -61.15,24.34 -64.43,62.4 -2.96,34.32 32.91,69.43 66.92,65.83zm-953.31 -1271.24c34.32,1.56 56.01,-19.97 56.31,-54.44 0.31,-31.98 -20.9,-49.14 -51.64,-54.91 -31.83,2.49 -53.67,18.87 -56.47,50.23 -2.8,34.63 17.79,57.41 51.8,59.12zm952.38 1585.27c41.18,-0.94 61.62,-27.61 65.99,-67.86 -6.4,-39.62 -27.93,-65.68 -69.11,-64.43 -40.72,1.25 -65.52,26.83 -64.43,67.7 0.93,40.87 26.67,65.51 67.55,64.58zm-0.78 638.81c40.41,0.94 69.42,-30.42 68.17,-70.98 -1.09,-39.78 -32.61,-69.57 -72.7,-66.61 -41.34,3.12 -65.05,26.83 -65.05,68.33 0.16,44.16 25.28,68.33 69.58,69.27zm-3.12 -313.4c39.62,1.25 70.98,-28.7 69.89,-68.33 -1.25,-41.65 -25.27,-62.56 -64.43,-68.02 -41.33,2.49 -66.61,22.15 -70.67,63.5 -3.9,39.31 26.06,71.6 65.21,72.85zm0.93 -1271.4c34.79,-2.34 56.79,-19.19 57.56,-54.91 0.94,-38.07 -19.97,-59.44 -58.04,-58.81 -35.26,0.63 -54.76,21.53 -54.76,56.63 0.17,35.72 20.91,53.67 55.23,57.1zm-637.26 635.07c39.62,2.65 70.51,-28.08 70.36,-75.19 -3.28,-32.76 -23.71,-57.41 -65.21,-59.91 -39.62,-2.49 -71.29,28.24 -70.05,67.7 1.25,41.19 23.87,64.59 64.9,67.39zm0 644.13c40.87,1.56 79.25,-36.35 78.31,-77.22 -0.94,-39.15 -36.97,-74.26 -75.81,-74.1 -39,0.15 -74.73,35.41 -75.5,74.41 -0.78,38.85 33.85,75.35 73.01,76.91zm4.52 -328.69c44.15,-2.18 66.3,-27.61 69.27,-70.98 -3.59,-43.37 -26.06,-69.42 -70.2,-69.89 -43.83,-0.47 -68.8,24.02 -71.44,68.02 -2.5,42.59 29.79,74.88 72.38,72.85zm-313.56 -2880.21c14.97,-0.31 22.78,-8.89 23.87,-24.03 -0.31,-14.66 -7.8,-23.56 -22.62,-24.65 -14.67,-1.09 -24.96,6.09 -26.21,21.06 -1.4,17.01 6.71,27.93 24.96,27.61zm309.97 -1.88c15.13,1.09 23.24,-7.02 24.65,-22.61 -0.94,-14.51 -8.43,-22.93 -23.71,-22.62 -12.32,0.31 -20.44,7.02 -21.69,19.5 -1.4,14.67 5.31,24.65 20.75,25.74zm-314.49 973.28c30.26,2.18 47.89,-14.51 51.95,-45.39 -1.4,-29.8 -16.22,-48.67 -47.11,-49.45 -27.77,-0.78 -45.86,14.51 -48.2,42.43 -2.81,30.26 12.79,50.07 43.37,52.41zm1.72 -328.38c28.08,0.94 45.55,-16.69 44.61,-44.78 -0.78,-25.43 -18.41,-38.69 -43.37,-41.65 -24.8,4.06 -41.81,17.63 -42.12,43.21 -0.31,25.43 15.76,42.43 40.87,43.21zm4.83 -320.27c21.84,-1.09 31.83,-14.82 32.44,-38.22 -2.34,-19.19 -13.41,-31.67 -35.26,-31.52 -21.69,0.15 -34.32,11.86 -34.78,33.54 -0.47,24.65 13.42,37.28 37.6,36.19zm309.81 3199.86c40.87,-0.15 77.85,-37.91 76.91,-78.63 -0.94,-40.72 -39.78,-78.94 -80.03,-75.03 -44.15,4.37 -70.51,30.89 -73.63,75.35 -2.96,40.72 36.04,78.47 76.75,78.31zm0.16 -2879.28c22,-4.21 40.56,-15.91 41.33,-42.28 0.78,-23.4 -14.35,-39.31 -36.81,-42.12 -26.2,-3.28 -43.68,12.94 -46.33,37.75 -2.65,26.05 14.51,40.56 41.81,46.64zm4.06 327.91c27.93,-2.03 43.52,-19.97 43.06,-47.74 -0.46,-30.89 -19.03,-46.02 -50.07,-47.89 -29.33,4.06 -46.8,20.75 -44.78,51.33 1.87,30.89 21.53,46.64 51.79,44.3zm-4.53 -649.11c21.69,-1.72 34.16,-12.94 33.85,-35.26 -0.31,-19.35 -11.39,-31.2 -30.58,-32.45 -21.84,-1.4 -35.57,9.67 -36.66,31.98 -1.09,22.15 11.24,33.7 33.39,35.72zm3.13 1283.1c35.57,-1.25 52.41,-23.24 54.29,-58.34 -3.74,-34.16 -21.84,-54.76 -57.41,-54.44 -35.26,0.31 -55.85,19.97 -56.16,55.22 -0.47,38.22 21.37,58.81 59.28,57.56zm-6.56 328.53c38.69,1.87 60.53,-22.31 65.99,-60.53 -3.74,-36.04 -23.24,-60.53 -58.96,-62.24 -38.69,-1.88 -63.96,22 -64.9,60.53 -0.93,36.2 22.31,60.53 57.87,62.24zm1.72 316.37c41.34,1.4 62.87,-24.8 68.8,-64.9 -5.31,-39.93 -26.52,-66.14 -67.86,-65.83 -38.22,0.31 -62.87,24.34 -64.43,62.24 -1.72,40.87 22.78,67.08 63.49,68.48zm2.81 -960.49c31.52,-0.15 51.95,-21.21 52.26,-52.88 0.31,-31.98 -20.75,-49.14 -51.79,-54.76 -31.35,3.28 -53.35,20.12 -54.76,51.48 -1.41,34.16 20.12,56.31 54.28,56.16zm318.39 -649.43c25.58,2.65 40.09,-13.26 45.08,-38.38 -1.88,-22.78 -14.2,-38.84 -36.5,-41.19 -25.58,-2.49 -42.43,13.11 -44.3,38.22 -1.72,22.93 13.42,39 35.72,41.34zm7.18 3365.68c-38.38,-1.71 -75.97,32.3 -78.63,71.29 -2.81,40.41 34.48,79.87 75.5,80.03 39,0.15 74.88,-34.95 75.82,-74.1 0.94,-38.52 -33.7,-75.34 -72.7,-77.22zm307.63 3835.09c-10.61,1.41 -20.59,7.02 -20.9,22.78 -0.31,12.48 6.24,21.06 18.26,22.78 14.2,2.03 25.27,-3.74 26.98,-19.35 1.56,-14.51 -5.46,-23.87 -24.34,-26.21zm-0.94 -4013.55c43.83,1.41 70.36,-22.31 72.07,-66.61 1.56,-44.15 -23.09,-68.02 -68.95,-73.31 -40.56,2.96 -68.64,22.93 -69.73,67.86 -1.24,43.83 22.31,70.51 66.61,72.07zm-307.94 -145.08c-38.69,-0.94 -75.51,33.54 -77.37,72.7 -2.03,40.72 35.87,79.4 76.75,78.78 39.16,-0.63 74.41,-36.35 74.57,-75.35 0.15,-39 -34.95,-75.04 -73.94,-76.13zm313.71 469.56c43.37,-4.99 68.02,-28.86 66.3,-73.01 -1.71,-44.3 -28.24,-68.02 -72.07,-66.61 -44.3,1.56 -68.02,28.08 -66.61,72.07 1.41,44.62 28.71,65.52 72.39,67.55zm-3.74 3367.41c-18.72,0 -30.89,11.86 -31.83,30.42 -1.09,21.69 12.17,32.61 32.76,35.26 18.87,-2.5 31.51,-12.32 32.13,-31.2 0.94,-21.52 -11.54,-34.47 -33.07,-34.47zm2.65 -648.96c-27.77,1.88 -45.55,15.6 -46.49,43.84 -0.94,28.08 14.98,45.24 42.9,46.18 27.93,1.09 45.08,-14.98 46.33,-42.9 1.1,-28.24 -15.76,-43.06 -42.74,-47.12zm-2.18 317.15c-22.93,2.96 -38.69,15.75 -39.62,38.38 -1.09,25.58 14.98,42.43 40.41,42.12 25.43,-0.31 41.19,-17.47 39.47,-43.06 -1.57,-22.31 -17.48,-34.95 -40.25,-37.44zm-309.82 -1597.28c-38.22,-2.03 -63.96,22 -66.93,59.59 -3.28,41.19 22.61,63.65 64.27,71.6 35.26,-4.68 62.4,-23.24 64.9,-61.46 2.81,-41.02 -21.84,-67.55 -62.24,-69.73zm-2.18 958.31c-29.02,4.21 -51.33,19.81 -53.51,51.48 -2.18,31.98 17.63,53.82 48.67,56.31 34.32,2.81 56.78,-18.25 57.87,-52.41 1.09,-31.82 -20.44,-49.14 -53.04,-55.38zm1.25 -2229.39c-39,-0.78 -75.5,34.32 -76.28,73.48 -0.94,39 34.32,75.5 73.48,76.28 39,0.78 75.51,-34.32 76.28,-73.48 0.93,-38.84 -34.32,-75.35 -73.48,-76.28zm-1.09 1915.36c-38.38,0.15 -58.5,22.46 -56.63,60.22 1.72,35.57 24.18,51.95 63.96,53.5 28.08,-5.62 49.92,-22.46 48.82,-58.5 -1.09,-35.1 -20.9,-55.37 -56.16,-55.22zm310.59 316.99c-28.86,4.52 -48.98,20.75 -49.45,50.23 -0.46,32.3 19.81,53.04 51.95,52.42 31.98,-0.78 51.79,-22.46 49.61,-54.6 -1.72,-29.17 -22.16,-45.24 -52.11,-48.05zm-306.54 -1918.32c-38.69,-4.68 -76.44,30.73 -78.31,70.2 -1.87,39.16 32.61,75.97 72.22,76.91 39.31,1.09 77.06,-34.16 75.19,-73.48 -2.03,-42.74 -26.83,-68.48 -69.11,-73.63zm0.63 642.41c-39,-4.37 -72.54,26.83 -71.91,65.99 0.62,41.81 24.8,62.87 64.11,68.8 41.19,-2.97 67.55,-22.93 69.57,-64.43 1.87,-41.03 -20.9,-65.83 -61.77,-70.35zm-0.63 -325.42c-40.09,-3.43 -71.91,26.06 -73.48,65.83 -1.56,40.25 27.46,71.29 67.39,72.07 40.41,0.78 71.29,-28.55 70.51,-68.8 -0.78,-41.66 -23.08,-65.52 -64.43,-69.11zm-4.52 955.81c-36.04,-0.46 -60.06,23.09 -61.31,58.81 -1.4,38.84 23.24,60.06 61,65.05 36.5,-4.21 60.68,-24.03 61.78,-59.91 1.24,-38.69 -22.78,-63.49 -61.47,-63.96zm624 649.89c-30.89,0.46 -45.7,19.5 -47.27,49.3 3.9,30.89 21.53,47.42 51.79,45.55 27.77,-1.71 43.99,-19.19 43.83,-46.95 0,-30.58 -17.62,-48.36 -48.36,-47.89zm1.1 637.1c-21.22,1.09 -34.16,11.7 -34.95,33.54 -0.78,21.37 9.98,35.1 31.83,36.35 24.18,1.41 38.07,-11.08 37.76,-35.72 -0.16,-21.84 -12.96,-32.76 -34.63,-34.17zm0.62 -955.5c-31.35,4.52 -52.73,21.53 -52.88,53.82 -0.15,29.64 19.66,49.76 48.52,51.64 32.29,2.18 53.98,-18.09 55.69,-49.76 1.71,-32.3 -19.66,-49.92 -51.33,-55.69zm-307.78 -1.25c-34.79,-3.28 -57.41,16.69 -60.22,50.7 -2.97,34.95 18.72,53.67 51.95,60.22 34.16,-2.96 56.63,-19.97 57.87,-54.91 1.25,-32.14 -18.09,-53.04 -49.61,-56zm304.98 -324.48c-34.79,1.71 -54.76,22.93 -53.51,57.72 1.25,34.79 22.78,54.6 57.56,53.51 35.1,-1.09 51.95,-23.4 54.91,-62.24 -6.55,-28.08 -23.4,-50.7 -58.97,-48.98zm5 -957.53c-40.87,-1.4 -66.93,23.87 -67.55,64.59 -0.63,38.22 24.03,63.18 61.78,64.74 41.19,1.71 62.87,-24.65 69.11,-63.96 -5,-38.22 -25.43,-64.11 -63.34,-65.37zm-2.65 326.82c-36.04,-0.62 -60.22,22.62 -61.62,58.34 -1.56,38.84 22.78,60.22 61.47,65.68 35.41,-4.37 60.06,-23.71 61.31,-59.59 1.4,-38.53 -22.46,-63.65 -61.15,-64.43zm0.62 315.74c-34.94,-0.63 -56.62,17.94 -58.81,53.04 -2.34,37.13 15.91,61 54.29,63.02 37.59,2.03 58.5,-17.94 62.4,-55.54 -1.56,-37.44 -19.5,-59.74 -57.88,-60.53zm-0.31 1276.23c-25.43,-0.31 -42.43,15.6 -43.21,40.87 -0.94,28.08 16.69,45.55 44.78,44.61 25.27,-0.78 38.69,-18.41 41.65,-43.37 -4.06,-24.96 -17.63,-41.81 -43.21,-42.12zm2.34 650.05c-16.85,-2.03 -29.02,8.58 -31.2,24.34 -2.81,19.19 8.89,31.83 27.93,32.76 16.69,0.78 25.89,-10.77 29.95,-29.49 -2.34,-13.26 -10.3,-25.58 -26.67,-27.61zm-310.44 -1612.88c-37.44,-2.34 -60.84,16.38 -62.08,54.91 -1.25,37.91 19.34,59.28 57.72,59.44 35.57,0.15 53.82,-20.28 57.25,-54.13 -0.94,-35.57 -17.17,-57.88 -52.89,-60.22zm-4.06 -633.2c-38.38,-0.63 -63.5,22.78 -66.14,60.53 -2.96,41.03 21.21,67.7 61.78,70.2 41.18,2.65 63.33,-23.4 70.82,-65.52 -5.46,-36.97 -24.96,-64.43 -66.46,-65.2zm-0.16 315.27c-35.87,-0.62 -60.37,22.31 -63.02,57.72 -2.97,38.84 20.9,64.74 58.81,67.24 38.53,2.5 60.53,-22.46 67.55,-62.56 -4.99,-35.26 -24.33,-61.63 -63.34,-62.41zm2.03 -1267.49c-43.84,-1.41 -70.51,22.31 -72.07,66.61 -1.4,43.83 22.31,70.35 66.61,72.07 44.15,1.72 68.02,-23.09 73.01,-66.45 -2.03,-43.69 -22.94,-70.83 -67.55,-72.23zm-1.72 313.56c-41.81,0.63 -65.83,22.78 -69.11,64.43 -3.12,40.25 26.98,71.6 74.72,72.23 33.38,-2.5 58.5,-22.78 61.62,-64.74 2.97,-40.4 -27.15,-72.54 -67.24,-71.91zm-8.89 447.72c44.15,0.46 75.04,-28.09 74.88,-65.05 -0.31,-41.34 -22.46,-65.37 -63.5,-69.11 -39,-3.43 -71.91,28.39 -70.51,67.55 1.56,41.81 26.05,62.56 59.12,66.61zm-938.8 185.95c-42.59,-2.18 -74.73,30.42 -72.23,72.85 2.5,44.15 28.24,65.99 71.45,68.64 43.68,-3.9 69.27,-26.67 69.42,-70.82 0,-43.69 -24.81,-68.49 -68.64,-70.67zm5.3 -642.72c-41.03,-4.21 -81.11,29.8 -84.39,71.6 -3.28,41.18 31.35,80.65 73.01,83.15 41.18,2.49 80.02,-32.92 81.9,-74.57 1.55,-39.31 -30.9,-76.13 -70.52,-80.18zm-8.11 314.02c-39,0.63 -74.41,36.35 -74.73,75.35 -0.31,41.03 38.84,78.47 79.4,76.13 38.85,-2.34 73.32,-39.62 71.92,-78.16 -1.24,-39.15 -37.75,-73.93 -76.59,-73.31zm1261.1 -171.44c40.87,0 66.45,-24.96 66.3,-65.83 -0.15,-41.19 -26.98,-61.93 -67.24,-66.46 -39.78,6.86 -65.52,28.86 -63.65,70.05 1.72,38.06 26.21,62.24 64.59,62.24zm-1256.89 815.25c-39.47,-1.72 -70.67,27.93 -70.98,67.39 -0.33,85.74 126.69,92.94 135.56,8.26 0.32,-44.93 -27.29,-74.1 -64.58,-75.66zm-6.86 -1908.5c-43.52,1.88 -75.5,35.1 -75.66,79.09 -0.15,46.18 34.32,80.34 80.5,79.72 46.02,-0.47 79.56,-35.57 78.31,-81.74 -1.25,-45.87 -36.97,-78.94 -83.15,-77.06zm8.74 2224.08c-41.03,-2.81 -67.54,21.84 -69.73,62.24 -2.03,38.22 22,63.96 59.59,66.93 41.19,3.28 63.5,-22.62 71.6,-64.27 -4.52,-35.1 -23.09,-62.24 -61.46,-64.9zm-4.99 -1587.45c-45.87,0 -80.34,35.57 -78.94,81.59 1.4,43.53 35.1,76.13 78.94,76.13 45.87,0 80.34,-35.57 78.94,-81.59 -1.41,-43.69 -35.1,-76.13 -78.94,-76.13zm-2.5 -324.17c-45.86,1.25 -78.93,37.13 -76.91,83.3 1.87,43.53 35.26,75.35 79.09,75.51 46.18,0.15 80.19,-34.32 79.72,-80.5 -0.63,-46.02 -35.72,-79.56 -81.9,-78.31zm-0.62 2872.72c-30.42,6.87 -50.85,24.49 -47.43,57.25 3.12,29.17 23.72,47.74 53.2,45.56 31.67,-2.34 51.17,-23.56 48.05,-56.16 -3.12,-29.33 -23.87,-44.3 -53.82,-46.65zm1.71 969.38c-18.41,1.09 -30.73,13.57 -29.64,32.44 1.09,18.41 13.57,30.58 32.44,29.64 18.57,-0.94 28.55,-13.73 30.42,-32.3 -4.06,-18.25 -14.19,-31.04 -33.22,-29.79zm-309.35 -3843.98c-46.8,-0.78 -81.28,31.83 -82.83,78.16 -1.56,46.8 30.73,82.06 76.76,84.24 48.83,2.34 85.49,-32.44 85.65,-80.96 0.15,-46.49 -33.24,-80.5 -79.57,-81.43zm307.01 3522.62c-22.31,1.87 -34.94,17.94 -36.98,40.87 4.52,25.12 19.04,41.03 44.62,38.84 22.15,-2.03 37.44,-17.94 36.19,-41.03 -1.56,-25.11 -18.4,-40.71 -43.83,-38.69zm318.86 -3675.65c41.81,-1.41 76.91,-39 75.5,-80.81 -1.4,-41.81 -39,-76.91 -80.8,-75.5 -41.81,1.4 -76.91,39 -75.5,80.8 1.4,41.96 39,76.91 80.8,75.51zm-316.21 3347.43c-28.08,0.78 -44.15,17.63 -43.52,45.71 0.62,27.92 17.63,44.15 45.7,43.52 28.24,-0.63 42.12,-18.09 44.46,-45.87 -3.74,-27.29 -18.41,-44.3 -46.64,-43.37zm-5.62 -637.25c-28.08,6.71 -50.7,23.4 -48.98,58.96 1.71,34.79 22.93,54.76 57.72,53.51 34.79,-1.25 54.6,-22.78 53.51,-57.56 -1.09,-35.1 -23.4,-51.94 -62.24,-54.91zm-3463.34 -301.7c-21.21,1.09 -34.16,11.7 -34.94,33.54 -0.78,21.37 9.98,35.1 31.83,36.35 24.18,1.41 38.07,-11.08 37.75,-35.72 -0.16,-21.84 -12.95,-32.92 -34.63,-34.17zm4108.08 1595.09c-14.82,-1.09 -24.96,6.08 -26.2,21.06 -1.41,17.16 6.71,27.93 25.11,27.61 14.98,-0.31 22.78,-8.89 23.87,-24.02 -0.47,-14.66 -7.96,-23.56 -22.78,-24.65zm-323.39 -3209.53c-38.37,-1.25 -75.5,32.44 -78.47,71.44 -3.12,40.25 33.07,80.03 74.1,81.28 38.38,1.25 75.5,-32.45 78.47,-71.45 2.96,-40.4 -33.07,-80.03 -74.1,-81.28zm-2.49 643.19c-40.25,0.15 -70.51,30.42 -68.48,70.82 2.03,41.5 24.96,64.74 66.46,67.24 40.41,2.34 70.98,-27.61 71.6,-67.7 0.31,-40.56 -29.17,-70.51 -69.57,-70.36zm-0.94 -1269.83c-41.96,0.63 -77.54,37.44 -76.91,79.25 0.63,41.96 37.44,77.53 79.25,76.91 41.96,-0.63 77.54,-37.44 76.91,-79.25 -0.63,-41.96 -37.28,-77.52 -79.25,-76.91zm-0.78 941.46c-39.47,1.25 -75.5,38.37 -71.45,77.22 4.52,42.27 29.95,67.39 72.7,70.04 39.31,2.49 75.03,-34.63 74.57,-74.1 -0.31,-39.31 -36.51,-74.25 -75.82,-73.16zm1.56 -628.52c-41.81,0.15 -78.16,37.59 -77.22,79.25 0.94,39.47 35.57,74.41 75.03,75.82 41.5,1.4 79.4,-34.79 79.87,-76.44 0.78,-41.65 -36.04,-78.78 -77.69,-78.62zm320.89 2551.83c-30.73,1.87 -46.49,21.53 -44.3,51.79 2.03,27.93 19.81,43.52 47.74,43.06 30.89,-0.46 46.02,-19.03 47.89,-50.07 -3.9,-29.17 -20.59,-46.8 -51.33,-44.78zm1.4 317.15c-25.11,0.62 -41.18,17.63 -41.03,43.06 0.15,25.58 17,39.15 41.81,43.36 25.12,-2.8 42.59,-16.07 43.68,-41.33 0.94,-28.08 -16.37,-45.71 -44.46,-45.09zm-0.15 332.59c-19.35,0.94 -31.04,11.86 -31.83,31.36 -1.09,22 10.45,35.41 32.6,36.04 22.31,0.63 33.54,-12.17 35.26,-36.5 -2.65,-18.88 -13.42,-31.98 -36.04,-30.89zm-324.48 -651.14c-30.26,1.72 -47.73,21.37 -46.18,51.64 1.56,30.42 21.53,45.55 50.7,46.8 31.35,-4.37 48.83,-22.15 47.11,-52.42 -1.56,-30.27 -21.37,-47.74 -51.63,-46.02zm4.52 968.6c-16.85,-1.25 -28.7,9.83 -30.11,25.58 -1.71,19.04 10.14,31.67 29.49,31.52 16.38,-0.15 25.74,-11.7 28.39,-30.11 -2.97,-13.89 -11.23,-25.9 -27.77,-26.99zm-0.63 -652.39c-23.56,2.5 -41.96,14.2 -44.61,39.78 -2.96,28.39 12.8,46.65 41.03,49.14 25.89,2.18 43.06,-13.26 46.02,-38.37 3.43,-28.86 -13.73,-44.46 -42.44,-50.54zm-0.94 -1594.31c-40.87,-0.15 -65.99,24.96 -66.3,65.83 -0.47,41.34 25.89,62.25 68.48,68.17 36.35,-6.4 63.8,-26.06 63.65,-67.7 -0.15,-40.87 -24.96,-65.98 -65.83,-66.3zm4.68 1926.9c-23.71,-2.18 -39.78,8.89 -41.03,34.01 -1.09,24.34 12.17,38.38 36.81,38.38 21.69,0 33.69,-12.32 36.04,-36.35 -0.46,-19.19 -9.98,-34.01 -31.82,-36.04zm-6.24 -1612.72c-38.38,3.12 -58.65,26.67 -63.8,64.43 5.15,37.59 25.58,63.02 63.8,63.8 38.22,0.78 61.46,-23.4 65.68,-61.15 3.74,-34.16 -31.36,-69.88 -65.68,-67.07zm0.94 644.12c-33.7,5.15 -55.54,23.09 -54.6,58.04 0.94,31.83 20.9,52.1 52.73,53.04 34.63,1.09 56.31,-19.5 57.1,-53.98 0.93,-34.94 -21.53,-52.73 -55.23,-57.1zm-2.81 -325.41c-35.1,1.72 -54.6,22 -54.91,57.1 -0.15,37.91 20.43,59.13 58.5,58.96 38.22,-0.15 56.63,-22.46 58.5,-62.4 -4.37,-34.47 -23.87,-55.54 -62.09,-53.67zm2845.9 -2740.91c21.37,0.15 35.41,-9.52 37.29,-31.35 1.87,-20.9 -7.64,-36.04 -29.64,-38.38 -23.56,-2.49 -39,8.43 -39.94,33.54 -0.78,21.53 10.76,33.7 32.29,36.19zm-307.63 321.05c25.58,-0.94 41.5,-17.47 41.65,-43.06 0,-28.7 -18.09,-42.74 -45.71,-45.39 -25.27,4.52 -42.12,18.26 -41.81,44.15 0,28.39 17.47,45.24 45.87,44.3zm-326.35 230.88c-30.42,0.46 -48.67,19.19 -48.36,49.45 0.31,30.42 19.19,48.67 49.61,48.36 30.42,-0.31 46.49,-19.19 48.98,-49.3 -3.28,-30.42 -19.81,-48.98 -50.24,-48.51zm328.07 2233.91c-17.01,-1.72 -28.09,6.08 -28.24,24.34 -0.15,14.98 8.26,23.4 23.24,24.34 14.98,0.78 23.56,-7.02 25.74,-21.84 0.31,-14.67 -5.62,-25.28 -20.75,-26.84zm-328.07 -1921.44c-30.42,0.47 -48.67,19.19 -48.36,49.61 0.31,30.42 19.19,48.67 49.61,48.36 30.42,-0.31 46.49,-19.34 48.98,-49.3 -3.28,-30.73 -19.81,-49.14 -50.24,-48.67zm324.79 961.11c-21.69,-0.63 -35.41,11.08 -36.81,32.76 -1.56,24.18 10.76,37.91 38.38,40.24 18.09,-1.71 32.6,-11.23 33.85,-33.38 1.56,-24.18 -10.44,-39 -35.41,-39.62zm0.63 630.08c-18.87,-1.09 -31.36,11.23 -32.3,29.64 -1.09,19.03 11.7,29.17 29.95,33.23 18.41,-2.03 31.2,-11.85 32.13,-30.42 0.94,-19.03 -11.22,-31.51 -29.79,-32.45zm-324.48 -1277.48c-30.73,0.15 -48.36,17.94 -47.89,48.52 0.46,30.89 19.66,45.7 49.45,47.11 30.89,-4.06 47.27,-21.53 45.39,-51.95 -1.56,-27.61 -19.03,-43.84 -46.95,-43.68zm320.73 961.89c-22,3.12 -32.92,16.22 -31.04,37.91 1.72,19.19 13.89,30.11 33.23,29.8 22.15,-0.15 34.48,-12.64 34.01,-34.79 -0.78,-22.31 -14.35,-32.45 -36.19,-32.92zm1.25 -643.5c-25.74,1.4 -39,18.72 -41.33,43.84 5.93,24.96 20.59,42.27 46.49,39.15 24.65,-2.96 40.87,-20.44 37.29,-46.64 -3.13,-22.46 -19.2,-37.59 -42.44,-36.35zm-319.8 1280.6c-19.5,0.46 -32.45,10.3 -34.79,28.39 -2.81,21.21 8.89,35.26 30.26,37.13 19.03,1.72 31.67,-9.67 34.16,-27.77 2.96,-21.52 -9.52,-33.54 -29.64,-37.74zm1.25 316.83c-16.54,-2.65 -29.02,7.64 -31.83,23.56 -3.43,19.5 8.27,31.98 26.99,33.54 16.69,1.4 26.2,-10.3 30.26,-26.52 -0.47,-16.54 -9.82,-28.08 -25.43,-30.57zm-1262.66 -2247.64c-41.33,0.31 -65.36,22.62 -68.79,63.65 -3.28,39 28.55,71.91 67.7,70.36 41.81,-1.72 62.4,-26.21 66.46,-59.28 0.16,-44.31 -28.39,-75.04 -65.37,-74.73zm1260.94 646.46c-30.89,-0.94 -48.2,16.54 -47.42,47.42 0.78,28.24 18.41,42.12 46.02,44.15 27.77,-2.81 44.46,-17.16 44.78,-45.55 0.31,-28.08 -15.3,-45.24 -43.37,-46.02zm2.65 957.68c-23.71,-2.18 -39.78,9.05 -40.87,34.01 -1.09,24.49 12.32,38.22 36.81,38.22 21.69,-0.15 33.7,-12.48 36.04,-36.66 -0.63,-18.72 -10.14,-33.54 -31.98,-35.57zm-1.41 -632.42c-28.39,-1.72 -46.18,14.82 -47.11,43.21 -0.94,25.89 15.13,42.43 40.41,44.3 28.7,2.03 43.68,-15.44 48.04,-42.59 -2.49,-26.21 -15.91,-43.37 -41.34,-44.93zm-3.43 314.5c-23.4,-0.15 -39.16,15.29 -41.34,37.59 -2.49,25.9 13.72,43.53 38.84,45.39 25.9,2.03 40.25,-15.13 45.56,-42.43 -4.68,-22.15 -16.85,-40.4 -43.06,-40.55zm946.76 -1826.6c16.85,1.4 28.7,-9.83 30.11,-25.58 1.72,-19.04 -10.14,-31.67 -29.33,-31.52 -16.38,0.15 -25.74,11.7 -28.24,28.24 2.03,16.54 11.23,27.62 27.46,28.86zm-307.63 -63.49c-21.21,-1.41 -35.72,8.74 -37.75,30.42 -2.03,23.71 9.36,38.69 34.32,39.15 21.69,0.31 33.39,-11.54 35.72,-36.19 -1.09,-17.78 -10.14,-31.98 -32.29,-33.38zm309.04 386.87c16.69,0.78 25.89,-10.77 29.48,-27.3 -0.94,-16.38 -10.3,-27.77 -26.21,-29.8 -16.69,-2.18 -29.01,8.58 -31.2,24.34 -2.65,19.19 8.89,31.83 27.93,32.76zm-1260.32 229.94c-31.83,-0.63 -52.73,19.81 -54.29,51.17 -1.87,34.79 20.28,52.88 56,58.81 28.24,-5.46 51.02,-20.9 52.11,-52.88 1.41,-34.63 -19.34,-56.47 -53.82,-57.1zm948.79 19.19c-24.8,0 -36.81,14.51 -35.26,38.38 1.4,21.84 15.6,31.52 39.15,31.52 18.87,-2.65 31.04,-14.2 30.42,-36.04 -0.62,-21.52 -12.63,-33.69 -34.31,-33.85zm1.72 -312.46c-21.37,-1.09 -35.41,9.52 -36.97,31.2 -1.72,23.87 10.45,38.38 35.26,38.38 21.69,0 33.07,-12.32 34.63,-34.32 -0.78,-20.91 -11.08,-34.01 -32.92,-35.26zm313.09 635.39c-14.51,-1.25 -25.43,4.99 -27.14,20.12 -1.88,16.85 5.62,28.24 24.02,28.7 14.98,0.31 23.24,-7.95 25.12,-25.43 -0.63,-12 -6.71,-21.99 -22,-23.39zm-27.14 -292.34c-1.88,16.85 5.62,28.24 24.02,28.7 14.98,0.31 23.24,-7.95 24.81,-22.78 0.31,-14.98 -6.55,-24.49 -21.69,-25.9 -14.35,-1.56 -25.43,4.84 -27.14,19.97zm23.4 606.52c-12.32,0.31 -20.43,7.02 -21.69,19.5 -1.4,14.66 5.31,24.65 20.75,25.74 15.13,1.09 23.24,-7.02 24.65,-22.62 -0.93,-14.66 -8.42,-23.09 -23.71,-22.62zm-313.56 -9.83c-18.57,0.78 -30.42,12.94 -30.58,31.67 -0.15,21.69 13.26,32.3 34.01,34.01 18.72,-3.28 30.89,-13.57 30.89,-32.44 0.15,-21.53 -12.95,-34.16 -34.32,-33.23zm-305.92 -948.47c-28.24,-2.65 -46.49,13.41 -48.36,41.81 -1.72,25.9 14.04,42.9 39.16,45.39 28.55,2.96 44.15,-14.35 49.3,-41.03 -1.56,-26.36 -14.67,-43.83 -40.09,-46.17zm-3161.17 276.12c-46.33,-0.47 -80.5,32.76 -80.96,78.93 -0.46,46.33 32.76,80.5 78.94,80.96 46.33,0.47 80.5,-32.76 80.96,-78.94 0.46,-46.33 -32.76,-80.5 -78.94,-80.96zm3472.86 358.8c-21.69,-2.18 -34.79,9.05 -37.91,31.04 0.46,21.84 10.61,35.26 32.92,36.19 19.34,0.78 32.13,-9.36 34.47,-28.55 2.81,-21.37 -7.33,-36.34 -29.48,-38.69zm-312.31 -9.2c-25.59,-2.65 -43.37,12.8 -46.33,37.44 -3.43,28.24 13.41,46.33 41.19,47.89 25.58,1.4 39.62,-15.6 44.93,-40.09 -1.56,-25.43 -14.82,-42.59 -39.78,-45.24zm311.06 966.73c-14.51,-1.09 -25.27,5.31 -26.83,20.43 -1.72,17.01 6.09,28.09 24.34,28.24 15.13,0.15 22.93,-8.43 24.8,-26.36 -0.78,-11.08 -7.18,-21.06 -22.31,-22.31zm-319.02 -1193.86c28.08,2.49 46.02,-14.51 46.8,-42.59 0.63,-25.58 -16.54,-39.31 -41.33,-43.68 -25.12,2.5 -42.28,15.76 -44.15,41.03 -2.04,25.58 14.03,43.05 38.68,45.24zm315.11 874.84c-18.41,1.09 -30.57,13.41 -29.64,32.29 0.94,18.57 13.72,28.55 32.29,30.42 18.26,-4.06 30.89,-14.2 29.8,-33.23 -1.25,-18.25 -13.57,-30.42 -32.45,-29.48zm-946.13 -1284.81c-34.63,0 -56.01,20.75 -55.85,55.38 0.15,34.95 22.78,52.26 56.94,55.7 33.38,-6.09 54.91,-24.49 52.88,-59.44 -1.72,-31.51 -21.99,-51.48 -53.97,-51.64zm-638.98 933.34c-37.91,1.09 -58.04,23.56 -56.94,60.84 1.09,37.91 23.4,57.88 60.84,57.1 38.06,-0.94 56.16,-23.87 57.72,-60.68 -3.59,-37.75 -24.02,-58.35 -61.62,-57.26zm-0.15 -316.05c-35.72,1.09 -59.59,24.81 -60.37,60.53 -0.78,38.53 23.56,63.96 61.93,64.43 38.69,0.46 59.44,-25.12 64.58,-63.96 -6.4,-36.81 -27.15,-62.09 -66.15,-61zm-0.16 641.47c-35.26,0.94 -54.76,21.52 -54.91,56.78 0,38.53 22.15,56.63 59.59,58.34 34.79,-3.74 55.07,-22 54.76,-57.56 -0.16,-38.37 -21.52,-58.65 -59.44,-57.56zm322.77 1596.66c-19.35,1.4 -30.26,13.26 -30.58,32.61 -0.31,22.15 11.86,34.79 34.01,34.63 22.31,-0.15 32.92,-13.57 33.69,-35.41 -2.65,-21.85 -15.13,-33.39 -37.13,-31.83zm4.68 321.67c-14.98,-0.94 -24.65,6.4 -25.74,21.53 -1.25,17.31 7.18,27.93 25.43,27.3 14.98,-0.46 22.78,-9.2 23.4,-24.34 -0.63,-14.82 -7.95,-23.56 -23.09,-24.49zm-324.94 -2873.51c-38.22,0 -61.15,24.34 -64.43,62.4 -2.96,34.32 32.92,69.42 66.93,65.83 38.07,-4.06 58.19,-27.77 62.56,-65.36 -5.94,-37.75 -26.84,-62.87 -65.06,-62.87zm-2.03 1584.02c-31.35,0.78 -51.64,22 -51.33,53.67 0.31,31.83 21.53,48.83 54.29,54.29 28.7,-5 51.48,-20.75 52.26,-52.57 0.62,-34.33 -20.91,-56.32 -55.23,-55.39zm14.81 -1896.95c-38.37,1.25 -61.62,23.56 -66.14,61.31 -4.06,34.01 31.04,70.04 65.37,67.39 38.38,-2.81 58.81,-26.36 63.8,-60.99 0.16,-35.57 -30.42,-68.8 -63.02,-67.7zm-12.01 1582.61c-32.13,-0.94 -53.04,18.57 -55.85,49.92 -3.12,34.63 16.85,57.25 51.01,59.91 34.94,2.81 53.51,-19.03 59.9,-52.26 -2.96,-34.16 -20.12,-56.46 -55.07,-57.56zm-313.41 -1908.49c-41.18,0.31 -64.58,24.18 -66.93,65.36 -2.18,39.16 30.58,71.13 69.73,68.33 41.5,-2.97 61.62,-28.08 65.21,-68.8 -5.46,-39.78 -26.21,-65.21 -68.02,-64.9zm312.78 3837.74c-12.48,-0.31 -21.06,6.24 -22.78,18.26 -2.03,14.2 3.74,25.27 19.35,26.98 14.66,1.56 24.02,-5.46 26.36,-24.18 -1.56,-10.77 -7.17,-20.75 -22.93,-21.06zm-316.05 -3380.5c39,3.28 71.91,-28.55 70.2,-67.86 -1.71,-41.65 -26.2,-62.4 -59.28,-66.3 -44.15,-0.31 -75.04,28.24 -74.57,65.36 0.3,41.18 22.61,65.2 63.65,68.8zm314.02 2094.76c-27.93,0.63 -44.78,17.16 -45.87,45.08 -1.09,30.42 15.76,49.3 46.49,49.92 30.73,0.63 46.64,-17.47 49.14,-47.74 -2.81,-30.42 -19.04,-48.04 -49.76,-47.27zm-0.15 316.21c-25.58,0.62 -41.65,17.16 -41.96,42.74 -0.31,28.7 17.63,42.9 45.24,45.71 25.43,-4.21 42.27,-17.94 42.27,-43.84 0.15,-28.39 -17,-45.39 -45.55,-44.61zm635.69 -1799.92c34.32,0.94 56.01,-20.75 55.38,-55.07 -0.63,-31.67 -22.46,-48.36 -55.54,-52.88 -28.7,5.77 -50.7,21.84 -51.01,53.98 -0.31,31.66 19.81,53.04 51.17,53.97zm-631.8 2436.09c-21.53,-0.78 -34.48,11.7 -34.48,33.23 0,18.72 11.86,30.89 30.42,31.83 21.69,0.94 32.6,-12.17 35.26,-32.76 -2.65,-19.04 -12.48,-31.67 -31.2,-32.3zm-1.41 -316.21c-21.69,-0.63 -35.26,11.08 -36.81,32.76 -1.56,24.18 10.76,37.91 38.37,40.24 18.09,-1.72 32.61,-11.23 33.85,-33.38 1.56,-24.17 -10.45,-39 -35.41,-39.62zm637.88 -956.9c-26.36,1.72 -43.83,14.82 -46.18,40.09 -2.65,28.24 13.41,46.49 41.81,48.36 25.9,1.72 42.9,-14.04 45.39,-39.16 2.97,-28.55 -14.19,-44.15 -41.02,-49.3zm-1.4 646.93c-19.35,-0.78 -32.13,9.36 -34.48,28.55 -2.65,21.53 7.33,36.5 29.49,38.69 21.69,2.18 34.79,-9.05 37.91,-31.04 -0.47,-21.69 -10.45,-35.26 -32.92,-36.2zm-0.15 -319.48c-23.09,2.19 -39,14.82 -40.72,37.29 -2.03,25.43 13.73,42.28 39,43.52 23.09,1.09 38.84,-14.2 40.72,-36.35 2.02,-25.59 -14.04,-40.09 -39,-44.46zm2.18 637.1c-16.85,-2.03 -29.02,8.43 -31.35,24.18 -2.81,19.19 8.89,31.98 27.92,32.92 16.69,0.94 25.9,-10.76 30.11,-29.48 -2.65,-13.26 -10.3,-25.74 -26.67,-27.61zm-4.21 -1920.51c-29.49,0.15 -49.61,20.12 -51.02,49.14 -1.71,32.29 18.57,53.82 50.39,55.22 32.29,1.41 49.76,-20.28 55.07,-51.79 -4.84,-31.51 -22,-52.72 -54.44,-52.57zm-312.31 -943.17c-35.1,0.31 -55.69,19.66 -57.1,54.76 -1.4,37.44 17.94,60.22 56.16,61.31 37.91,1.09 57.72,-19.97 60.68,-57.56 -2.49,-37.29 -21.53,-58.81 -59.74,-58.5zm312.47 1269.21c-28.39,2.96 -47.74,18.57 -48.05,49.14 -0.31,30.42 17.94,49.14 48.36,49.61 30.42,0.31 49.14,-17.94 49.61,-48.36 0.31,-30.42 -18.09,-47.11 -49.92,-50.39zm0 315.74c-24.49,2.49 -43.06,14.82 -44.62,43.37 -1.56,27.92 13.11,46.33 41.03,48.36 30.42,2.34 49.14,-13.73 49.92,-44.93 0.62,-28.39 -16.07,-43.05 -46.33,-46.8zm-309.35 -645.06c-34.78,-1.09 -56.31,18.72 -57.56,53.51 -1.25,34.79 18.57,56.16 53.51,57.72 35.1,1.56 53.51,-19.5 58.81,-53.04 -2.8,-34.79 -19.66,-57.09 -54.76,-58.19zm-5.15 639.29c-29.02,1.56 -48.98,21.52 -49.14,51.01 -0.15,32.13 20.44,53.19 52.42,53.19 32.29,0 49.14,-22 53.35,-54.44 -6.87,-29.95 -24.19,-51.48 -56.63,-49.76zm-0.78 317.15c-27.77,1.72 -43.99,19.19 -43.83,46.96 0.15,30.73 17.78,48.36 48.52,47.89 30.89,-0.46 45.71,-19.66 47.27,-49.45 -4.06,-30.74 -21.54,-47.28 -51.95,-45.4zm3.59 327.28c-25.74,-0.31 -42.28,15.76 -43.52,41.19 -1.56,28.7 16.22,43.52 43.36,47.27 25.74,-3.12 42.9,-16.54 43.99,-42.12 1.26,-28.39 -15.44,-45.87 -43.83,-46.33zm5.46 -1483.08c29.48,-4.83 51.48,-21.37 51.32,-57.25 -0.15,-35.26 -19.5,-56 -54.91,-56.63 -38.22,-0.62 -58.96,20.9 -58.04,58.81 0.94,35.56 22.78,52.56 61.62,55.06zm-0.31 -427.13c-37.44,-2.34 -60.84,16.38 -62.08,54.91 -1.09,37.91 19.34,59.28 57.72,59.44 35.57,0.15 53.82,-20.28 57.25,-54.13 -1.09,-35.57 -17.32,-58.04 -52.89,-60.22zm-3.74 951.44c-34.47,-0.15 -55.85,21.06 -55.38,55.54 0.47,31.67 21.06,52.1 52.73,52.57 34.79,0.63 52.42,-21.84 56.63,-55.07 -4.99,-31.35 -21.99,-52.88 -53.97,-53.04zm1.41 1274.98c-25.58,-1.25 -41.96,14.66 -42.59,40.09 -0.46,22.93 14.98,38.53 37.44,39.78 25.58,1.4 39.62,-14.98 43.37,-40.56 -3.28,-22.15 -15.6,-38.22 -38.22,-39.31zm-1899.14 -342.57c-37.59,-0.15 -59.13,20.9 -59.28,58.65 -0.15,37.59 20.9,58.97 58.65,59.28 37.76,0.31 57.25,-21.37 60.06,-58.65 -2.5,-37.13 -21.53,-59.13 -59.43,-59.28zm-2208.8 971.25c-24.65,-0.15 -37.75,13.72 -36.98,38.22 0.63,21.84 13.73,34.01 35.41,34.16 24.8,0.15 36.66,-14.04 37.29,-37.29 -2.03,-22.77 -14.04,-35.09 -35.72,-35.09zm0.47 327.91c-18.41,2.03 -31.2,11.7 -32.29,30.42 -1.09,18.87 11.23,31.35 29.64,32.44 18.87,1.09 31.35,-11.23 32.44,-29.64 1.09,-19.04 -11.7,-29.17 -29.8,-33.22zm-4.84 -649.43c-21.06,5.15 -39.78,16.69 -40.25,43.06 -0.62,28.39 15.91,45.86 44.46,45.86 25.74,0.15 42.12,-16.06 43.21,-41.5 1.09,-28.7 -16.69,-43.37 -47.43,-47.43zm-310.28 -2865.4c-38.22,0.62 -62.71,24.8 -63.8,62.87 -1.25,40.87 23.4,66.93 64.11,68.02 41.19,1.09 62.56,-25.43 68.17,-65.37 -5.78,-40.25 -27.15,-66.3 -68.48,-65.52zm317.61 1905.84c-37.75,-1.71 -60.06,18.41 -60.22,56.63 -0.15,35.26 19.97,55.38 55.38,56.16 35.41,0.78 53.98,-19.35 58.5,-55.54 -2.19,-32.6 -17.94,-55.69 -53.67,-57.25zm-2.96 -314.96c-37.59,-0.46 -59.28,20.44 -59.75,58.19 -0.46,37.75 20.75,57.41 60.53,60.68 34.32,-2.8 57.25,-20.75 57.41,-58.96 0.16,-37.75 -20.43,-59.44 -58.19,-59.91zm3.28 630.56c-31.83,-2.81 -53.82,17 -56.94,47.89 -3.43,34.47 17.63,56.94 51.64,58.5 31.83,1.56 49.3,-19.97 55.69,-50.7 -2.66,-31.52 -19.19,-53.05 -50.39,-55.69zm-5.62 327.91c-30.42,0.94 -48.36,20.13 -47.27,50.55 0.94,30.42 20.28,48.2 50.55,47.27 30.42,-0.94 46.02,-20.28 48.05,-49.76 -3.9,-31.05 -21.06,-49.15 -51.33,-48.06zm-309.19 -2225.02c-40.87,-0.47 -66.61,24.96 -66.3,65.83 0.31,38.07 25.12,62.87 63.02,63.65 41.18,0.78 62.4,-25.89 67.85,-65.21 -5.93,-38.22 -26.36,-63.96 -64.58,-64.27zm-2.65 1582.45c-31.51,5.31 -52.88,22.31 -53.04,54.13 -0.15,34.47 21.21,55.85 55.54,55.22 31.67,-0.46 52.1,-21.06 52.57,-52.73 0.47,-34.78 -21.83,-52.26 -55.06,-56.63zm3.28 316.99c-32.13,-1.09 -52.88,19.03 -53.19,51.17 -0.31,29.48 19.19,49.3 48.52,50.39 32.45,1.25 49.93,-19.5 54.29,-50.55 -3.75,-29.94 -20.29,-50.07 -49.61,-51zm-6.08 647.09c-22.31,1.87 -34.95,17.94 -36.98,40.87 4.52,25.12 19.03,41.03 44.61,38.84 22.15,-2.03 37.44,-17.94 36.19,-41.03 -1.4,-25.27 -18.4,-40.87 -43.83,-38.68zm1.56 -1591.51c-35.1,1.25 -55.07,21.06 -55.69,56.16 -0.63,37.75 19.5,59.44 57.56,59.9 38.22,0.31 57.1,-21.53 59.44,-61.15 -4.06,-34.79 -22.93,-56.31 -61.31,-54.91zm1.09 314.02c-35.26,0.78 -55.38,20.9 -55.22,56.16 0.15,38.38 22.46,58.34 60.22,56.63 35.57,-1.71 51.95,-24.18 53.35,-59.59 -4.22,-33.85 -22.94,-53.97 -58.35,-53.19zm3.12 -641c-38.69,-0.78 -63.8,23.56 -63.34,62.09 0.47,38.53 26.21,62.4 64.74,60.68 35.72,-1.72 55.22,-26.21 58.97,-61.78 -4.52,-36.19 -24.49,-60.21 -60.37,-60.99zm1.4 -315.27c-34.01,-4.21 -70.2,30.73 -67.7,65.05 2.81,38.37 26.21,58.96 63.8,64.43 37.59,-4.68 63.18,-25.12 64.43,-63.18 1.26,-38.37 -22.93,-61.61 -60.52,-66.3zm-5.61 1916.45c-27.92,1.56 -43.68,18.87 -42.27,46.8 1.4,27.93 18.87,43.68 46.8,42.28 28.23,-1.4 41.65,-19.34 43.06,-47.27 -4.38,-26.67 -19.35,-43.37 -47.59,-41.81zm627.27 311.69c-31.2,0.31 -47.42,18.87 -45.55,49.3 1.72,28.08 20.12,41.33 48.52,42.12 26.98,-3.9 43.06,-19.04 42.27,-47.27 -0.78,-28.08 -17.16,-44.46 -45.24,-44.15zm-1.4 -647.24c-33.85,4.68 -55.22,22.62 -54.29,57.87 0.94,34.95 21.84,55.07 56.63,54.44 34.79,-0.63 54.91,-21.84 54.44,-56.63 -0.46,-35.42 -22.61,-52.57 -56.78,-55.69zm1.09 328.06c-31.98,0.15 -52.57,21.37 -52.1,53.67 0.47,29.48 20.44,49.3 49.61,50.7 32.44,1.41 50.07,-19.5 56.01,-51.17 -4.38,-31.35 -21.23,-53.35 -53.52,-53.2zm1.87 635.39c-25.74,-0.63 -42.9,15.6 -43.21,41.18 -0.31,25.74 17.16,39.47 42.12,42.9 25.27,-4.83 42.12,-19.03 40.87,-44.93 -1.09,-22.78 -16.85,-38.53 -39.78,-39.15zm2.5 -1596.34c-35.26,-0.94 -67.39,29.17 -68.96,61.93 -1.71,34.32 31.83,70.04 66.14,67.24 38.07,-3.28 62.4,-26.21 62.56,-64.28 0,-38.53 -25.11,-59.28 -59.74,-64.9zm-2.33 -313.87c-40.87,-0.94 -66.61,23.4 -68.02,64.11 -1.25,40.87 23.4,66.46 64.11,68.02 41.34,1.56 62.87,-24.34 69.89,-66.3 -5.15,-37.13 -24.49,-64.89 -65.98,-65.83zm-0.79 2242.33c-19.19,1.41 -31.98,11.23 -33.54,29.64 -1.88,21.37 10.29,34.78 31.67,35.87 19.03,0.94 31.35,-10.76 33.07,-29.01 2.19,-21.53 -10.76,-33.22 -31.2,-36.5zm3.43 -2567.28c-39.31,-3.59 -71.45,26.36 -72.39,65.68 -0.94,39.62 29.17,70.82 68.64,69.42 41.65,-1.56 62.4,-25.74 67.55,-65.05 -2.65,-41.19 -22.46,-66.3 -63.8,-70.05zm-248.66 -1191.05c1.25,-40.56 -28.55,-71.76 -68.8,-70.51 -41.81,1.41 -65.21,24.18 -67.7,65.83 -2.34,40.41 28.24,70.98 68.64,70.67 38.06,-0.16 66.77,-28.08 67.86,-65.99zm-70.05 878.12c-39.78,5.31 -65.21,26.2 -65.05,67.85 0.15,41.19 24.03,64.74 65.21,67.08 39.15,2.18 71.13,-30.42 68.48,-69.57 -2.81,-41.5 -27.77,-61.62 -68.64,-65.36zm5.46 -312.15c-39.47,-2.03 -71.14,27.3 -71.6,66.76 -0.63,39.62 29.95,70.51 69.42,68.64 41.5,-2.03 62.08,-26.36 65.99,-59.13 0.78,-44.93 -26.68,-74.41 -63.81,-76.28zm0.46 627.27c-40.87,-2.49 -67.39,21.84 -69.57,62.4 -2.18,41.19 24.02,63.18 63.96,69.73 40.09,-4.68 66.45,-25.43 66.93,-66.77 0.31,-38.22 -23.56,-63.18 -61.31,-65.36zm-1.09 -1575.44c-39.47,-2.81 -70.67,27.77 -70.98,67.24 -0.15,39.62 30.57,70.2 70.2,68.02 41.5,-2.34 61.93,-26.98 66.14,-67.08 -3.74,-40.56 -23.86,-65.37 -65.36,-68.17zm308.1 4463.45c-12.32,0.46 -20.28,7.17 -21.37,19.66 -1.25,14.82 5.62,24.49 21.06,25.43 15.13,0.94 23.24,-7.33 24.34,-22.62 -0.94,-14.83 -8.74,-23.09 -24.03,-22.47zm-308.1 -3839.3c-40.41,-2.65 -72.22,27.61 -71.29,67.86 0.94,41.81 23.4,65.52 65.05,68.48 40.41,2.81 71.29,-27.46 71.6,-75.35 -2.81,-33.38 -23.24,-58.19 -65.37,-60.99zm-2.81 1276.22c-38.22,-0.15 -61.15,24.18 -64.74,62.09 -3.12,34.16 32.6,69.57 66.61,66.14 38.22,-3.9 58.34,-27.61 62.87,-65.21 -5.62,-37.59 -26.37,-62.86 -64.74,-63.02zm312 629.78c-34.16,2.65 -57.56,19.35 -58.03,58.19 -0.47,34.94 17.94,56.47 53.19,58.81 37.13,2.34 61,-16.07 63.02,-54.29 1.87,-37.75 -18.25,-58.5 -58.19,-62.71zm-1257.98 659.87c-21.21,-0.15 -35.41,9.36 -37.44,31.04 -2.03,20.9 7.49,36.04 29.33,38.53 23.56,2.65 39.16,-8.26 40.09,-33.23 0.93,-21.37 -10.61,-33.69 -31.98,-36.34zm-314.81 -2862.28c-29.64,-0.78 -49.92,18.72 -52.42,47.74 -2.81,32.44 17.47,54.29 48.83,56.63 32.29,2.34 50.23,-19.04 56.63,-50.7 -3.9,-31.35 -20.74,-52.88 -53.04,-53.66zm312.31 2216.91c-28.08,-0.15 -44.61,16.22 -44.93,44.3 -0.31,28.24 16.85,42.59 44.46,45.7 27.46,-2.81 44.77,-16.85 44.77,-45.24 -0,-28.07 -16.22,-44.61 -44.31,-44.77zm-1.72 961.89c-18.41,1.09 -30.73,13.41 -29.64,32.45 1.09,18.41 13.57,30.57 32.29,29.64 18.57,-0.94 28.55,-13.72 30.42,-32.13 -3.74,-18.25 -13.88,-31.04 -33.07,-29.95zm1.25 -646.61c-23.4,-0.15 -39.16,15.29 -41.34,37.59 -2.5,25.89 13.72,43.52 38.84,45.39 25.9,2.03 40.25,-15.13 45.56,-42.43 -4.53,-22.15 -16.7,-40.24 -43.06,-40.55zm-1.56 -1165.94c34.32,0.78 56,-21.06 55.07,-55.38 -0.94,-31.52 -22.78,-48.36 -53.98,-52.26 -31.04,5.15 -52.26,22.31 -52.57,54.13 -0.31,31.51 19.97,52.73 51.48,53.51zm1.72 218.24c-31.98,0.15 -52.57,21.37 -52.11,53.67 0.47,29.49 20.44,49.3 49.61,50.7 32.44,1.4 50.07,-19.66 56.01,-51.33 -4.37,-31.35 -21.37,-53.19 -53.51,-53.04zm0.47 316.99c-27.77,-0.46 -45.7,15.13 -47.73,43.06 -2.34,30.26 13.57,50.07 44.15,51.95 30.42,1.88 47.58,-15.13 51.32,-46.02 -1.72,-29.96 -16.85,-48.52 -47.74,-48.99zm-307.94 -1588.85c-32.61,-3.12 -54.29,17 -57.1,48.36 -2.81,32.29 18.72,50.39 50.23,56.94 31.36,-3.59 52.88,-20.28 53.98,-52.57 1.24,-29.48 -18.1,-49.92 -47.11,-52.73zm-7.49 1592.59c-25.43,1.25 -41.5,17.78 -41.19,43.52 0.31,28.7 18.41,42.75 46.18,44.93 25.12,-4.83 41.81,-18.57 41.34,-44.61 -0.47,-28.24 -17.94,-45.08 -46.33,-43.84zm-2.34 316.52c-22.31,2.81 -37.13,18.87 -34.94,41.81 2.18,24.96 19.03,40.41 44.78,37.44 22.46,-2.65 34.32,-18.87 35.87,-41.65 -5.46,-24.8 -19.81,-40.72 -45.7,-37.6zm320.42 -1276.07c-34.63,-1.71 -56.63,18.72 -58.04,53.2 -1.4,34.94 20.75,53.04 54.6,58.03 33.85,-4.52 55.69,-22.31 55.38,-57.25 -0.31,-32.14 -20.27,-52.42 -51.94,-53.98zm-313.09 645.37c-27.93,-1.25 -46.02,13.72 -47.73,41.81 -1.88,30.58 14.51,48.98 45.7,49.14 28.39,0.15 42.9,-16.69 45.87,-44.46 -1.88,-27.61 -15.6,-45.07 -43.84,-46.48zm948.47 1897.58c-22,-1.09 -35.41,10.29 -36.04,32.6 -0.78,22.31 12.01,33.54 33.85,35.26 22.15,-1.87 34.16,-13.57 33.54,-35.72 -0.78,-19.5 -12.01,-31.21 -31.35,-32.14zm-951.91 -2223.15c-27.92,0.31 -45.08,16.54 -46.49,44.46 -1.41,30.42 14.98,49.45 45.7,50.55 30.58,1.09 46.96,-16.69 49.92,-47.11 -2.49,-30.43 -18.25,-48.21 -49.14,-47.9zm4.21 -315.74c-32.13,-1.56 -53.2,18.25 -53.98,50.39 -0.78,29.64 18.57,49.61 47.74,51.17 32.29,1.72 50.23,-18.72 55.07,-50.23 -3.43,-29.63 -19.65,-49.92 -48.82,-51.32zm47.42 -256.78c2.81,-32.44 -16.69,-53.67 -48.52,-55.69 -29.48,-1.87 -50.07,16.85 -52.73,46.02 -2.96,32.61 17.16,50.7 48.83,56.78 29.18,-2.49 49.93,-17.78 52.42,-47.11zm583.12 249.6c-35.1,1.25 -55.07,21.06 -55.69,56.16 -0.63,37.75 19.5,59.44 57.56,59.9 38.22,0.31 56.94,-21.52 59.44,-60.99 -3.9,-34.95 -22.93,-56.47 -61.31,-55.07zm1.25 312.47c-34.94,3.12 -55.85,20.9 -56.16,56.47 -0.31,38.06 20.44,59.12 58.5,58.65 35.26,-0.47 55.22,-20.44 55.85,-55.7 0.62,-38.37 -20.9,-57.24 -58.19,-59.43zm1.4 -625.87c-37.59,-0.15 -58.96,20.9 -59.28,58.65 -0.31,37.75 21.37,57.25 58.66,60.06 37.28,-2.34 59.12,-21.37 59.28,-59.28 0.01,-37.74 -20.9,-59.12 -58.65,-59.43zm-322.91 3.43c-34.79,-0.46 -56.01,19.66 -56.63,54.44 -0.63,34.79 19.5,55.85 54.44,56.63 35.26,0.94 53.19,-20.44 57.87,-54.29 -3.28,-34.16 -20.44,-56.31 -55.69,-56.78zm637.88 3188.94c-14.51,-1.41 -25.43,4.99 -27.15,20.12 -1.87,16.85 5.62,28.24 24.03,28.7 15.13,0.31 23.24,-7.95 24.8,-22.78 0.31,-15.13 -6.56,-24.65 -21.69,-26.05zm-328.23 -1925.66c-31.35,0.62 -51.64,21.84 -51.64,53.5 0.15,31.83 21.22,48.98 52.42,54.13 31.2,-3.9 53.19,-20.59 54.13,-52.11 1.1,-34.32 -20.59,-56.16 -54.91,-55.53zm17.17 -1592.6c-38.69,-2.34 -64.11,21.21 -65.68,59.75 -1.56,36.04 21.53,60.53 57.1,62.87 38.84,2.5 60.68,-21.52 66.76,-60.06 -3.28,-35.58 -22.46,-60.38 -58.19,-62.56zm308.56 -185.8c41.18,0 61.93,-26.99 66.61,-67.08 -6.87,-39.78 -28.7,-65.52 -70.05,-63.65 -37.91,1.72 -62.24,26.21 -62.24,64.43 -0.31,40.87 24.8,66.46 65.68,66.3zm-325.26 1464.05c-31.98,0.78 -52.26,20.59 -53.67,52.26 -1.4,34.63 19.03,56.63 53.51,57.72 34.94,1.09 52.88,-21.06 58.19,-58.04 -6.4,-29.48 -22.46,-52.88 -58.03,-51.95zm-1.4 631.02c-30.27,1.72 -47.74,21.37 -46.18,51.64 1.56,30.42 21.53,45.56 50.7,46.96 31.35,-4.37 48.83,-22.15 47.11,-52.42 -1.72,-30.42 -21.53,-47.89 -51.63,-46.18zm-309.66 -2215.96c-34.79,0.15 -55.54,20.75 -55.54,55.54 0,34.78 20.59,55.38 55.54,55.53 35.26,0.15 52.73,-21.52 56.78,-55.53 -4.06,-34.01 -21.69,-55.7 -56.78,-55.54zm-2.34 423.54c34.79,1.4 56.16,-18.41 57.88,-53.35 1.56,-35.1 -19.35,-53.51 -52.88,-58.96 -34.63,2.49 -56.94,19.34 -58.19,54.44 -1.41,34.95 18.41,56.47 53.19,57.88zm318.39 3073.66c-16.54,-2.65 -29.02,7.64 -31.83,23.56 -3.43,19.5 8.27,31.98 26.98,33.54 16.69,1.4 26.21,-10.3 30.27,-26.52 -0.46,-16.7 -9.67,-28.08 -25.43,-30.57zm-4.06 -965.32c-27.46,3.12 -44.62,17.47 -44.3,45.7 0.31,28.08 16.85,44.46 44.93,44.3 28.08,-0.15 44.3,-16.85 44.3,-44.78 0,-28.39 -17.47,-42.43 -44.93,-45.23zm0.31 646.3c-21.21,1.09 -34.16,11.7 -34.94,33.54 -0.78,21.37 9.98,35.1 31.83,36.35 24.18,1.4 38.06,-11.08 37.75,-35.72 -0.15,-21.84 -12.79,-32.92 -34.63,-34.17zm-2.18 -318.86c-22.93,1.09 -38.69,16.69 -39.47,39.62 -0.78,25.9 15.44,42.9 41.03,43.37 25.89,0.46 39.47,-17 43.37,-43.68 -5.62,-22.93 -18.57,-40.56 -44.93,-39.31zm1276.7 -973.75c-40.24,3.9 -66.76,24.49 -68.02,65.68 -1.09,38.38 22.46,63.49 60.06,66.45 41.03,3.12 67.7,-20.9 70.67,-61.31 2.96,-41.18 -22.93,-63.49 -62.71,-70.82zm937.25 1923.78c-25.43,-1.25 -41.96,14.67 -42.43,40.09 -0.47,22.93 14.98,38.53 37.44,39.78 25.58,1.4 39.62,-14.98 43.37,-39.62 -2.96,-23.41 -15.75,-39.16 -38.37,-40.25zm-313.56 -3521.22c-46.33,-0.63 -80.65,32.44 -81.28,78.47 -0.63,46.33 32.44,80.65 78.47,81.28 46.33,0.78 80.65,-32.44 81.28,-78.47 0.78,-46.33 -32.29,-80.65 -78.47,-81.28zm309.35 3192.22c-28.24,0.46 -42.28,18.09 -44.46,45.87 2.49,27.61 16.69,44.61 45.08,45.08 28.08,0.46 45.39,-14.98 46.33,-43.06 1.26,-31.04 -16.06,-48.51 -46.95,-47.89zm-310.13 -3504.68c-46.33,-0.31 -80.19,33.23 -80.5,79.4 -0.15,46.33 33.23,80.19 79.4,80.5 46.33,0.31 80.19,-33.23 80.5,-79.4 0.16,-46.33 -33.22,-80.19 -79.4,-80.5zm307.47 4152.7c-16.54,4.83 -30.73,15.29 -28.08,37.13 2.34,18.09 14.51,29.95 33.54,28.55 21.37,-1.4 33.38,-15.13 31.2,-36.35 -1.87,-18.09 -14.66,-28.07 -36.66,-29.33zm5.46 -1612.41c-38.69,-0.15 -63.5,24.49 -62.4,63.02 1.09,38.37 26.83,62.08 65.68,59.59 35.87,-2.34 54.76,-26.99 58.03,-62.09 -5.15,-36.66 -25.43,-60.53 -61.31,-60.53zm-2.18 329.31c-34.94,1.09 -55.22,21.84 -54.44,56.63 0.63,34.94 21.69,55.07 56.63,54.6 35.26,-0.47 52.42,-22.46 56.01,-60.37 -5.93,-29.32 -22.46,-51.94 -58.19,-50.85zm-2.81 315.9c-28.86,2.18 -48.67,22.31 -48.2,51.95 0.46,32.13 21.37,53.04 53.35,52.26 32.13,-0.78 48.83,-22.93 52.11,-54.29 -6.87,-31.51 -24.81,-52.41 -57.25,-49.92zm-303.89 -642.72c-36.97,-2.49 -60.99,16.23 -63.65,54.29 -2.5,37.13 16.69,59.13 54.29,64.27 36.66,-0.31 60.99,-16.85 63.49,-54.91 2.49,-37.13 -16.07,-61.16 -54.14,-63.65zm-4.52 -318.24c-40.72,0.62 -66.14,26.52 -64.74,67.24 1.25,37.75 26.36,62.4 64.59,62.09 41.19,-0.31 61.93,-27.15 66.3,-66.61 -6.87,-37.91 -27.78,-63.33 -66.15,-62.71zm2.96 -315.28c-39.47,-2.8 -70.67,27.77 -70.98,67.24 -0.15,39.62 30.58,70.2 70.2,68.02 41.5,-2.34 61.93,-26.98 66.14,-67.08 -3.58,-40.56 -23.86,-65.37 -65.35,-68.18zm313.25 314.65c-41.18,-2.96 -63.49,23.09 -71.29,65.21 5.15,36.98 24.65,64.59 66.14,65.68 38.38,0.94 63.49,-22.46 66.45,-60.22 3.27,-41.19 -20.91,-67.86 -61.31,-70.67zm-316.06 -1273.73c-41.96,-0.15 -78.31,35.72 -78.47,77.69 -0.15,41.96 35.72,78.31 77.69,78.47 41.96,0.15 78.31,-35.72 78.47,-77.69 0.31,-41.97 -35.56,-78.16 -77.69,-78.47zm-942.08 9.05c-47.42,0.31 -77.53,30.73 -75.5,71.13 2.18,41.5 25.27,64.59 66.61,66.93 40.56,2.18 71.76,-27.61 70.98,-68.02 -0.62,-44.78 -25.89,-66.77 -62.09,-70.04zm945.51 634.6c-43.52,-0.63 -70.04,21.37 -74.1,65.36 -4.06,42.59 26.98,76.13 69.42,75.5 43.99,-0.63 67.55,-24.8 71.6,-63.65 1.26,-44.93 -26.83,-76.6 -66.92,-77.22zm-1.24 -329.47c-40.72,-1.56 -78.93,35.72 -78.78,76.76 0.15,38.84 34.94,74.57 73.94,75.97 40.72,1.56 78.94,-35.72 78.78,-76.75 -0.31,-38.69 -35.1,-74.57 -73.94,-75.97zm300.61 644.13c-33.07,3.9 -57.41,24.96 -58.81,67.24 -1.41,40.41 29.48,71.29 69.89,69.27 41.65,-2.03 64.74,-25.43 66.45,-67.08 1.56,-40.57 -29.33,-70.52 -77.53,-69.43zm337.9 315.43c-41.03,-2.96 -67.7,21.21 -70.36,61.62 -2.65,41.19 23.4,63.33 65.52,70.82 36.97,-5.46 64.43,-24.96 65.36,-66.45 0.78,-38.22 -22.78,-63.33 -60.53,-65.99zm-2.96 316.37c-36.04,-1.72 -60.69,20.9 -63.19,56.63 -2.81,38.84 21.22,60.68 59.59,67.24 35.57,-3.12 60.37,-22 62.87,-57.87 2.65,-38.84 -20.9,-64.12 -59.28,-65.99zm-3.28 328.22c-33.85,4.68 -55.22,22.62 -54.29,57.87 0.94,34.95 21.84,55.07 56.63,54.44 34.94,-0.63 54.91,-21.84 54.44,-56.63 -0.46,-35.41 -22.46,-52.41 -56.78,-55.69zm-632.42 1.09c-34.79,-1.09 -56.31,18.57 -57.72,53.35 -1.41,34.79 18.41,56.16 53.35,57.87 35.1,1.56 53.51,-19.35 59.44,-55.85 -4.21,-30.73 -19.65,-54.28 -55.07,-55.38zm636.17 -1605.23c-38.38,-1.4 -75.66,32.13 -78.63,71.14 -3.12,40.24 32.76,80.02 73.79,81.59 38.38,1.41 75.66,-32.29 78.62,-71.13 3.12,-40.41 -32.76,-80.03 -73.79,-81.59zm-2.34 2240.31c-31.2,0.31 -47.42,18.87 -45.55,49.3 1.72,28.08 20.12,41.5 48.52,42.12 26.98,-3.9 43.06,-19.03 42.27,-47.27 -0.62,-28.08 -17,-44.46 -45.24,-44.15zm5 -1596.03c-40.25,-3.74 -72.23,25.89 -73.48,65.83 -1.25,40.56 28.39,71.6 68.8,70.51 42.12,-1.09 63.49,-25.27 68.64,-64.9 -2.34,-41.96 -22,-67.54 -63.96,-71.44zm-5 -317.78c-42.74,2.18 -68.48,26.99 -73.48,69.27 -4.68,38.69 31.04,76.28 70.51,78 39.16,1.72 75.82,-32.92 76.76,-72.39 0.94,-39.31 -34.48,-76.75 -73.79,-74.88zm0.16 1593.38c-31.35,4.83 -52.73,22 -52.42,54.44 0.31,29.64 20.12,49.61 49.14,51.17 32.29,1.72 53.82,-18.57 55.22,-50.39 1.25,-32.45 -20.44,-49.93 -51.94,-55.22zm-322.61 -1920.04c-44.77,1.56 -71.76,27.46 -77.69,71.29 -5.46,39.78 31.67,79.87 72.54,82.21 40.09,2.34 79.4,-33.7 80.96,-74.41 1.56,-40.41 -35.1,-80.5 -75.82,-79.09zm1.25 326.66c-39,-3.59 -75.66,32.92 -76.28,72.39 -0.63,39.47 34.79,75.04 74.26,74.88 39.47,-0.15 76.13,-36.35 73.16,-75.5 -3.59,-42.59 -28.7,-67.86 -71.13,-71.76zm317.61 2242.81c-22.31,1.72 -37.59,17.63 -36.5,40.56 1.09,25.43 17.94,41.03 43.37,39.15 22.31,-1.71 35.1,-17.63 37.29,-40.72 -4.06,-24.8 -18.57,-40.87 -44.15,-39zm-319.33 -2883.81c-42.59,-0.46 -78,33.85 -79.25,76.28 -1.25,44.78 35.57,81.74 80.34,80.65 42.43,-1.09 76.76,-36.5 76.44,-78.94 -0.16,-42.74 -34.94,-77.53 -77.53,-78zm327.91 3203.91c-21.22,-3.12 -35.26,8.58 -37.59,29.8 -2.03,18.87 9.2,31.83 27.46,34.63 21.37,3.28 33.54,-9.2 38.07,-29.02 -0.32,-19.66 -9.68,-32.76 -27.93,-35.42zm-318.24 -3843.51c-46.18,0.31 -80.34,33.85 -81.28,80.03 -1.09,48.52 34.32,84.39 82.83,84.08 48.36,-0.46 83.15,-36.97 81.28,-85.49 -1.87,-46.02 -36.5,-78.93 -82.83,-78.62zm1.25 325.73c-46.33,-0.31 -80.19,33.23 -80.5,79.4 -0.31,46.33 33.23,80.19 79.4,80.34 46.33,0.31 80.19,-33.23 80.5,-79.4 0.31,-46.18 -33.23,-80.03 -79.4,-80.34zm-322.46 0.46c-43.99,-0.78 -78.16,30.26 -80.96,73.63 -2.96,46.18 29.33,82.99 74.88,85.17 46.18,2.34 82.21,-30.57 83.93,-76.28 1.4,-46.17 -31.83,-81.58 -77.85,-82.52zm635.55 313.4c-42.59,-0.62 -78.31,33.39 -79.56,75.82 -1.4,44.78 35.26,81.9 80.03,80.96 42.43,-0.78 76.91,-36.04 76.76,-78.62 -0.16,-42.44 -34.79,-77.54 -77.22,-78.16zm-1259.7 646.62c-39.62,-1.25 -71.14,28.55 -69.89,68.17 1.09,41.65 25.27,62.56 64.27,68.17 41.34,-2.5 66.61,-22 70.82,-63.33 3.91,-39.31 -26.05,-71.76 -65.21,-73zm-1.87 946.91c-32.13,1.87 -55.38,17 -57.56,52.88 -2.34,37.44 16.07,61 54.6,62.4 37.91,1.4 59.44,-19.03 59.75,-57.41 0.15,-35.41 -19.97,-53.81 -56.79,-57.87zm-3.43 -1272.95c-43.37,4.99 -68.02,28.86 -66.46,73.01 1.72,44.3 28.24,68.02 72.07,66.61 44.3,-1.56 68.02,-28.08 66.61,-72.07 -1.26,-44.62 -28.56,-65.52 -72.23,-67.55zm3.74 957.37c-38.69,0 -63.5,24.65 -62.09,63.34 1.4,38.37 27.15,61.93 65.99,59.28 35.88,-2.49 54.6,-27.3 57.87,-62.24 -5.46,-36.66 -25.74,-60.37 -61.78,-60.37zm310.28 1927.22c-18.41,1.09 -30.58,13.57 -29.64,32.44 0.94,18.57 13.72,28.55 34.63,30.73 14.67,-5.31 28.86,-13.89 27.46,-33.54 -1.41,-18.56 -13.58,-30.72 -32.45,-29.63zm-311.37 -3839.77c-40.87,0.15 -79.41,38.22 -76.28,78.78 3.59,44.46 29.95,70.82 74.25,74.88 40.41,3.59 78.78,-34.63 79.4,-75.5 0.63,-40.71 -36.66,-78.31 -77.37,-78.15zm2.34 324.32c-40.72,-1.25 -78.94,36.19 -78.47,77.06 0.46,38.84 35.41,74.41 74.25,75.66 40.72,1.25 78.78,-36.19 78.47,-77.06 -0.31,-38.83 -35.41,-74.41 -74.26,-75.66zm-0.63 313.87c-39,-0.94 -75.5,34.32 -76.44,73.48 -0.94,39 34.16,75.51 73.48,76.28 39,0.94 75.5,-34.16 76.28,-73.48 1.09,-38.84 -34.01,-75.35 -73.32,-76.28zm-320.26 -634.45c-38.69,-4.83 -76.6,30.42 -78.63,69.89 -2.03,39.16 32.44,76.13 71.91,77.22 39.31,1.25 77.06,-33.85 75.35,-73.31 -1.87,-42.59 -26.52,-68.49 -68.63,-73.79zm313.87 3838.99c-15.91,2.81 -26.05,15.29 -23.55,31.83 2.49,15.76 14.04,24.96 30.42,25.43 16.22,-4.06 27.92,-13.57 26.52,-30.26 -1.41,-18.72 -14.04,-30.42 -33.39,-26.99zm-319.02 -3513.26c-43.37,3.59 -69.42,26.06 -69.89,70.2 -0.46,43.84 24.03,68.8 68.02,71.45 42.59,2.5 74.88,-29.8 72.85,-72.39 -2.35,-44.15 -27.62,-66.14 -70.98,-69.26zm322.6 2862.59c-25.43,0.31 -38.84,17.78 -42.28,42.74 3.59,24.96 16.85,41.96 42.43,42.75 25.58,0.78 42.75,-15.13 43.99,-40.09 1.4,-28.08 -16.07,-45.71 -44.15,-45.4zm2.03 -318.7c-30.42,-0.31 -49.14,17.94 -49.61,48.36 -0.46,30.42 18.09,46.96 48.52,50.24 30.11,-2.5 48.98,-18.57 49.3,-48.98 0.47,-30.43 -17.94,-49.15 -48.2,-49.61zm2.19 650.2c-24.18,-1.25 -38.07,11.39 -37.59,36.04 0.31,21.84 13.26,32.6 34.79,33.85 21.37,-1.09 34.16,-11.85 34.79,-33.69 0.78,-21.53 -10.3,-34.94 -31.98,-36.19zm-1.72 -968.91c-31.67,3.28 -53.35,19.97 -55.22,51.48 -2.18,34.47 18.72,56.94 52.88,57.72 34.48,0.78 55.7,-21.06 55.22,-55.54 -0.31,-31.98 -21.84,-48.83 -52.88,-53.67zm310.44 317c-32.13,0.46 -51.95,22.15 -50.07,54.29 1.72,29.17 22,45.24 51.17,48.2 29.8,-4.06 49.76,-20.44 50.39,-49.92 0.94,-32.14 -19.35,-53.2 -51.48,-52.57zm0.15 -2873.04c-42.59,0.46 -77.37,35.26 -77.69,77.84 -0.31,44.78 37.29,80.96 82.06,78.94 42.28,-1.87 75.97,-38.06 74.88,-80.65 -1.24,-42.27 -36.81,-76.43 -79.25,-76.13zm-0.62 952.07c-39.16,0.78 -74.41,37.29 -73.48,76.28 0.94,39.15 37.29,74.41 76.28,73.48 39.15,-0.78 74.41,-37.29 73.48,-76.28 -0.94,-39.31 -37.44,-74.41 -76.28,-73.48zm2.49 -1264.38c-42.59,-0.62 -78.31,33.39 -79.56,75.82 -1.41,42.43 32.13,78.94 74.41,80.96 44.61,2.18 82.52,-34.01 82.37,-78.62 -0.16,-42.59 -34.63,-77.54 -77.22,-78.16zm-0.94 3835.4c-22.46,1.56 -35.72,12.64 -36.5,34.48 -0.78,24.49 12.17,38.37 36.81,38.37 21.69,0 34.78,-12.32 35.57,-34.16 0.93,-24.49 -12.33,-37.13 -35.89,-38.69zm4.21 -3199.08c-41.65,-2.34 -80.03,31.98 -82.52,73.79 -2.34,41.65 31.98,80.02 73.79,82.52 41.65,2.34 80.02,-31.98 82.52,-73.79 2.34,-41.65 -32.13,-80.18 -73.79,-82.52zm300.93 2866.49c-20.75,6.24 -39.62,18.87 -37.59,47.89 1.87,27.93 19.03,43.68 46.95,42.28 27.93,-1.4 43.68,-18.87 42.28,-46.8 -1.41,-28.23 -19.35,-41.65 -51.64,-43.37zm7.96 328.54c-23.09,2.18 -39.16,14.82 -40.87,37.29 -1.87,25.43 13.73,42.28 39,43.52 23.09,1.09 38.84,-14.2 40.72,-36.5 2.18,-25.59 -13.89,-40.1 -38.85,-44.31zm0.46 322.14c-18.87,-1.09 -31.35,11.23 -32.44,29.64 -1.09,19.04 11.54,29.17 29.8,33.23 18.41,-1.88 31.2,-11.86 32.3,-30.42 1.09,-18.88 -11.24,-31.36 -29.65,-32.45zm-315.43 -3203.29c-44.46,3.59 -70.83,29.95 -74.88,74.25 -3.59,40.41 34.63,78.78 75.5,79.4 40.72,0.63 78.31,-36.66 78,-77.37 -0.16,-40.87 -38.22,-79.56 -78.62,-76.28zm-0.16 1918.48c-31.83,0.62 -51.95,20.75 -53.19,52.57 -1.41,34.95 20.28,53.2 53.98,58.65 33.85,-4.21 56.31,-21.69 55.85,-56.63 -0.31,-34.63 -21.85,-55.22 -56.63,-54.59zm315.12 315.12c-29.64,-0.94 -49.93,18.41 -52.73,47.27 -3.12,32.61 17,54.29 48.36,57.1 32.29,2.81 50.39,-18.72 56.94,-50.23 -3.58,-31.36 -20.28,-53.04 -52.57,-54.13zm-315.59 320.11c-27.93,1.56 -43.68,18.87 -42.28,46.8 1.41,27.93 18.87,43.68 46.8,42.28 28.24,-1.4 41.65,-19.34 43.06,-47.27 -4.37,-26.83 -19.35,-43.37 -47.59,-41.81zm1.56 -1595.71c-41.19,2.03 -64.43,25.11 -66.3,66.3 -1.72,39.16 31.35,70.82 70.51,67.55 41.5,-3.43 61.47,-28.55 63.96,-62.56 -1.24,-43.37 -31.19,-73 -68.17,-71.29zm3.13 633.2c-37.44,1.56 -59.75,19.5 -60.53,57.87 -0.63,34.94 17.78,56.63 53.04,58.81 37.13,2.34 61,-15.91 63.02,-54.29 2.03,-37.75 -17.94,-58.65 -55.54,-62.4zm-1.41 -948.01c-44.15,-0.47 -69.73,24.18 -70.36,68.33 -0.46,44.15 24.18,69.57 68.33,70.36 44.46,0.78 67.24,-24.8 71.29,-68.33 -2.96,-43.52 -24.65,-69.89 -69.26,-70.35zm0.47 629.15c-37.59,3.9 -63.33,24.03 -65.37,61.93 -2.03,38.38 21.69,61.93 59.28,67.39 34.01,4.99 70.67,-29.02 68.96,-63.8 -1.88,-38.38 -25.12,-59.28 -62.87,-65.52z"/>
  <g id="_1633705485728">
   <path class="fil1" d="M0.2 38.6l0 2333.22 130.02 130.02c107.62,107.28 281.42,107.28 389.04,0 53.81,-53.81 80.55,-124 80.55,-194.35 0,-70.35 -26.74,-140.71 -80.55,-194.35l-308.99 -308.83c-107.28,-107.62 -107.28,-281.42 0,-389.04 53.48,-53.48 124,-80.55 194.35,-80.55 70.35,0 140.87,27.07 194.35,80.55l564 564c107.29,107.28 281.42,107.28 388.87,0 53.48,-53.48 80.55,-124 80.55,-194.35 0,-70.35 -27.07,-140.87 -80.55,-194.35l-1551.65 -1551.98z"/>
   <path class="fil2" d="M776.94 14.2l795.46 795.46c107.28,107.28 281.58,107.28 388.87,0 53.81,-53.48 124,-80.55 194.35,-80.55 70.52,0 140.71,27.07 194.35,80.55l724.1 723.93c107.28,107.62 281.42,107.62 388.87,0 53.81,-53.81 80.55,-124 80.55,-194.35 0,-70.35 -26.74,-140.71 -80.55,-194.35l-503.18 -503.17c-107.28,-107.29 -107.28,-281.58 0,-388.87 53.81,-53.81 124,-80.88 194.35,-80.88 70.35,0 140.71,27.07 194.35,80.88l206.56 206.56c107.28,107.28 281.58,107.28 388.87,0 53.81,-53.81 80.55,-124.17 80.55,-194.69 0,-70.19 -26.74,-140.71 -80.55,-194.35l-55.83 -56.16 -3111.13 0z"/>
   <path class="fil3" d="M737.83 3107.29c105.95,105.95 277.74,105.95 383.69,0 105.95,-105.95 105.95,-277.74 0,-383.69 -105.95,-105.95 -277.74,-105.95 -383.69,0 -105.95,105.94 -105.95,277.74 0,383.69z"/>
   <path class="fil3" d="M4194.56 1062.33c105.95,105.95 277.74,105.95 383.69,0 105.95,-105.95 105.95,-277.74 0,-383.69 -105.95,-105.95 -277.74,-105.95 -383.69,0 -105.95,105.94 -105.95,277.74 0,383.69z"/>
   <g>
    <path class="fil3" d="M1987.17 1207.21l0 0c49.63,-49.63 130.02,-49.63 179.48,0l747.83 747.83c49.63,49.63 49.63,130.02 0,179.48l0 0c-49.63,49.63 -130.02,49.63 -179.48,0l-747.83 -747.82c-49.64,-49.47 -49.64,-129.85 0,-179.48z"/>
    <path class="fil2" d="M1933.35 1466.74c0,36.77 13.87,73.53 41.94,101.61l747.83 747.83c27.07,27.24 63.17,42.12 101.61,42.12 21.89,0 42.95,-4.85 62.17,-14.2 14.54,-6.85 27.74,-16.21 39.44,-27.91 54.98,-54.98 55.98,-143.55 3.18,-199.86 -1.17,-1.17 -2.17,-2.17 -3.18,-3.34l-747.83 -747.83c-55.98,-55.99 -147.06,-55.99 -203.2,0 -1.17,1.17 -2.17,2.17 -3.18,3.34 -10.36,11.03 -18.55,23.23 -24.73,36.26 -9.36,19.56 -14.04,40.61 -14.04,62zm39.61 -36.59c4.51,-13.04 11.7,-25.41 21.39,-36.26 1.5,-1.84 3.01,-3.51 4.68,-5.18 10.69,-10.69 23.23,-18.89 36.43,-24.23 13.2,-5.35 27.41,-8.02 41.61,-8.02 28.24,0 56.48,10.69 78.04,32.25l747.49 747.82c1.5,1.5 3,3.18 4.51,4.84 38.43,43.28 36.93,109.63 -4.51,151.07 -11.87,11.87 -26.07,20.72 -41.45,26.07 -11.53,4.17 -23.9,6.18 -36.59,6.18 -29.58,0 -57.15,-11.53 -78.04,-32.25l-747.83 -747.83c-30.58,-30.75 -39.28,-75.7 -25.73,-114.47z"/>
   </g>
  </g>
 </g>
</svg>
