<?xml version="1.0" encoding="UTF-8"?>
<!DOCTYPE svg PUBLIC "-//W3C//DTD SVG 1.1//EN" "http://www.w3.org/Graphics/SVG/1.1/DTD/svg11.dtd">
<!-- Creator: CorelDRAW 2021.5 -->
<svg xmlns="http://www.w3.org/2000/svg" xml:space="preserve" width="40in" height="35in" version="1.1" style="shape-rendering:geometricPrecision; text-rendering:geometricPrecision; image-rendering:optimizeQuality; fill-rule:evenodd; clip-rule:evenodd"
viewBox="0 0 40000 35000"
 xmlns:xlink="http://www.w3.org/1999/xlink"
 xmlns:xodm="http://www.corel.com/coreldraw/odm/2003">
 <defs>
  <style type="text/css">
   <![CDATA[
    .fil1 {fill:#14388C;fill-rule:nonzero;fill-opacity:0.474510}
    .fil2 {fill:#14388C;fill-rule:nonzero;fill-opacity:0.690196}
    .fil0 {fill:url(#id0);fill-rule:nonzero}
   ]]>
  </style>
  <linearGradient id="id0" gradientUnits="userSpaceOnUse" x1="9291.81" y1="-9360.15" x2="44836.82" y2="26184.92">
   <stop offset="0" style="stop-opacity:1; stop-color:#143885"/>
   <stop offset="0.180392" style="stop-opacity:1; stop-color:#13357F"/>
   <stop offset="0.439216" style="stop-opacity:1; stop-color:#0E2B6D"/>
   <stop offset="0.729412" style="stop-opacity:1; stop-color:#081C50"/>
   <stop offset="1" style="stop-opacity:1; stop-color:#000A2F"/>
  </linearGradient>
 </defs>
 <g id="Layer_x0020_1">
  <metadata id="CorelCorpID_0Corel-Layer"/>
  <g id="_1669242818672">
   <path class="fil0" d="M39978.18 31153.5c0,0 -2273.35,-17657.47 -16739.44,-19223.73 -14550.41,-1573.94 -21251.54,-4337.02 -23275.59,-11956.18l40015.03 0 0 31179.91z"/>
   <g>
    <path class="fil1" d="M28332.72 4067.68c0,319.67 -258.3,577.92 -577.92,577.92 -319.67,0 -577.92,-258.3 -577.92,-577.92 0,-319.62 258.3,-577.92 577.92,-577.92 319.62,0 577.92,259.56 577.92,577.92z"/>
    <path class="fil2" d="M29801.8 4120.11c0,-319.67 258.3,-577.92 577.92,-577.92 319.67,0 577.92,258.3 577.92,577.92 0,319.62 -258.3,577.92 -577.92,577.92 -319.62,0 -577.92,-258.3 -577.92,-577.92z"/>
    <path class="fil2" d="M32479.2 4120.11c0,-319.67 258.3,-577.92 577.92,-577.92 319.67,0 577.92,258.3 577.92,577.92 0,319.62 -258.3,577.92 -577.92,577.92 -319.67,0 -577.92,-258.3 -577.92,-577.92z"/>
    <path class="fil1" d="M28332.72 6640.21c0,319.67 -258.3,577.92 -577.92,577.92 -319.67,0 -577.92,-258.3 -577.92,-577.92 0,-319.67 258.3,-577.92 577.92,-577.92 319.62,0 577.92,258.25 577.92,577.92z"/>
    <path class="fil2" d="M29801.8 6692.65c0,-319.67 258.3,-577.92 577.92,-577.92 319.67,0 577.92,258.3 577.92,577.92 0,319.67 -258.3,577.92 -577.92,577.92 -319.62,0 -577.92,-258.3 -577.92,-577.92z"/>
    <path class="fil1" d="M33635.04 6692.65c0,-319.19 -258.73,-577.92 -577.92,-577.92 -319.19,0 -577.92,258.73 -577.92,577.92 0,319.19 258.73,577.92 577.92,577.92 319.19,0 577.92,-258.73 577.92,-577.92z"/>
    <path class="fil2" d="M28332.72 9317.61c0,319.67 -258.3,577.92 -577.92,577.92 -319.67,0 -577.92,-258.3 -577.92,-577.92 0,-319.67 258.3,-577.92 577.92,-577.92 319.62,0 577.92,258.25 577.92,577.92z"/>
    <path class="fil1" d="M29801.8 9370.04c0,-319.67 258.3,-577.92 577.92,-577.92 319.67,0 577.92,258.3 577.92,577.92 0,319.62 -258.3,577.92 -577.92,577.92 -319.62,0 -577.92,-259.56 -577.92,-577.92z"/>
    <path class="fil2" d="M32479.2 9370.04c0,-319.67 258.3,-577.92 577.92,-577.92 319.67,0 577.92,258.3 577.92,577.92 0,319.62 -258.3,577.92 -577.92,577.92 -319.67,0 -577.92,-259.56 -577.92,-577.92z"/>
    <path class="fil1" d="M35207.73 4120.11c0,-319.67 258.3,-577.92 577.92,-577.92 319.62,0 577.92,258.3 577.92,577.92 0,319.62 -258.3,577.92 -577.92,577.92 -319.62,0 -577.92,-258.3 -577.92,-577.92z"/>
    <path class="fil1" d="M35207.73 6692.65c0,-319.67 258.3,-577.92 577.92,-577.92 319.62,0 577.92,258.3 577.92,577.92 0,319.67 -258.3,577.92 -577.92,577.92 -319.62,0 -577.92,-258.3 -577.92,-577.92z"/>
    <path class="fil1" d="M35207.73 9370.04c0,-319.67 258.3,-577.92 577.92,-577.92 319.62,0 577.92,258.3 577.92,577.92 0,319.62 -258.3,577.92 -577.92,577.92 -319.62,0 -577.92,-259.56 -577.92,-577.92z"/>
   </g>
  </g>
 </g>
</svg>
