<?xml version="1.0" encoding="UTF-8"?>
<!DOCTYPE svg PUBLIC "-//W3C//DTD SVG 1.1//EN" "http://www.w3.org/Graphics/SVG/1.1/DTD/svg11.dtd">
<!-- Creator: CorelDRAW 2021.5 -->
<svg xmlns="http://www.w3.org/2000/svg" xml:space="preserve" width="40in" height="35in" version="1.1" style="shape-rendering:geometricPrecision; text-rendering:geometricPrecision; image-rendering:optimizeQuality; fill-rule:evenodd; clip-rule:evenodd"
viewBox="0 0 40000 35000"
 xmlns:xlink="http://www.w3.org/1999/xlink"
 xmlns:xodm="http://www.corel.com/coreldraw/odm/2003">
 <defs>
  <style type="text/css">
   <![CDATA[
    .fil0 {fill:#B2B2B2;fill-rule:nonzero;fill-opacity:0.670588}
   ]]>
  </style>
 </defs>
 <g id="Layer_x0020_1">
  <metadata id="CorelCorpID_0Corel-Layer"/>
  <path class="fil0" d="M13235.13 14468.27c14.45,-174.14 115,-268.13 289.81,-272.73 170.22,-4.59 294.41,125.54 291.13,295.73 -2.63,168.9 -132.76,291.13 -302.31,285.22 -167.56,-5.91 -292.43,-139.32 -278.64,-308.22zm301.67 -1059.37c165.62,-24.96 272.73,-113.69 269.45,-289.81 -3.28,-173.5 -104.5,-271.41 -278.64,-279.31 -164.95,-7.23 -298.36,132.09 -284.55,296.4 14.43,175.46 120.89,259.57 293.74,272.73zm-28.27 -2660.32c162.99,9.19 255.64,-92 280.63,-257.63 -16.42,-145.9 -96.59,-251.04 -247.09,-259.59 -162.99,-8.55 -269.45,90.69 -275.36,253.68 -5.26,151.81 92,254.35 241.83,263.54zm1370.9 5371.89c171.54,5.91 333.19,-155.76 327.94,-327.28 -5.27,-164.95 -157.72,-312.17 -321.36,-310.19 -164.31,1.96 -314.14,151.14 -316.1,315.45 -1.99,163.61 145.23,316.74 309.52,322.01zm-2672.79 -13518.41c77.54,0.65 111.05,-45.35 104.5,-116.99 -5.91,-63.09 -49.28,-92.67 -111.06,-88.05 -63.09,4.59 -93.99,42.72 -94.63,105.14 5.24,62.44 37.46,99.23 101.19,99.9zm1316.35 14815.04c182.69,-12.5 293.77,-105.81 298.36,-291.13 3.95,-184.01 -96.6,-291.81 -281.94,-304.94 -179.41,-13.14 -317.41,120.91 -310.85,300.32 6.58,185.35 111.75,280.63 294.44,295.76zm-1324.22 -13460.58c92.67,5.91 143.91,-44.04 155.76,-150.5 -9.86,-75.59 -50.6,-133.41 -146.55,-133.41 -82.14,0 -133.41,45.35 -139.99,126.18 -7.9,90.71 36.78,151.81 130.78,157.72zm1311.73 8122.22c173.5,9.19 266.17,-101.22 295.73,-277.32 -23.67,-147.22 -103.83,-260.91 -265.5,-267.49 -172.18,-7.23 -282.59,97.91 -287.18,269.45 -5.24,160.36 98.58,266.81 256.95,275.36zm11.85 -8109.06c90.04,-3.28 149.18,-47.32 155.09,-139.32 6.58,-101.22 -44.04,-164.31 -149.18,-167.59 -91.35,-2.63 -149.18,46 -155.09,138 -7.23,101.19 45.33,159.69 149.18,168.91zm5.24 1397.18c107.78,-15.78 180.08,-71.64 182.04,-180.73 2.63,-119.6 -68.36,-192.55 -187.96,-191.9 -107.77,0.65 -176.78,68.35 -180.72,176.13 -3.95,120.91 70.99,182.04 186.64,196.5zm-7.87 -2737.2c80.18,4.59 122.9,-48.63 139.99,-125.54 -7.9,-77.54 -49.95,-131.44 -128.15,-135.37 -79.51,-3.95 -132.09,47.32 -136.69,124.87 -4.62,78.86 47.29,131.44 124.84,136.04zm1364.98 14809.8c162.32,2.63 316.1,-141.95 325.96,-306.26 9.86,-170.86 -144.59,-334.5 -317.41,-337.13 -162.32,-2.63 -316.1,141.95 -325.96,306.26 -9.86,170.2 144.56,334.5 317.41,337.14zm-2690.55 -12086.41c109.09,9.19 182.69,-59.14 189.92,-164.95 7.23,-109.09 -65.05,-168.91 -171.54,-188.63 -105.14,15.13 -176.78,72.28 -178.09,181.4 -1.29,97.27 65.08,164.31 159.71,172.18zm1330.16 4011.5c161.68,-0.65 246.45,-94.63 238.55,-253.68 -7.23,-149.85 -101.86,-218.85 -251.04,-224.76 -142.6,17.73 -227.4,96.59 -224.09,245.78 3.28,148.53 88.08,233.31 236.59,232.66zm7.9 -2664.25c128.15,-3.95 203.08,-85.44 199.13,-212.94 -3.95,-128.14 -86.09,-193.87 -209.64,-202.41 -130.78,15.77 -207.01,88.05 -202.41,216.22 3.92,128.14 85.42,203.73 212.91,199.13zm-1.98 1343.95c132.76,-23 222.78,-93.99 223.45,-228.72 0.65,-145.23 -89.37,-234.63 -234.63,-232.64 -133.41,2.63 -219.5,89.37 -220.82,222.78 -2.61,147.22 92.03,220.84 232,238.57zm-8.55 8049.28c187.31,2.63 283.26,-104.5 300.33,-287.86 -12.5,-183.36 -104.5,-295.08 -292.45,-296.4 -185.99,-1.32 -293.76,101.86 -296.4,287.85 -1.94,185.99 101.89,293.77 288.52,296.4zm-2625.47 -6747.38c135.37,-1.31 206.36,-94.63 222.13,-226.08 -27.6,-133.41 -103.18,-221.46 -239.22,-212.94 -122.23,7.9 -205.69,92 -205.04,216.87 0,135.42 86.76,223.48 222.13,222.16zm0.67 1374.85c147.22,-1.96 219.5,-97.91 234.63,-254.99 -32.19,-121.59 -103.82,-218.85 -253.68,-207.68 -132.76,9.86 -216.87,94.63 -216.22,229.36 0.65,145.91 89.37,235.27 235.27,233.31zm1294 -4035.81c128.15,9.86 207.01,-57.82 210.31,-189.27 2.63,-118.95 -67.69,-181.39 -183.36,-195.85 -117.64,5.91 -192.55,62.44 -199.78,181.4 -7.23,117.63 54.55,195.18 172.83,203.72zm-1302.54 -11.15c108.44,5.91 166.92,-65.72 190.59,-176.78 -11.18,-97.27 -63.09,-172.85 -168.9,-183.36 -107.78,-11.18 -182.69,53.9 -195.18,157.72 -14.46,118.93 55.86,195.83 173.5,202.41zm-11.18 1336.72c127.5,7.9 209.64,-59.81 216.22,-189.27 5.91,-128.81 -67.04,-199.13 -196.5,-212.94 -126.82,8.54 -203.08,74.27 -203.72,204.4 -0.67,116.32 67.02,190.59 184,197.81zm23.65 8063.06c159.69,-3.28 263.54,-108.44 264.85,-268.78 1.32,-173.5 -111.72,-261.55 -277.99,-282.59 -160.36,26.95 -267.49,113.69 -267.49,275.36 0.67,172.18 109.11,279.29 280.63,276.01zm-10.5 -4026.6c162.32,0.65 239.22,-92.67 247.09,-250.4 -15.13,-146.55 -92,-232.64 -241.85,-232 -161,0.65 -247.09,90.04 -243.17,250.4 3.3,148.54 89.42,231.32 237.93,231.99zm1.31 1323.58c159.69,1.31 241.19,-90.04 253.68,-255.64 -12.49,-146.55 -89.37,-241.19 -250.4,-241.19 -158.37,0 -249.08,88.05 -249.73,247.09 -1.32,158.37 87.41,248.41 246.45,249.73zm-7.23 -8040.06c103.83,3.95 156.41,-53.23 162.32,-151.81 -6.58,-95.28 -53.9,-150.5 -145.9,-153.13 -103.18,-3.28 -161.67,51.91 -161,155.76 1.32,91.33 53.23,145.88 144.59,149.18zm1320.94 4027.24c147.22,3.28 221.46,-90.69 240.54,-233.31 -21.69,-141.96 -97.27,-233.96 -245.13,-230.01 -134.08,3.95 -219.5,88.05 -223.45,222.13 -3.95,146.55 82.81,237.9 228.04,241.18zm-6.56 1372.21c159.69,5.91 250.4,-80.18 251.71,-241.85 1.32,-149.85 -84.13,-227.4 -226.72,-242.5 -149.18,3.95 -244.49,71.64 -254.33,221.46 -11.2,157.75 66.99,257.65 229.34,262.89zm-3.3 -2700.39c136.04,7.9 227.4,-77.55 233.31,-211.63 5.91,-136.04 -84.77,-210.31 -225.41,-233.96 -121.59,24.32 -214.91,92 -213.59,230.01 0.65,124.89 83.46,209.02 205.69,215.57zm7.23 6733.57c174.14,5.26 264.18,-103.83 291.13,-270.77 -18.41,-169.55 -104.5,-281.94 -278,-285.87 -172.18,-3.95 -280.63,99.9 -284.55,271.41 -4.59,172.85 99.23,279.98 271.41,285.22zm-1315.04 -10817.35c80.18,4.6 122.9,-48.63 139.99,-125.53 -7.9,-77.55 -49.95,-131.45 -128.14,-136.04 -79.51,-4.59 -132.09,47.32 -136.69,124.86 -4.62,79.54 46.65,131.45 124.84,136.71zm1306.49 8118.28c162.99,7.9 255,-93.99 278,-255 -15.77,-151.81 -97.91,-254.99 -248.41,-262.22 -162.99,-7.9 -269.45,92.67 -273.4,254.99 -3.93,152.46 93.99,255 243.81,262.22zm11.85 1330.13c173.5,1.32 261.55,-111.72 282.59,-277.99 -26.95,-160.36 -113.69,-267.49 -275.36,-267.49 -171.54,0 -279.31,109.09 -276.04,280.63 2.63,160.38 108.45,264.21 268.81,264.85zm-1316.35 1353.83c162.99,2.63 250.4,-105.14 272.73,-268.78 -26.28,-155.09 -113.69,-262.22 -277.33,-257.63 -150.5,3.95 -251.71,104.5 -254.99,254.33 -4.62,162.32 97.91,270.09 259.59,272.08zm5314.69 -13462.54c63.09,1.31 97.91,-33.51 105.81,-107.13 -2.63,-49.95 -28.27,-92.67 -92.67,-97.91 -61.13,-5.27 -107.13,21.04 -114.36,84.77 -7.87,70.32 23.67,118.28 101.22,120.27zm-12.49 1354.45c92,7.23 145.23,-42.05 158.37,-147.22 -8.54,-76.23 -47.96,-135.37 -143.91,-136.69 -82.14,-1.32 -134.08,42.72 -142.6,123.55 -9.19,90.71 34.18,153.13 128.14,160.36zm1345.93 13493.44c182.69,-8.54 318.08,-153.13 314.81,-337.8 -2.63,-184.68 -141.95,-324 -325.96,-326.63 -193.22,-3.28 -341.08,143.91 -338.45,337.81 3.28,193.22 155.74,335.82 349.61,326.63zm-9.86 -1321.61c176.13,-3.95 327.28,-164.96 319.4,-339.77 -7.23,-166.27 -155.76,-310.85 -322.03,-313.49 -175.46,-2.63 -331.87,152.46 -331.22,327.94 1.31,175.49 158.39,329.26 333.85,325.31zm-1322.91 -10817.35c105.81,-18.41 176.78,-76.23 174.81,-185.99 -1.96,-97.27 -68.36,-163.63 -164.31,-168.23 -109.09,-5.91 -181.4,62.44 -185.99,169.55 -3.28,109.09 69.67,166.94 175.49,184.67zm5.91 2724.06c133.41,-1.31 204.4,-93.32 223.45,-224.09 -19.72,-131.44 -90.69,-220.81 -224.09,-224.76 -134.08,-3.28 -224.09,82.14 -229.36,213.59 -5.94,143.92 85.42,236.59 230,235.27zm-1.99 -1340.67c130.13,-1.96 192.55,-82.14 199.13,-213.59 -18.41,-122.9 -89.37,-194.54 -218.85,-186.64 -116.99,7.23 -185.32,80.83 -184.68,198.46 0.67,129.46 74.94,203.73 204.4,201.77zm11.18 2670.16c149.85,-6.58 219.5,-101.22 225.41,-249.73 -17.74,-143.27 -95.28,-228.04 -245.13,-225.41 -148.54,2.63 -233.96,87.41 -233.31,235.94 0.67,160.98 93.99,245.78 253.03,239.2zm1294.67 5389.62c164.31,3.95 318.08,-143.91 321.36,-309.54 3.95,-164.31 -143.91,-318.08 -309.54,-321.36 -164.31,-3.95 -318.08,143.91 -321.36,309.54 -3.95,163.64 144.59,317.41 309.54,321.36zm-7.23 -6710.57c136.04,-9.86 228.04,-78.22 240.54,-210.31 13.14,-145.9 -72.95,-239.87 -216.22,-250.4 -134.72,-9.86 -224.76,74.27 -237.9,205.69 -15.1,146.57 76.9,226.11 213.59,255.02zm17.09 -1340.02c130.78,-15.77 207,-88.05 202.41,-215.55 -3.95,-128.14 -85.44,-203.72 -212.94,-199.13 -128.15,3.95 -203.08,85.44 -199.13,212.94 3.97,128.14 85.44,193.2 209.67,201.74zm-3.95 6708.61c169.55,4.59 294.41,-125.54 291.13,-295.73 -2.63,-168.91 -132.76,-291.13 -302.31,-285.22 -167.59,5.91 -292.45,139.32 -278.64,308.22 14.46,174.14 115,268.78 289.81,272.73zm4.6 -8101.19c106.46,-0.65 174.81,-71.63 176.13,-178.09 1.31,-107.78 -69,-166.27 -172.85,-185.99 -106.46,9.19 -180.72,65.72 -186.64,170.87 -7.87,118.95 65.08,193.86 183.36,193.22zm-10622.17 24978.48c-79.51,-3.95 -132.09,47.32 -136.04,124.86 -4.59,79.51 47.32,132.09 124.87,136.04 80.18,4.59 122.9,-49.28 139.99,-126.18 -8.54,-76.87 -49.95,-130.78 -128.81,-134.72zm10625.47 -20921.65c148.54,-2.63 231.99,-88.06 233.31,-236.59 1.32,-162.32 -90.69,-239.87 -247.76,-248.41 -146.55,14.46 -233.31,90.04 -233.96,239.87 -0.67,161.03 88.06,247.77 248.41,245.13zm-2635.33 6744.74c166.27,-2.63 312.81,-156.41 306.91,-321.36 -5.91,-166.27 -163.64,-317.41 -327.28,-299.03 -178.09,20.37 -283.26,128.14 -293.09,308.22 -9.89,165.62 147.19,315.45 313.46,312.17zm2628.11 -5406.04c162.99,0 249.08,-109.09 268.13,-266.81 -26.95,-162.32 -118.31,-266.17 -281.28,-259.59 -149.85,5.91 -250.4,107.13 -251.04,258.27 -0.67,161.68 102.51,268.13 264.19,268.13zm-2634.69 -2676.07c135.37,-1.31 223.45,-88.72 221.46,-224.09 -1.96,-135.37 -95.28,-206.36 -227.4,-220.81 -133.41,28.27 -221.46,103.83 -211.63,240.54 8.57,122.2 92.7,205.66 217.56,204.37zm10.53 1330.81c147.86,-4.59 218.85,-98.58 230,-244.49 -21.68,-141.31 -99.23,-230 -247.76,-224.09 -146.55,5.91 -230.68,95.95 -225.41,242.5 5.91,147.22 96.6,230.68 243.17,226.08zm-13.81 1330.14c159.04,3.28 243.17,-85.44 256.96,-243.82 -8.55,-155.76 -86.09,-250.4 -245.78,-253 -157.72,-2.63 -251.04,84.13 -253.68,243.17 -3.28,157.7 82.81,250.37 242.5,253.65zm11.82 -4005.56c118.95,-1.96 178.76,-74.91 187.95,-191.9 -10.5,-116.99 -69.67,-188.63 -189.27,-191.23 -118.31,-2.63 -191.91,62.44 -196.5,180.72 -5.24,130.11 67.04,204.37 197.81,202.41zm11.18 -1386.67c93.99,-9.19 145.9,-77.54 153.78,-173.5 -21.04,-105.81 -81.5,-172.85 -189.92,-161.68 -93.99,9.86 -157.08,76.9 -150.5,174.15 7.87,105.81 78.86,171.54 186.64,161.03zm-19.05 6778.26c162.32,-8.54 249.73,-106.46 276.03,-265.5 -17.09,-158.37 -101.86,-266.82 -262.22,-274.72 -161.68,-8.54 -260.91,92.67 -283.26,251.04 -20.37,142.63 123.55,297.05 269.45,289.17zm4.59 2651.11c170.22,3.95 292.45,-128.14 287.19,-299.03 -4.59,-167.59 -137.36,-293.1 -306.26,-280.63 -174.15,13.14 -274.05,113.04 -273.4,287.86 0.67,185.99 105.84,287.85 292.48,291.8zm-3.95 -1324.25c164.95,5.91 297.72,-134.08 283.26,-298.36 -15.77,-174.15 -122.23,-258.28 -296.4,-270.1 -164.96,25.63 -271.41,115.67 -266.82,291.13 3.95,174.15 105.81,270.77 279.96,277.33zm1297.94 1333.44c180.08,-4.6 300.33,-87.41 313.49,-274.05 12.5,-182.04 -78.22,-297.72 -264.18,-320.72 -179.41,-21.69 -325.96,103.83 -327.94,281.94 -1.96,184.67 94.63,288.5 278.64,312.82zm8.55 -1328.18c170.22,10.51 299.03,-118.31 297.72,-320.72 -13.81,-139.99 -100.55,-243.81 -278,-253.68 -170.22,-9.19 -302.31,118.95 -297.05,289.17 5.91,175.46 101.87,274.72 277.33,285.22zm3.3 -1328.17c172.18,1.96 280.63,-102.54 281.94,-274.72 1.32,-174.14 -111.05,-261.55 -279.96,-282.59 -168.23,26.95 -277.32,118.31 -271.41,292.45 6.53,160.36 109.07,262.87 269.43,264.85zm-1323.58 -8129.45c90.69,9.19 139.99,-45.36 153.78,-131.45 -5.91,-80.82 -47.32,-134.72 -124.87,-141.31 -90.04,-7.9 -146.55,43.37 -151.14,133.41 -4.62,79.54 45.33,131.47 122.23,139.35zm1335.4 6749.34c162.32,-3.28 262.22,-111.72 253.68,-274.72 -7.9,-150.5 -111.72,-232 -260.91,-246.45 -153.13,20.37 -253.68,105.14 -256.31,256.31 -1.96,162.99 101.22,268.13 263.54,264.86zm-1320.95 -8105.78c61.13,-3.95 96.6,-35.5 94.64,-99.9 -1.32,-51.91 -29.58,-86.09 -82.14,-91.36 -61.78,-5.91 -103.83,22.35 -108.44,87.41 -3.3,63.76 30.87,98.58 95.95,103.85zm1307.14 14849.21c175.46,5.26 333.86,-147.22 335.17,-323.35 1.96,-175.46 -154.45,-331.22 -329.26,-329.26 -166.27,1.96 -315.45,145.23 -323.35,312.17 -9.19,173.52 141.31,335.17 317.44,340.44zm11.82 -1320.95c163.64,-1.96 313.49,-149.18 318.73,-312.81 5.27,-171.54 -152.46,-331.87 -324.64,-330.58 -163.63,1.96 -313.49,149.18 -318.73,312.82 -5.26,171.54 152.46,331.89 324.64,330.57zm-7983.53 1230.91c139.99,-26.28 230.68,-104.5 221.46,-251.72 -8.55,-132.76 -93.99,-216.87 -229.36,-216.22 -145.9,0.65 -235.27,89.37 -233.31,235.27 1.32,146.57 97.27,218.88 241.21,232.67zm-5306.16 4955.22c-80.18,-9.19 -134.08,40.09 -136.04,120.91 -1.31,69.67 47.32,108.45 125.54,123.55 57.18,-11.83 109.09,-44.69 115.67,-114.36 6.56,-71.61 -39.44,-122.21 -105.17,-130.11zm-9.19 2703.69c-63.74,-3.28 -101.22,30.23 -101.22,94.63 -0.65,64.41 36.81,95.28 97.27,97.27 67.04,-6.58 97.91,-43.37 92.67,-106.46 -3.95,-52.59 -36.81,-82.81 -88.72,-85.44zm1327.5 2625.47c-70.99,-7.9 -118.95,23.67 -120.91,101.22 -1.32,63.09 33.51,97.91 95.95,104.5 63.09,1.32 103.18,-27.59 109.09,-91.35 5.91,-60.48 -20.37,-107.13 -84.13,-114.36zm-1337.36 -3997.04c-63.09,5.26 -99.23,37.46 -99.9,101.22 -0.65,77.55 45.35,111.05 116.99,104.5 63.09,-5.91 92.67,-49.28 88.06,-111.06 -4.6,-63.11 -42.06,-93.99 -105.14,-94.66zm1337.36 -11717.03c66.37,-9.19 111.06,-61.13 101.86,-131.44 -8.54,-67.69 -56.51,-105.81 -125.53,-110.41 -69.67,14.46 -118.95,54.55 -115,124.22 3.97,80.15 57.85,129.46 138.67,117.63zm-36.14 7992.74c107.77,11.18 168.9,-55.86 189.91,-161.67 -7.9,-95.95 -59.14,-163.64 -153.78,-173.5 -107.78,-10.5 -178.76,55.22 -185.99,161.01 -7.2,96.62 55.89,164.31 149.85,174.17zm7.9 -1315.7c107.78,5.91 166.91,-63.09 182.04,-166.91 -11.82,-98.59 -65.72,-164.96 -161,-169.55 -107.13,-5.26 -176.78,61.78 -178.77,168.91 -1.98,96.59 62.42,162.96 157.73,167.56zm-1299.93 -299.01c-79.51,-3.95 -132.09,47.32 -136.69,124.87 -4.59,79.51 47.32,132.09 124.87,136.69 80.18,5.27 122.9,-48.63 139.99,-125.54 -8.54,-77.52 -49.3,-131.42 -128.17,-136.02zm-11.18 2676.07c-76.23,17.09 -130.78,59.81 -125.54,139.99 4.59,77.55 56.51,129.46 136.69,124.86 77.54,-4.59 128.81,-57.18 124.86,-136.69 -3.9,-78.22 -58.47,-119.63 -136.02,-128.17zm1320.97 -6396.43c91.36,-7.23 143.92,-54.55 142.6,-148.54 -1.32,-81.5 -47.96,-131.44 -129.46,-137.36 -92,-5.91 -149.85,40.74 -154.45,134.72 -3.95,93.35 47.99,142.63 141.31,151.17zm8.55 1365.66c92,-2.63 136.04,-58.5 139.99,-147.87 -5.91,-91.36 -52.58,-143.92 -144.58,-145.23 -90.69,-1.96 -146.55,46 -149.85,137.36 -3.95,102.48 51.27,159.02 154.45,155.74zm-24.32 -2689.24c90.04,9.86 140.64,-43.37 155.76,-129.46 -3.95,-81.5 -46.67,-135.37 -122.9,-143.27 -89.37,-9.19 -147.22,41.41 -153.13,131.44 -5.91,79.51 44.02,132.74 120.27,141.28zm-1295.98 2662.93c69,-0.65 108.45,-49.28 118.95,-118.95 -7.9,-69.67 -47.31,-116.32 -115.67,-122.23 -70.99,-5.91 -120.91,41.41 -126.83,107.77 -7.9,80.18 42.7,134.08 123.55,133.41zm1309.13 1349.89c90.04,-3.28 149.18,-47.32 155.09,-139.32 6.58,-101.22 -44.04,-164.31 -149.18,-167.59 -91.35,-2.63 -149.18,46 -155.09,138 -7.23,101.87 45.33,160.36 149.18,168.91zm-1318.98 -23c80.18,3.28 132.09,-47.31 136.69,-124.86 4.6,-79.51 -47.31,-132.09 -124.86,-136.69 -80.18,-5.26 -122.9,48.63 -141.95,135.37 14.46,63.74 49.3,122.87 130.13,126.18zm2.63 -2707.64c63.74,3.28 97.91,-31.55 106.46,-93.99 1.31,-61.77 -25.63,-103.82 -88.72,-111.05 -60.46,-7.23 -107.78,19.72 -116.32,82.14 -9.86,70.34 21.04,118.95 98.59,122.9zm-2.63 5078.12c-77.55,4.6 -129.46,56.51 -124.87,136.69 4.59,77.55 57.18,128.81 136.04,124.86 78.22,-3.95 120.27,-57.82 128.14,-135.37 -16.42,-76.9 -59.14,-130.78 -139.32,-126.18zm2680.67 1305.82c-118.31,3.28 -185.99,74.26 -183.36,192.55 2.63,117.64 74.27,185.99 192.55,183.36 118.95,-2.63 177.45,-76.23 187.31,-193.22 -16.42,-114.33 -77.55,-185.96 -196.5,-182.69zm3.95 1320.3c-108.44,-1.32 -178.09,66.37 -183.36,173.5 -5.91,120.92 68.35,183.36 182.69,199.13 109.09,-13.14 180.72,-69.67 185.99,-177.45 4.62,-120.24 -65.7,-193.87 -185.32,-195.18zm-12.47 1315.04c-91.36,22.35 -166.92,73.59 -167.59,182.69 -0.65,107.78 66.37,178.77 172.18,182.04 118.31,3.95 191.91,-70.32 187.95,-188.62 -2.63,-106.44 -76.9,-162.3 -192.55,-176.11zm-1355.15 2733.92c-77.55,3.95 -129.46,56.51 -125.54,136.04 3.95,78.22 57.18,120.27 134.72,128.81 76.9,-16.42 130.78,-59.14 126.18,-139.32 -3.93,-77.55 -55.84,-129.48 -135.37,-125.54zm1363.67 -8048.6c-117.64,5.26 -185.99,74.91 -183.36,192.55 2.63,118.31 74.27,185.99 192.55,183.36 118.95,-2.63 177.45,-76.23 188.63,-210.31 -24.32,-90.02 -74.91,-170.87 -197.81,-165.6zm0 1316.35c-117.64,5.27 -185.99,74.91 -183.36,192.55 2.63,118.3 74.27,185.32 192.55,183.36 118.95,-2.63 177.45,-76.23 188.63,-210.31 -24.32,-90.02 -74.91,-171.51 -197.81,-165.6zm1335.43 12079.82c-60.46,-7.9 -101.86,20.37 -111.05,85.44 -0.65,62.44 26.95,101.22 92,104.5 52.59,2.63 89.37,-23.67 97.91,-74.27 10.51,-59.83 -13.81,-107.15 -78.86,-115.67zm-1322.26 -5369.26c-103.18,-3.28 -161.68,51.91 -161,155.76 0.65,91.36 52.58,145.91 143.91,149.18 103.83,3.95 156.41,-53.23 162.32,-151.81 -5.91,-95.31 -53.23,-150.5 -145.23,-153.13zm2.61 -1338.7c-109.09,-5.91 -182.04,62.44 -185.99,169.55 -3.95,109.09 69.67,166.91 175.46,184.67 105.81,-18.41 176.78,-76.23 174.81,-185.99 -2.61,-97.24 -68.98,-162.96 -164.28,-168.23zm-1365.63 -2656.35c-102.54,-4.6 -161.68,51.26 -161.68,155.09 0.65,91.36 51.91,141.95 143.27,151.15 90.69,0 151.81,-42.06 161,-133.41 9.86,-100.55 -36.79,-168.23 -142.6,-172.83zm-3.28 1321.59c-103.83,-1.96 -157.08,56.51 -151.81,158.37 4.59,92 62.44,134.08 161,136.69 80.83,-9.19 132.76,-56.51 132.09,-148.54 -0.65,-91.31 -49.95,-144.54 -141.28,-146.52zm1341.31 4000.32c-80.83,7.23 -126.83,58.5 -125.54,139.99 0.65,93.32 53.23,145.23 146.55,143.27 93.99,-2.63 137.36,-60.46 138.67,-152.46 -13.14,-92.67 -68.33,-138.68 -159.69,-130.8zm-1345.91 -2627.44c-90.69,1.32 -144.59,57.18 -137.36,147.22 7.23,89.37 67.69,138.67 157.72,125.54 76.9,-11.18 116.99,-65.72 117.64,-147.22 -14.46,-75.58 -57.85,-127.5 -138,-125.54zm-19.72 -4025.95c-93.99,10.51 -156.41,78.22 -149.18,174.81 8.55,105.81 78.87,170.87 187.31,159.69 94.63,-9.86 145.23,-78.22 152.46,-174.15 -21.69,-105.14 -82.17,-172.85 -190.59,-160.36zm1395.22 7990.78c-70.99,-8.54 -122.23,35.5 -132.09,101.87 -11.82,80.82 37.46,134.72 117.64,138.67 70.32,3.28 109.09,-45.35 126.83,-124.22 -10.51,-55.86 -43.37,-108.42 -112.37,-116.32zm-21.69 -11627.66c116.99,-7.9 191.91,-65.72 195.85,-184.68 3.95,-117.64 -63.09,-190.59 -180.73,-194.54 -117.63,-4.59 -189.92,63.09 -195.18,180.72 -4.62,118.95 66.34,181.4 180.06,198.49zm1343.3 -2671.48c117.64,-8.54 183.36,-84.13 181.4,-201.09 -1.96,-130.13 -80.18,-193.87 -205.69,-201.09 -130.13,15.13 -201.76,87.41 -194.54,215.55 7.85,129.46 91.33,196.47 218.83,186.64zm2659.63 1405.07c162.32,0 238.55,-93.99 245.13,-251.72 -15.78,-145.9 -93.32,-231.32 -243.17,-230 -161,1.31 -246.45,92 -241.85,251.71 4.62,148.51 91.38,230.01 239.89,230.01zm-18.38 2639.26c155.76,9.86 256.96,-68.36 267.49,-228.72 10.51,-155.76 -68.35,-256.96 -228.04,-268.13 -156.41,-10.5 -249.08,70.32 -270.77,229.36 0.65,154.44 70.3,256.98 231.32,267.49zm-1343.3 -12085.06c63.74,0.65 96.59,-35.5 103.18,-97.92 0.65,-63.09 -29.58,-101.86 -92.67,-107.78 -61.13,-5.26 -106.46,22.36 -113.04,86.09 -7.23,71.61 25.63,118.93 102.54,119.6zm1357.09 10769.38c157.72,2.63 250.4,-83.46 253.68,-243.17 3.28,-158.37 -85.44,-243.17 -243.82,-256.96 -155.76,8.54 -250.4,86.09 -253,245.78 -1.99,158.39 84.1,251.04 243.15,254.35zm-1362.35 -9413.61c81.5,3.28 135.37,-39.44 145.23,-120.27 11.18,-90.69 -30.9,-153.78 -124.22,-162.99 -91.36,-9.19 -146.55,38.13 -161.68,141.95 6.61,77.57 45.38,137.38 140.66,141.31zm-5.91 4044.36c130.13,4.59 203.72,-67.69 201.76,-197.81 -1.96,-118.95 -75.59,-178.09 -192.55,-187.31 -116.32,10.51 -187.95,70.32 -190.59,189.92 -1.99,118.31 63.07,190.61 181.37,195.2zm5.91 -2698.43c96.6,-8.54 164.31,-61.77 172.85,-155.76 9.19,-107.13 -56.51,-178.76 -162.99,-184.67 -97.27,-5.27 -164.31,58.5 -172.85,152.46 -9.83,107.8 57.85,168.93 162.99,187.98zm11.18 1328.18c107.78,-1.96 176.13,-70.99 178.09,-178.76 1.96,-120.92 -73.6,-181.4 -204.4,-195.85 -86.76,24.31 -164.95,73.59 -164.95,184.67 0.02,120.94 71.63,192.57 191.26,189.94zm-2643.88 5359.39c120.91,2.63 181.4,-73.6 195.85,-204.4 -24.31,-86.76 -73.59,-164.96 -184.67,-164.96 -120.27,0 -191.91,70.99 -189.92,190.59 1.96,108.44 70.96,176.13 178.74,178.76zm4006.23 -1306.49c144.59,-14.46 231.99,-90.04 231.99,-239.87 0,-148.54 -82.14,-235.94 -230.68,-238.55 -160.36,-2.63 -248.41,88.05 -244.49,247.76 3.95,149.83 96.62,221.46 243.17,230.65zm-3.28 -5368.58c108.44,0.65 177.45,-67.69 182.04,-174.81 5.26,-120.92 -69.67,-182.69 -199.13,-199.78 -88.72,21.69 -167.59,70.32 -169.55,181.4 -2.63,119.57 67.02,192.52 186.64,193.2zm19.05 -2681.34c76.9,-11.18 116.99,-65.72 118.31,-158.37 -19.05,-59.14 -56.51,-116.32 -138,-113.69 -90.69,2.63 -144.59,57.18 -137.36,147.22 6.56,88.7 67.02,137.98 157.06,124.84zm-13.81 1352.49c97.27,-19.05 162.99,-74.27 161,-170.87 -1.96,-107.13 -71.63,-176.13 -178.76,-168.9 -104.5,7.9 -170.22,80.18 -156.41,189.27 11.85,95.3 80.85,144.59 174.17,150.5zm-20.37 5371.22c147.22,7.9 224.76,-82.81 249.73,-223.45 -15.1,-143.27 -88.06,-238.55 -235.27,-239.22 -145.91,0 -233.96,89.37 -233.31,235.27 0.67,135.4 85.44,220.17 218.85,227.4zm-3.28 -2710.92c127.5,7.9 209.64,-59.81 216.22,-189.92 5.91,-128.81 -67.04,-199.13 -196.5,-212.94 -126.83,8.54 -203.08,74.27 -203.72,204.4 -0.67,117.63 67.01,191.23 184,198.46zm17.09 1382.74c136.04,0 207.01,-92.67 224.1,-224.76 -25.63,-133.41 -101.22,-222.13 -237.91,-214.91 -122.23,6.58 -206.36,90.69 -207.01,214.91 -0.67,136.04 86.09,225.41 220.81,224.76zm-1343.94 1310.44c123.55,-11.18 187.95,-97.92 197.81,-218.85 -21.04,-126.18 -91.36,-209.64 -215.55,-208.99 -135.37,0.65 -222.78,88.05 -216.22,223.45 6.56,133.41 97.24,216.22 233.96,204.4zm-1343.3 3996.37c136.04,1.96 223.45,-83.46 220.81,-218.85 -3.28,-134.72 -94.64,-218.19 -230.01,-208.99 -122.9,7.9 -189.92,94.63 -201.76,216.87 17.74,124.89 86.74,208.35 210.96,210.98zm-1294.67 -8103.15c63.09,-5.91 92.67,-49.28 88.06,-111.06 -4.59,-63.09 -42.72,-93.99 -105.14,-94.63 -63.09,5.26 -99.23,37.46 -99.9,101.22 -1.32,76.85 44.69,111.03 116.99,104.47zm1308.45 6778.9c128.14,-3.95 193.87,-86.09 202.41,-210.31 -16.42,-129.46 -88.05,-205.69 -216.22,-201.76 -128.14,3.95 -203.72,85.44 -199.13,212.94 3.97,127.5 85.44,203.08 212.94,199.13zm2661.64 -10780.54c62.44,1.96 101.87,-25.63 106.46,-90.69 3.28,-51.91 -22.35,-89.37 -73.6,-98.59 -59.81,-11.18 -107.13,13.14 -116.32,76.9 -8.57,59.79 17.74,102.51 83.46,112.37zm-3979.3 5351.5c63.73,-14.46 122.9,-49.95 125.53,-130.78 3.28,-80.18 -47.96,-132.09 -125.53,-136.04 -79.51,-4.59 -132.09,47.32 -136.04,124.87 -4.59,80.18 49.3,123.55 136.04,141.95zm-5.24 4039.09c107.78,2.63 165.63,-69.67 185.99,-184.68 -16.42,-92 -66.37,-168.9 -174.81,-175.46 -108.44,-7.23 -182.04,59.14 -191.23,162.99 -9.89,118.28 61.75,194.51 180.06,197.15zm19.05 -1328.18c94.64,-9.86 145.23,-78.22 152.46,-174.14 -21.69,-105.14 -82.81,-172.85 -190.59,-160.36 -93.99,10.5 -156.41,78.22 -149.18,174.81 7.9,105.14 78.86,170.84 187.31,159.69zm2611.67 1378.13c131.44,-17.74 221.46,-88.72 226.08,-222.13 4.59,-134.08 -80.18,-224.76 -210.96,-231.32 -144.59,-7.23 -237.23,83.46 -237.23,227.4 -0.67,134.05 91.33,205.66 222.11,226.06zm-2643.85 -2715.52c101.86,5.91 160.36,-46.67 159.04,-150.5 -1.32,-92 -54.55,-138 -146.55,-143.92 -89.37,4.6 -143.27,49.28 -147.22,141.31 -2.63,90.01 43.37,147.84 134.72,153.1zm1309.12 -4039.76c70.32,9.86 119.6,-21.04 122.9,-98.58 2.63,-63.74 -31.54,-97.91 -93.99,-106.46 -61.78,-1.31 -103.83,25.63 -111.06,88.72 -7.25,60.48 19.05,107.8 82.14,116.32zm10649.09 -3951.02c92,-1.96 137.36,-55.86 142.6,-147.22 -4.59,-90.04 -49.95,-143.92 -141.95,-146.55 -90.69,-2.63 -147.87,43.37 -152.46,134.72 -5.24,102.53 47.99,161 151.81,159.04zm-10638.58 9348.54c117.63,5.91 191.23,-60.46 197.81,-178.09 6.58,-118.95 -63.09,-182.04 -176.13,-201.09 -117.64,6.58 -193.87,63.09 -199.13,181.4 -6.56,117.61 59.14,191.21 177.45,197.79zm1303.21 2718.79c147.22,15.13 226.08,-76.9 255.64,-213.59 -9.86,-136.04 -78.22,-228.04 -210.96,-240.54 -145.9,-13.81 -239.87,72.95 -250.4,216.22 -9.19,134.06 74.94,224.09 205.71,237.91zm-1287.44 -4043.04c107.13,-1.31 163.64,-74.91 178.76,-180.08 -15.13,-105.14 -70.99,-176.78 -178.76,-180.08 -107.78,-3.28 -180.08,63.74 -185.32,168.91 -6.58,118.31 66.37,192.57 185.32,191.26zm-18.41 -2722.74c90.69,7.23 139.32,-47.32 153.78,-145.23 -13.14,-65.06 -48.63,-122.9 -128.81,-128.14 -90.04,-5.91 -145.91,45.35 -149.18,135.37 -3.28,80.18 46.67,132.09 124.22,138zm3.95 1332.12c103.18,4.59 161.68,-51.91 161,-155.76 -0.65,-91.35 -52.58,-141.95 -154.44,-151.81 -79.51,2.63 -141.95,42.72 -150.5,134.73 -9.19,100.57 38.13,168.26 143.94,172.85zm10626.76 1489.2c174.15,3.95 263.54,-105.81 291.13,-283.91 -24.31,-155.09 -106.46,-271.41 -281.27,-273.4 -172.18,-1.96 -279.96,101.86 -283.26,273.4 -3.28,172.85 101.22,279.96 273.4,283.91zm10671.44 3980.6c151.81,-15.78 255,-97.91 262.22,-248.41 7.9,-162.99 -92.67,-268.78 -255,-273.4 -151.81,-3.95 -254.32,93.99 -261.55,243.81 -8.54,162.99 93.32,254.35 254.32,278zm-1.29 -6744.08c116.99,-7.22 190.59,-65.05 196.5,-184 5.91,-117.63 -57.83,-193.87 -175.46,-201.09 -128.81,-7.9 -206.36,61.13 -207.68,191.91 -0.67,119.57 70.3,180.7 186.64,193.19zm3.93 -4069.99c70.32,3.28 109.76,-45.35 126.18,-124.22 -10.51,-56.51 -43.37,-108.44 -112.37,-116.99 -70.99,-8.54 -122.23,36.14 -131.45,102.54 -11.82,81.5 37.46,135.4 117.64,138.67zm-5.91 5453.36c136.04,2.63 224.09,-83.46 220.82,-218.85 -3.28,-134.73 -94.64,-218.19 -230.01,-209 -122.9,7.9 -189.92,94.64 -202.41,216.87 18.38,124.89 87.41,209.02 211.6,210.98zm-2656.35 -2693.8c116.99,-7.23 184.68,-80.83 184.68,-198.46 -0.65,-130.13 -76.9,-195.85 -203.73,-204.4 -128.81,13.81 -202.41,84.13 -196.5,212.94 5.89,130.11 88.06,197.15 215.55,189.92zm2641.89 6671.8c156.41,9.86 256.95,-67.69 265.5,-228.72 8.54,-158.37 -76.23,-246.45 -233.96,-262.87 -157.72,6.58 -251.72,82.14 -254.32,243.81 -3.3,147.22 74.91,238.55 222.78,247.77zm25.63 -1322.26c149.85,-1.31 224.1,-90.04 238.55,-249.08 -15.77,-129.46 -83.46,-224.76 -234.63,-226.73 -160.36,-1.96 -249.08,87.41 -245.13,247.77 3.95,148.51 92.67,229.36 241.2,228.04zm-3.95 -1326.21c134.08,1.96 221.46,-84.13 227.4,-216.87 6.58,-146.55 -86.76,-222.78 -237.9,-246.45 -118.31,24.32 -214.24,88.72 -217.54,224.09 -4.59,145.9 83.46,237.24 228.04,239.22zm1315.04 -2722.74c105.14,-14.46 176.78,-70.32 180.73,-177.45 4.59,-107.78 -63.09,-180.08 -167.59,-185.99 -118.31,-7.23 -193.22,66.37 -192.55,184.68 1.31,106.46 74.27,162.99 179.41,178.76zm-15.1 9366.92c158.37,8.54 246.45,-75.59 262.87,-233.96 -6.58,-157.08 -81.5,-251.72 -243.17,-255 -147.22,-2.63 -238.55,74.92 -247.76,223.45 -10.51,156.41 67.04,256.31 228.07,265.5zm-2.63 -7997.34c128.15,9.86 207.01,-57.82 210.31,-189.27 2.63,-118.95 -67.69,-181.39 -183.36,-195.85 -117.64,5.91 -192.55,62.44 -199.78,181.4 -7.25,117.63 54.52,194.54 172.83,203.72zm17.74 2670.83c131.44,-19.05 221.46,-89.37 224.77,-223.45 3.95,-134.08 -81.5,-224.09 -212.27,-230.01 -144.59,-6.58 -236.59,84.78 -235.94,229.36 0.67,133.38 92.67,205.02 223.45,224.09zm-12.47 -1331.48c136.04,7.23 211.63,-78.86 231.99,-210.95 -13.81,-125.54 -82.14,-210.96 -205.69,-216.87 -135.37,-6.58 -224.09,76.9 -227.4,212.27 -3.3,124.86 78.19,208.97 201.09,215.55zm-5.94 5338.36c145.23,11.18 243.17,-59.81 258.94,-209.64 16.42,-157.73 -61.78,-251.05 -222.78,-275.36 -140.64,3.28 -241.85,62.44 -256.31,214.23 -15.13,155.76 57.83,258.27 220.15,270.77zm23.67 -1318.98c149.85,-0.65 224.09,-90.04 237.23,-235.94 -11.18,-146.55 -84.13,-235.94 -233.96,-239.87 -147.86,-3.28 -238.55,76.23 -244.48,224.76 -7.2,159.72 80.2,251.05 241.21,251.05zm-7.9 -1369.58c147.22,3.28 221.46,-90.69 240.54,-233.31 -21.69,-141.95 -97.27,-233.96 -244.49,-230.01 -134.08,3.95 -219.5,88.06 -223.45,222.13 -5.24,145.9 81.52,237.91 227.4,241.18zm-1314.36 -6684.93c108.44,1.31 166.27,-72.28 180.72,-177.45 -20.37,-106.46 -79.51,-177.44 -189.27,-172.18 -95.95,4.59 -162.32,70.99 -164.96,167.59 -2.63,109.09 65.72,180.73 173.5,182.04zm-1378.13 8091.97c172.18,9.19 283.91,-93.32 291.81,-264.19 8.54,-173.5 -101.87,-265.5 -270.1,-293.09 -168.23,20.37 -279.31,108.44 -280.63,282.59 -1.34,161.68 99.2,266.15 258.92,274.69zm24.32 1318.98c173.5,-4.59 259.59,-116.99 276.68,-286.54 -27.59,-166.92 -118.95,-276.03 -292.45,-269.45 -171.54,5.91 -275.36,114.36 -270.1,286.54 5.24,170.87 113.69,274.05 285.87,269.45zm-2.63 -2686.58c161.67,-13.14 247.77,-112.37 267.49,-257.63 0,-150.5 -129.46,-289.82 -266.82,-284.55 -161.67,5.91 -258.94,99.9 -277.32,259.59 -15.8,143.25 132.07,294.41 276.65,282.59zm-24.99 -1338.7c156.41,10.51 249.08,-70.32 270.77,-228.72 -1.32,-154.44 -70.99,-256.96 -231.32,-267.49 -155.76,-9.86 -256.96,68.36 -267.49,228.72 -10.51,155.12 68.35,256.31 228.04,267.49zm-1285.45 -6696.11c106.46,-4.59 162.32,-78.22 173.5,-184.67 -17.74,-104.5 -75.58,-175.46 -183.36,-175.46 -107.13,0 -178.76,67.04 -180.73,173.5 -2.63,118.28 72.28,191.23 190.59,186.64zm1320.95 5369.26c149.85,-6.58 219.5,-101.22 225.41,-249.73 -17.74,-143.27 -95.28,-228.04 -245.13,-225.41 -148.54,2.63 -233.95,87.41 -233.31,235.94 0.02,160.98 93.99,245.76 253.03,239.2zm-1335.4 -6765.78c90.69,1.96 146.55,-46 149.85,-137.36 3.95,-102.54 -51.27,-159.04 -154.45,-155.76 -92,2.63 -136.69,58.5 -139.99,147.86 5.91,91.36 52.58,143.94 144.59,145.26zm-9.22 -1343.3c80.18,7.23 134.08,-42.72 132.76,-124.22 -0.65,-69 -49.28,-108.45 -118.95,-118.95 -69.67,7.9 -116.32,47.31 -122.23,115.67 -5.27,71.63 41.41,121.59 108.42,127.5zm2686.6 14768.39c161,3.28 258.94,-98.59 276.68,-257.63 15.77,-143.91 -132.09,-294.41 -276.68,-282.59 -161.68,13.14 -247.09,113.04 -268.78,271.41 21.69,158.4 107.78,265.53 268.78,268.81zm-1364.98 -14793.35c63.74,4.59 97.91,-29.58 103.82,-95.28 -3.95,-61.13 -35.49,-96.6 -99.9,-95.28 -51.91,1.31 -86.09,29.58 -91.35,82.14 -5.89,62.42 22.38,104.47 87.43,108.42zm1357.76 13471.09c162.32,9.19 254.32,-95.95 281.94,-258.94 -18.41,-157.72 -104.5,-264.85 -267.49,-268.13 -151.15,-2.63 -254.32,95.95 -264.19,245.13 -11.18,163.64 89.37,272.73 249.73,281.94zm-1367.62 -12113.33c90.04,11.18 140.64,-42.05 157.08,-128.14 -3.28,-81.5 -45.35,-136.04 -121.59,-144.59 -89.37,-10.51 -147.86,40.09 -154.44,130.13 -6.56,80.15 42.72,133.38 118.95,142.6zm33.53 1394.54c93.99,-7.9 146.55,-75.59 156.41,-177.45 -21.04,-99.23 -80.18,-168.9 -187.95,-159.04 -93.99,8.55 -157.73,75.59 -152.46,172.85 5.24,107.13 76.2,172.85 184,163.64zm-27.62 2678.7c136.69,5.91 210.96,-80.82 229.36,-212.27 -15.13,-126.18 -84.13,-210.96 -207.68,-216.22 -136.04,-5.26 -223.45,78.87 -225.41,214.91 -1.32,124.89 80.85,208.35 203.72,213.59zm12.5 -1341.96c118.95,0 178.09,-73.6 190.59,-189.27 -13.14,-115.67 -73.6,-187.95 -192.55,-186.64 -118.3,1.31 -187.31,70.99 -186.64,189.27 0.65,117.61 70.32,186.64 188.6,186.64zm-3.95 2718.79c146.55,0.65 220.17,-93.99 237.91,-245.78 -28.91,-117.63 -95.28,-212.27 -232,-210.31 -145.23,1.31 -234.63,91.35 -230.68,236.59 3.3,133.41 90.71,219.5 224.77,219.5zm1377.48 -4076.55c92,-4.59 134.08,-62.44 136.69,-161 -9.86,-80.82 -56.51,-132.76 -148.54,-132.76 -91.36,0.65 -144.59,49.95 -146.55,141.31 -1.29,103.82 56.53,157.06 158.39,152.46zm5318.63 10661.59c90.04,-24.32 165.63,-77.55 162.32,-187.31 -3.28,-107.13 -70.99,-177.44 -177.45,-177.44 -118.31,0 -190.59,75.58 -182.69,193.87 6.58,105.17 80.85,161.7 197.81,170.89zm-1395.21 -5328.5c107.78,7.9 168.23,-60.46 185.99,-170.22 -13.14,-90.69 -63.74,-159.69 -159.04,-166.27 -107.13,-6.58 -178.09,59.14 -181.4,166.27 -3.92,97.27 60.48,163.64 154.45,170.22zm1386.02 2632.7c105.14,-9.19 170.22,-80.18 157.72,-188.62 -11.18,-94.64 -80.18,-144.59 -174.81,-151.15 -104.5,23 -172.18,83.46 -159.04,192.55 11.18,93.99 79.51,155.76 176.13,147.22zm-15.13 -1338.03c90.69,3.95 142.6,-44.69 153.13,-135.37 0.65,-90.04 -39.44,-149.18 -130.78,-157.72 -88.06,-7.9 -151.81,31.54 -162.32,123.55 -10.53,99.88 34.83,164.95 139.97,169.55zm-1361.04 -2632.06c90.69,1.96 146.55,-46 149.85,-137.36 3.95,-102.53 -51.27,-159.04 -154.45,-155.76 -92,2.63 -136.69,58.5 -140.63,147.87 6.56,91.38 53.23,143.3 145.23,145.26zm1353.81 1308.48c82.81,-1.31 137.36,-41.41 148.54,-117.63 13.14,-89.37 -36.14,-148.54 -125.54,-158.37 -79.51,-8.55 -134.08,38.77 -145.9,115.67 -13.14,90.02 39.44,141.28 122.9,160.33zm-1344.59 -2687.92c78.22,-3.95 120.27,-57.82 129.46,-145.23 -22.35,-62.44 -59.14,-122.23 -140.64,-116.32 -77.55,5.91 -129.46,57.18 -124.86,136.69 4.59,78.22 57.18,129.46 136.04,124.86zm-2646.51 -1294c103.83,3.95 156.41,-53.23 162.32,-151.81 -6.58,-95.28 -53.9,-150.5 -145.91,-153.13 -103.18,-3.28 -161.67,51.91 -161,155.76 1.32,91.33 53.23,145.88 144.59,149.18zm3991.11 8013.11c109.09,7.23 182.04,-60.46 187.95,-167.59 5.91,-109.09 -67.69,-168.23 -173.5,-186.64 -105.81,17.09 -177.45,73.6 -176.13,183.36 0.67,97.91 66.39,164.31 161.68,170.87zm2643.23 1246.03c51.91,-0.65 98.59,-23.67 104.5,-88.05 6.58,-71.64 -25.63,-118.31 -103.18,-118.95 -63.09,-0.65 -98.59,34.82 -102.54,97.91 -2.63,63.09 30.23,98.58 101.22,109.09zm2.63 -1326.21c64.41,0 94.63,-38.13 95.95,-98.58 -7.9,-67.04 -45.36,-96.6 -107.78,-91.36 -52.58,4.59 -81.5,38.13 -83.46,89.37 -2.66,64.43 31.52,101.24 95.28,100.57zm-1324.25 -3995.05c63.74,4.59 97.92,-29.59 103.83,-95.28 -3.95,-61.13 -35.49,-96.6 -99.9,-95.28 -51.91,1.31 -86.09,29.58 -91.35,82.14 -5.24,61.77 23.02,103.82 87.43,108.42zm-0.65 2676.74c81.5,-3.28 136.04,-45.36 144.59,-121.59 10.51,-89.37 -40.09,-147.87 -130.13,-154.44 -80.18,-5.91 -133.41,43.37 -142.6,119.6 -10.53,89.39 42.7,139.99 128.14,156.43zm19.7 1368.26c76.9,-11.18 133.41,-53.9 130.78,-149.18 -1.96,-81.5 -47.96,-131.45 -129.46,-137.36 -92,-5.91 -149.85,40.74 -154.45,134.72 -4.59,93.32 47.99,142.62 153.13,151.81zm-24.32 -2704.34c80.18,7.23 134.08,-42.72 132.76,-124.22 -0.65,-69 -49.28,-108.44 -126.83,-119.6 -59.14,12.49 -109.09,47.32 -114.36,116.99 -4.62,70.96 41.41,120.92 108.42,126.83zm-1301.89 -2632.06c69.67,1.31 108.44,-47.32 121.58,-116.99 -6.58,-69 -44.69,-116.32 -113.04,-123.55 -70.99,-7.9 -121.59,38.78 -129.46,104.5 -9.19,80.2 40.09,134.75 120.92,136.04zm-1372.21 -2704.34c63.73,4.6 97.91,-29.58 103.82,-95.28 -3.95,-61.13 -35.49,-96.6 -99.9,-95.28 -51.91,1.31 -86.09,29.58 -91.35,82.14 -5.22,61.77 23.02,103.82 87.43,108.42zm-1292.68 5416.57c116.99,-7.23 184.67,-80.83 184.67,-198.46 -0.65,-130.13 -76.9,-195.85 -203.72,-204.4 -128.81,13.81 -202.41,84.13 -196.5,212.94 5.91,130.11 88.06,197.81 215.55,189.92zm-9.22 1335.4c134.08,-24.32 218.85,-101.22 207.01,-237.91 -10.51,-122.23 -96.6,-202.41 -221.46,-195.18 -134.08,7.9 -216.87,96.6 -206.36,233.31 10.53,122.91 97.27,188.63 220.81,199.78zm-27.59 1367.62c144.59,13.14 239.22,-75.58 245.13,-219.5 5.26,-134.08 -84.78,-207.68 -214.91,-233.31 -132.09,11.83 -223.45,82.14 -233.31,214.24 -11.15,134.08 72.95,226.75 203.08,238.57zm13.81 -4031.19c117.63,4.59 189.92,-63.09 195.18,-180.73 5.27,-118.95 -65.72,-181.4 -193.87,-200.45 -97.91,15.77 -179.41,65.06 -182.04,186.64 -3.3,117.64 63.09,189.94 180.73,194.54zm7.23 -1324.25c107.77,2.63 165.62,-69.67 184,-174.14 -10.51,-105.81 -66.37,-178.09 -172.85,-185.99 -108.44,-7.9 -181.39,59.14 -191.23,162.99 -9.86,118.28 61.78,194.51 180.08,197.15zm-1322.26 -4044.33c80.18,5.27 122.9,-48.63 141.95,-135.37 -14.46,-63.74 -49.95,-122.9 -130.13,-126.18 -80.18,-3.28 -132.09,47.32 -136.69,124.87 -4.62,79.51 47.32,131.42 124.87,136.69zm1321.59 10725.99c134.08,-19.05 224.77,-89.37 228.04,-223.45 3.95,-145.23 -84.77,-236.59 -230,-237.24 -134.08,-0.65 -220.81,85.44 -226.08,218.19 -4.59,145.9 88.72,221.46 228.04,242.5zm-6.56 1315.7c134.08,-13.14 225.41,-82.81 234.63,-215.55 9.86,-145.23 -76.9,-240.54 -221.46,-245.13 -144.58,-4.59 -235.27,87.41 -233.95,232.64 0.62,134.72 90.66,206.36 220.79,228.04zm12.47 -10726.02c77.55,-4.59 128.81,-57.18 124.86,-136.04 -3.95,-78.22 -57.82,-120.27 -136.04,-128.14 -76.23,17.09 -130.13,59.81 -125.54,139.99 5.29,77.55 57.2,128.79 136.71,124.19zm1306.52 8060.45c129.46,2.63 196.5,-73.6 207,-201.09 -11.82,-128.14 -80.83,-201.76 -210.31,-199.13 -117.64,2.63 -188.63,72.28 -193.22,189.92 -3.28,128.81 67.04,207.68 196.52,210.31zm-1326.21 -6722.42c101.86,6.58 159.69,-45.35 169.55,-161.68 -7.23,-76.23 -47.32,-137.35 -140.64,-142.6 -101.86,-5.91 -163.63,44.69 -166.91,149.85 -2.63,90.69 46.65,148.51 138,154.42zm1320.94 5346.9c117.64,5.91 191.23,-60.46 197.81,-178.09 6.58,-118.95 -63.09,-182.04 -176.13,-201.09 -117.64,6.58 -193.87,63.09 -199.13,181.4 -6.56,118.28 59.14,191.88 177.45,197.79zm11.82 2697.78c128.14,-1.31 195.85,-80.82 206.36,-208.32 -13.14,-127.5 -82.81,-205.69 -210.96,-203.73 -128.14,1.31 -205.04,80.18 -203.73,208.32 1.32,128.14 80.18,205.04 208.32,203.72zm-9.19 -4021.36c118.31,2.63 191.23,-72.28 186.64,-190.59 -4.59,-106.46 -78.22,-162.32 -184,-173.5 -104.5,17.73 -175.46,75.58 -175.46,183.36 -0.67,107.13 67.01,178.09 172.83,180.72zm-199.13 5129.39c-1.96,128.14 76.23,197.81 210.31,212.27 119.6,-12.5 201.09,-78.22 202.41,-207.01 1.32,-128.14 -75.58,-207 -203.72,-208.32 -128.17,-2.66 -207.03,74.89 -209,203.06zm-1129.04 -11842.59c59.81,8.55 106.46,-15.77 113.69,-81.5 6.58,-61.77 -23,-101.22 -101.86,-111.05 -44.69,5.91 -86.76,29.58 -88.06,95.95 -1.34,53.23 25.61,89.37 76.23,96.6zm-6610.02 93.32c118.31,0.65 187.96,-68.35 189.27,-186.64 1.31,-118.95 -70.99,-179.41 -186.64,-192.55 -115.67,11.82 -188.63,70.99 -189.27,190.59 -0.02,117.63 68.33,187.95 186.64,188.6zm-3987.18 8074.91c164.96,-4.59 312.17,-156.41 311.5,-320.05 -0.65,-164.31 -149.85,-314.81 -314.13,-317.41 -163.64,-2.63 -316.77,143.92 -323.35,308.87 -6.56,170.87 153.8,333.19 325.98,328.59zm-4.59 -8056.5c128.14,-1.31 205.04,-80.82 203.73,-208.32 -1.32,-128.14 -80.83,-195.85 -207.68,-206.36 -128.14,13.14 -206.36,82.81 -204.4,211.63 1.31,127.5 80.18,204.37 208.35,203.06zm-7.9 -2739.16c90.69,3.95 142.6,-44.68 153.13,-135.37 0.65,-90.04 -39.44,-149.18 -130.78,-157.72 -88.06,-7.9 -151.81,31.54 -162.32,123.55 -11.18,99.88 34.83,164.95 139.97,169.55zm10.53 1349.21c107.13,-0.65 163.64,-73.59 179.41,-179.41 -14.46,-105.14 -70.32,-176.78 -177.45,-180.72 -107.78,-4.59 -180.08,63.09 -185.99,167.59 -7.87,118.95 65.08,193.87 184.03,192.55zm0 2727.34c134.72,-0.65 205.69,-90.69 229.36,-231.99 -18.41,-119.6 -82.81,-215.55 -216.87,-224.09 -145.23,-9.19 -241.18,77.55 -245.13,221.46 -3.95,145.9 87.38,235.94 232.64,234.63zm-6.58 2722.74c162.32,-8.55 249.73,-106.46 276.03,-265.5 -17.09,-158.37 -101.86,-266.82 -262.22,-274.72 -161.68,-7.9 -260.91,92.67 -283.26,251.04 -20.37,142.62 123.55,297.05 269.45,289.17zm-17.74 2653.07c184.01,10.51 299.68,-85.44 310.86,-272.73 11.18,-184.67 -88.72,-289.81 -279.31,-316.09 -174.15,7.23 -295.08,89.37 -304.94,277.99 -9.22,184.01 86.74,300.33 273.4,310.83zm30.23 -1325.54c174.81,-11.82 259.59,-117.64 275.36,-289.17 -22.35,-167.59 -110.41,-274.72 -285.87,-274.04 -174.15,0.65 -272.73,101.22 -282.59,274.72 -9.22,164.95 128.14,299.68 293.09,288.5zm-10.53 -2717.48c161.01,0.65 239.22,-93.32 247.1,-250.4 -14.46,-158.37 -99.9,-243.82 -259.59,-238.55 -147.87,5.26 -231.32,90.69 -232.64,238.55 -1.32,159.69 84.77,250.4 245.13,250.4zm1305.2 2712.88c172.18,7.23 281.27,-95.95 289.17,-267.49 7.9,-174.15 -100.54,-265.5 -266.81,-295.08 -170.22,15.13 -283.26,100.55 -289.82,273.4 -6.61,172.83 95.93,282.59 267.46,289.17zm-1310.44 -9481.94c63.09,3.28 99.23,-29.58 109.76,-100.55 -0.65,-51.91 -23.67,-98.59 -88.06,-104.5 -71.63,-6.58 -118.31,25.63 -118.95,102.53 -1.34,63.74 34.15,99.21 97.24,102.51zm1332.77 6769.71c133.41,-14.46 226.08,-83.46 228.71,-235.27 2.63,-159.69 -81.5,-250.4 -242.5,-251.05 -148.54,0 -234.63,82.14 -239.22,230.68 -4.62,161.65 84.1,243.82 253.01,255.64zm-9.19 4040.41c169.55,3.95 293.1,-128.14 288.5,-298.36 -3.95,-168.23 -136.04,-293.77 -304.94,-281.94 -174.15,12.5 -274.72,111.72 -274.72,286.54 -0.65,186.64 104.52,289.17 291.16,293.77zm-7.9 4035.79c179.41,2.63 329.91,-139.99 335.82,-319.4 5.91,-178.76 -135.37,-332.54 -313.49,-341.73 -178.76,-8.54 -335.17,129.46 -347,307.58 -12.47,188.6 136.71,350.94 324.67,353.56zm-9.19 -1321.59c169.55,8.55 333.85,-143.91 339.12,-316.09 5.26,-170.87 -149.85,-338.45 -321.36,-331.22 -188.63,7.9 -301.64,117.63 -325.31,302.31 -21.71,168.21 135.37,335.8 307.56,345.01zm20.37 -1372.21c164.95,-3.95 313.49,-157.72 309.54,-322.03 -3.95,-164.96 -157.72,-313.49 -322.03,-309.54 -164.96,3.95 -312.82,157.73 -309.54,322.04 4.62,165.6 158.39,313.46 322.03,309.54zm-13.81 -4000.99c162.99,5.27 252.36,-101.22 277.33,-267.48 -24.32,-152.46 -109.76,-260.26 -273.4,-259.59 -151.14,0.65 -253.01,100.55 -259.59,250.4 -7.2,162.99 94.66,271.44 255.67,276.68zm-2647.8 1338.71c175.46,-6.58 289.17,-88.06 303.63,-261.55 14.45,-172.85 -78.87,-280.63 -250.4,-304.94 -163.64,-23.67 -310.19,103.82 -312.17,268.13 -2.63,176.13 96.63,268.13 258.94,298.36zm24.32 2665.56c164.31,-0.65 314.8,-149.18 318.08,-314.13 3.28,-163.64 -143.27,-317.41 -308.22,-324 -161.67,-6.58 -319.4,138 -329.91,302.31 -10.53,170.87 147.19,336.46 320.05,335.82zm1.96 -1342.63c187.95,-1.32 279.96,-112.37 293.1,-295.08 -17.09,-184.01 -112.37,-291.81 -299.68,-289.17 -186.64,2.63 -290.49,109.76 -289.17,295.73 2.66,185.99 110.43,289.84 295.76,288.53zm-5.27 -2697.11c158.37,-19.72 266.17,-105.81 271.41,-266.17 5.27,-161 -95.95,-259.59 -254.99,-279.31 -143.27,-17.74 -295.08,129.46 -285.22,274.04 11.2,161.68 110.43,247.77 268.8,271.44zm-8.54 8058.46c205.69,5.91 356.19,-143.27 352.91,-348.96 -3.28,-195.85 -146.55,-335.82 -343.05,-335.17 -196.5,0.65 -338.45,141.31 -341.09,337.13 -2.61,197.15 136.04,341.73 331.22,347zm-3.28 -9405.04c159.04,7.9 245.78,-77.55 261.55,-235.94 -7.22,-157.72 -83.46,-251.04 -245.13,-253 -147.22,-1.96 -237.91,76.9 -246.45,224.76 -9.19,157.06 69.02,256.29 230.03,264.19zm6.58 8081.46c194.54,3.95 341.09,-139.32 341.73,-332.54 0.65,-194.54 -143.92,-338.45 -338.45,-335.82 -184.68,1.96 -324,137.36 -330.58,321.36 -6.56,193.87 133.43,343.05 327.3,347zm5.91 -1321.62c176.78,0.65 329.91,-150.5 330.58,-327.27 0.65,-176.78 -150.5,-329.91 -327.28,-330.58 -176.78,-0.65 -329.91,150.5 -330.58,327.28 -0.67,176.8 150.5,329.26 327.28,330.57zm1317 2641.89c197.81,0.65 339.77,-140.64 339.77,-338.45 0.65,-197.81 -140.64,-339.77 -338.45,-339.77 -197.81,-0.65 -339.77,140.64 -339.77,338.45 -0.65,197.81 140.64,339.77 338.45,339.77zm-16.42 -2644.52c173.5,9.86 337.13,-139.99 343.72,-315.45 6.58,-174.81 -145.23,-334.5 -321.36,-337.81 -165.63,-3.28 -318.73,136.69 -331.22,303.63 -13.81,173.5 132.74,339.12 308.87,349.63zm-1320.95 -8090.66c147.22,15.13 226.08,-76.9 255.64,-213.59 -9.86,-136.04 -78.22,-228.04 -210.96,-240.54 -145.9,-13.81 -239.87,72.95 -250.4,216.22 -9.86,134.72 74.27,224.74 205.71,237.91zm1342.63 9414.91c193.86,-1.96 335.17,-149.85 329.91,-345.04 -5.26,-184.67 -142.6,-320.72 -327.28,-324 -194.54,-3.95 -341.08,139.32 -341.73,333.19 -0.67,193.89 144.56,337.8 339.1,335.84zm-1302.54 -14834.11c66.37,-9.19 111.06,-61.13 101.87,-131.44 -8.55,-67.69 -56.51,-105.81 -124.87,-110.41 -69.67,14.46 -118.95,54.55 -115,124.22 3.28,79.54 57.15,128.81 138,117.64zm-3.3 1343.3c92,-6.58 132.76,-65.72 132.76,-155.76 -9.86,-90.69 -60.46,-139.32 -151.81,-137.36 -91.36,1.96 -142.6,53.23 -143.27,144.58 0.67,104.5 61.77,155.12 162.32,148.54zm-17.09 2739.16c128.15,1.96 197.82,-76.23 211.63,-204.4 -10.5,-126.18 -78.22,-206.36 -206.36,-207.67 -128.14,-1.32 -207,75.58 -208.32,203.72 -1.99,127.52 74.91,206.39 203.06,208.35zm6644.87 2649.79c132.09,-7.23 202.41,-99.9 214.9,-231.99 -24.96,-130.13 -97.91,-218.85 -232.64,-216.22 -132.76,2.63 -221.46,89.37 -220.81,222.13 -0.03,143.94 93.96,233.98 238.55,226.08zm-6646.83 -4035.14c109.09,4.59 179.41,-62.44 187.95,-168.91 9.86,-120.91 -63.73,-184.67 -190.59,-206.36 -92.67,16.42 -170.86,65.72 -177.44,174.81 -7.87,120.27 61.13,195.18 180.08,200.45zm5310.09 12117.93c164.31,3.28 318.08,-144.59 321.36,-309.54 3.95,-164.31 -144.59,-318.09 -309.54,-321.37 -164.31,-3.28 -318.09,144.59 -321.36,309.54 -3.93,163.63 144.58,317.44 309.54,321.36zm11.18 -8069.64c141.31,-23.67 232.64,-100.55 226.08,-248.41 -5.91,-133.41 -90.69,-218.18 -225.41,-220.17 -145.9,-1.96 -236.59,85.44 -237.23,231.32 -1.34,147.24 93.96,220.84 236.56,237.26zm-7.23 1373.53c157.08,-10.51 247.76,-90.04 246.45,-251.04 -1.31,-147.87 -82.81,-234.63 -230.68,-240.54 -157.72,-5.91 -253.68,74.91 -258.27,235.94 -4.59,160.36 84.13,243.17 242.5,255.64zm10.51 -2712.88c134.08,-6.58 216.22,-97.27 204.39,-233.95 -11.18,-123.55 -97.91,-187.96 -218.85,-197.81 -126.18,21.04 -208.99,91.35 -208.99,215.55 1.34,135.4 88.07,222.8 223.45,216.22zm-22.33 6704.66c176.78,-9.19 283.91,-92 300.99,-268.78 15.78,-169.55 -108.44,-304.27 -276.68,-309.54 -170.87,-5.26 -301.64,119.6 -297.72,289.82 4.59,177.45 105.81,266.81 273.4,288.5zm11.18 1372.21c182.69,-12.49 293.77,-105.81 298.36,-291.8 3.95,-184 -96.6,-291.81 -281.94,-304.94 -179.41,-13.14 -317.41,120.91 -310.85,300.32 6.58,186.02 111.72,281.32 294.44,296.43zm22.33 -2693.16c151.81,-32.19 265.5,-118.31 258.94,-293.77 -6.58,-171.54 -114.36,-275.36 -286.54,-270.09 -171.54,5.26 -274.72,113.69 -270.09,285.87 3.93,173.5 116.96,259.59 297.69,278zm-6680.34 -10806.84c63.09,-7.23 90.69,-48.63 89.37,-111.05 -7.9,-62.44 -42.05,-96.6 -105.81,-94.64 -77.55,3.28 -108.45,51.91 -99.23,122.23 7.9,63.74 55.22,90.04 115.67,83.46zm6641.57 9475.37c143.27,21.04 297.05,-122.23 290.49,-268.78 -7.9,-162.32 -105.81,-250.4 -264.85,-276.68 -158.37,16.42 -266.81,101.22 -275.36,260.91 -9.19,161.68 91.36,261.55 249.73,284.56zm1315.7 -22.33c155.76,10.5 256.96,-68.36 268.13,-228.72 10.51,-156.41 -70.32,-249.08 -228.71,-270.77 -154.45,1.32 -256.96,70.99 -267.49,231.32 -10.51,155.79 67.71,257.65 228.07,268.16zm-1290.72 -8108.42c78.22,-3.95 120.27,-57.82 128.14,-136.04 -17.09,-76.23 -59.81,-130.13 -139.99,-125.54 -77.55,4.59 -129.46,57.18 -124.87,136.69 4.62,77.57 57.18,128.84 136.71,124.89zm1320.94 9447.77c160.36,-17.09 245.78,-116.99 263.54,-275.36 -24.96,-159.04 -113.04,-264.85 -274.04,-264.85 -161,0 -257.63,102.54 -271.41,262.87 -12.49,144.59 138.65,292.48 281.92,277.35zm-4016.09 -5355.44c144.59,6.58 235.94,-84.13 237.23,-229.36 1.32,-134.73 -88.05,-207.01 -217.54,-231.32 -134.08,10.5 -226.08,79.51 -237.91,211.63 -11.8,145.87 74.94,241.83 218.21,249.06zm4012.14 6678.38c173.5,-3.95 259.59,-116.32 278,-285.87 -26.95,-166.91 -117.64,-276.68 -291.13,-271.41 -171.54,5.26 -276.03,113.04 -271.41,285.22 3.93,172.16 112.37,275.98 284.55,272.06zm-3.28 2691.17c170.22,3.95 292.45,-128.14 287.19,-299.04 -4.59,-167.59 -137.35,-293.09 -306.26,-280.63 -174.14,13.14 -274.04,113.04 -274.04,287.85 0.67,186.02 106.48,287.88 293.12,291.81zm-13.14 -1320.28c166.92,5.26 299.03,-120.91 294.41,-287.85 -5.27,-175.46 -106.46,-263.54 -271.41,-286.54 -174.14,10.5 -280.63,93.32 -297.72,267.49 -16.42,165.6 109.76,301.64 274.72,306.91zm3.93 -5356.11c146.55,-9.86 239.22,-80.83 242.5,-231.32 3.95,-160.36 -84.13,-250.4 -244.49,-247.77 -148.54,2.63 -230.68,90.69 -230.68,238.55 0.7,150.5 88.1,226.08 232.67,240.54zm-2684.61 2675.42c166.91,11.18 297.04,-118.3 296.4,-316.77 -13.81,-138 -99.9,-241.85 -274.72,-252.36 -166.91,-10.51 -300.32,118.95 -295.08,285.22 5.27,173.5 100.57,272.08 273.4,283.91zm0 2713.56c172.18,6.58 333.85,-153.13 329.91,-325.31 -3.95,-164.95 -155.76,-312.82 -319.4,-312.17 -164.31,0.65 -314.8,149.18 -318.08,313.49 -3.28,163.64 142.62,317.41 307.58,324zm19.05 -1384.71c185.99,-9.19 279.31,-116.32 291.8,-299.03 -15.13,-182.69 -109.76,-292.45 -295.73,-294.41 -184.68,-1.96 -289.82,101.22 -301,286.54 -10.53,179.41 125.51,315.45 304.92,306.91zm-1320.95 -12133.7c63.09,-1.32 95.95,-37.46 100.55,-101.22 -1.31,-61.77 -32.86,-99.23 -95.28,-103.82 -61.78,-4.59 -105.14,25.63 -110.41,88.72 -5.91,71.63 28.27,117.63 105.14,116.32zm1305.85 -7.9c63.74,4.6 97.91,-29.58 103.82,-95.28 -3.95,-61.13 -35.49,-96.6 -99.9,-95.28 -51.91,1.31 -86.09,29.58 -91.36,82.14 -5.89,61.77 22.38,103.82 87.43,108.42zm-1324.9 4100.22c127.5,9.19 201.77,-61.13 218.85,-191.24 -5.91,-125.53 -68.35,-205.04 -198.46,-208.32 -116.99,-3.28 -193.22,61.13 -203.08,178.76 -11.85,127.47 53.88,210.93 182.69,220.79zm7.23 -1383.39c118.31,3.95 191.91,-70.31 187.96,-188.62 -3.28,-107.13 -77.55,-162.99 -182.69,-175.46 -104.5,17.09 -176.13,74.27 -177.45,182.04 -1.31,107.13 66.37,178.76 172.18,182.04zm20.37 -1349.21c92,-4.59 134.08,-62.44 136.69,-161 -9.86,-80.82 -56.51,-133.41 -148.54,-132.76 -91.35,0.65 -144.59,49.95 -146.55,141.31 -1.96,103.82 56.53,157.06 158.4,152.46zm1305.17 13480.28c172.18,-0.65 327.94,-159.69 324,-331.22 -3.95,-171.54 -167.59,-332.54 -337.14,-316.09 -185.99,18.41 -297.04,130.13 -310.19,317.41 -12.49,171.54 151.81,330.57 323.33,329.91zm0.67 -12129.75c92.67,-17.74 170.87,-67.04 174.15,-178.09 3.28,-98.58 -60.46,-165.62 -155.09,-177.45 -110.41,-13.81 -184,54.55 -195.18,159.04 -11.18,109.74 61.13,170.87 176.13,196.5zm17.09 1381.4c117.63,-8.54 183.36,-84.13 181.4,-201.09 -1.96,-130.13 -80.18,-193.87 -210.96,-201.76 -123.55,17.09 -197.17,87.41 -188.63,216.22 7.87,130.13 90.69,196.5 218.19,186.64zm-19.08 -2734.56c91.36,-7.23 143.92,-54.55 142.6,-148.54 -1.31,-81.5 -47.96,-131.45 -128.81,-136.69 -92,-5.91 -149.85,40.74 -154.45,134.72 -4.57,93.32 47.34,141.95 140.66,150.5zm13.17 5405.39c149.85,-5.27 220.81,-97.91 228.72,-245.78 -15.78,-143.91 -92,-230.68 -241.85,-229.36 -148.54,1.31 -235.27,84.13 -236.59,232.64 -1.99,161 90.02,247.77 249.73,242.5zm-27.62 1384.04c162.99,7.9 255,-93.99 278,-254.99 -15.77,-151.81 -97.91,-255 -248.41,-262.22 -162.99,-7.9 -269.45,92.67 -273.4,255 -3.93,152.48 93.99,254.99 243.81,262.22zm7.23 1332.8c174.15,5.91 264.86,-104.5 289.82,-273.4 -22.35,-168.23 -111.72,-278.64 -285.87,-277.33 -161.01,1.32 -264.86,102.54 -271.41,262.22 -7.23,172.18 95.95,282.59 267.46,288.5zm11.85 -4046.32c132.76,-0.65 218.85,-89.37 220.17,-222.78 1.31,-134.72 -87.41,-207.01 -218.18,-230.68 -132.09,13.81 -224.77,84.77 -230.68,216.87 -5.94,143.91 84.75,237.23 228.69,236.59zm1341.31 -2735.88c107.77,11.18 168.9,-55.86 189.91,-161.67 -7.9,-95.95 -59.81,-163.64 -153.78,-173.5 -107.78,-10.5 -178.76,55.22 -186.64,161 -7.23,96.63 56.54,164.31 150.5,174.17zm30.23 14178.87c-161.68,-7.23 -320.05,136.04 -331.22,300.33 -11.82,170.22 145.23,336.49 318.08,337.13 164.31,0.65 315.45,-147.22 319.4,-312.17 3.95,-162.3 -141.95,-317.39 -306.26,-325.29zm1295.98 16156.37c-44.69,5.91 -86.76,29.58 -88.05,95.95 -1.31,52.58 26.28,88.72 76.9,95.95 59.81,8.54 106.46,-15.78 113.69,-81.5 6.56,-61.13 -23,-100.55 -102.54,-110.41zm-3.95 -16908.19c184.68,5.91 296.4,-93.99 303.63,-280.63 6.58,-185.99 -97.27,-286.54 -290.49,-308.87 -170.87,12.49 -289.17,96.59 -293.77,285.87 -5.24,184.68 93.99,297.05 280.63,303.63zm-1297.28 -611.18c-162.99,-3.95 -318.08,141.31 -325.96,306.26 -8.54,171.54 151.15,334.5 323.35,331.87 164.95,-2.63 313.49,-153.13 314.13,-317.41 0.62,-164.31 -147.24,-316.12 -311.53,-320.72zm1321.59 1978.13c182.69,-21.04 286.54,-121.58 279.31,-307.57 -7.23,-186.64 -118.95,-286.54 -303.63,-280.63 -186.64,6.58 -286.54,118.31 -280.63,303.63 5.94,187.98 120.94,276.03 304.94,284.57zm-15.77 14186.12c-78.87,0 -130.13,49.95 -134.08,128.14 -4.59,91.35 51.27,137.36 138,148.54 79.51,-10.51 132.76,-51.91 135.37,-131.45 3.97,-90.69 -48.59,-145.23 -139.3,-145.23zm11.18 -2733.92c-116.99,7.9 -191.91,65.72 -195.85,184.68 -3.95,118.3 63.09,190.59 180.72,194.54 117.64,4.59 189.92,-63.09 195.19,-180.73 4.62,-118.95 -66.37,-181.39 -180.06,-198.48zm-9.19 1336.07c-96.6,12.49 -162.99,66.37 -166.91,161.67 -4.6,107.78 63.09,178.76 170.22,177.45 107.13,-1.32 173.5,-73.6 166.27,-181.4 -6.61,-93.99 -73.62,-147.22 -169.57,-157.72zm-1305.2 -6728.98c-161,-8.54 -269.45,92.67 -281.94,251.04 -13.81,173.5 95.28,268.13 270.77,301.64 148.54,-19.72 262.87,-97.91 273.4,-258.94 11.85,-172.83 -92,-284.56 -262.22,-293.74zm-9.19 4037.13c-122.23,17.74 -216.22,83.46 -225.41,216.87 -9.19,134.73 74.27,226.73 205.04,237.24 144.59,11.82 239.22,-76.9 243.82,-220.81 4.59,-134.06 -86.09,-207.01 -223.45,-233.29zm5.26 -9391.9c-164.31,-3.28 -318.08,144.58 -321.36,309.54 -3.95,164.31 144.59,318.08 309.54,321.36 164.31,3.28 318.08,-144.59 321.36,-309.54 3.93,-163.64 -144.59,-317.44 -309.54,-321.36zm-4.62 8068.97c-161.68,0.65 -246.45,94.64 -238.55,253.68 7.23,149.85 101.86,218.85 269.45,225.41 118.31,-23.67 210.31,-94.64 205.69,-246.45 -4.59,-147.87 -88.05,-233.29 -236.59,-232.64zm1308.48 1335.41c-121.59,19.05 -206.36,87.41 -208.32,211.62 -1.96,136.04 83.46,223.45 218.85,220.82 134.72,-3.28 218.18,-94.64 208.99,-230.01 -7.25,-122.9 -93.34,-190.59 -219.52,-202.43zm-1291.39 -8081.47c-162.99,-19.72 -322.03,129.46 -329.91,295.73 -7.9,164.95 137.36,320.04 304.27,324 165.63,4.59 324.64,-143.92 316.77,-309.54 -8.54,-180.06 -113.02,-288.5 -291.13,-310.19zm2.63 2706.33c-164.31,-18.41 -305.59,113.04 -302.96,277.99 2.63,176.13 104.5,264.85 270.09,289.82 173.5,-12.49 284.55,-96.6 293.1,-271.41 7.9,-172.85 -88.06,-277.35 -260.24,-296.4zm-2.63 -1370.9c-168.9,-14.46 -302.96,109.76 -309.54,277.32 -6.58,169.55 115.67,300.33 283.91,303.63 170.22,3.28 300.33,-120.27 297.05,-289.82 -3.28,-175.48 -97.24,-276.03 -271.41,-291.13zm-19.05 4026.6c-151.81,-1.96 -253.01,97.27 -258.27,247.77 -5.91,163.63 97.91,253 256.96,274.04 153.78,-17.74 255.64,-101.22 260.26,-252.36 5.24,-162.99 -95.95,-267.49 -258.94,-269.45zm2628.75 2737.85c-130.13,1.96 -192.55,82.14 -199.13,207.67 16.42,130.13 90.69,199.78 218.18,191.91 116.99,-7.23 185.32,-80.83 184.68,-197.81 0,-128.81 -74.24,-203.73 -203.73,-201.76zm4.62 2683.97c-89.37,4.59 -143.92,49.28 -147.22,141.31 -3.28,90.04 42.05,147.86 134.08,153.13 101.87,5.91 160.36,-46.67 159.04,-150.5 -0.67,-92.02 -54.57,-138.03 -145.9,-143.94zm2.61 -4025.28c-132.09,19.05 -222.13,90.69 -222.78,226.73 -0.65,124.86 82.81,209.64 204.4,217.54 136.04,9.19 227.4,-76.23 234.63,-209.64 7.2,-136.07 -82.84,-210.31 -216.25,-234.63zm-1296.63 -5.27c-146.55,-13.81 -241.85,70.32 -253.68,213.59 -12.49,147.22 78.87,226.08 218.85,253.68 143.92,-12.5 238.55,-84.13 243.82,-231.32 5.26,-135.4 -76.23,-223.45 -209,-235.94zm1284.81 -1366.94c-146.55,7.23 -230.68,96.59 -225.41,243.17 5.26,146.55 95.95,230.01 242.5,225.41 147.86,-4.59 218.85,-98.58 231.32,-262.22 -27.6,-118.31 -98.56,-213.59 -248.41,-206.36zm21.04 -4033.85c-172.18,-5.91 -281.94,100.55 -284.55,272.08 -2.63,161 101.22,266.17 260.26,272.73 173.5,7.23 264.85,-103.82 291.13,-269.45 -21.06,-161 -107.15,-270.09 -266.84,-275.36zm-11.18 1376.83c-151.81,-2.63 -253.68,95.28 -259.59,245.78 -6.58,163.63 95.95,253.68 258.94,276.68 149.18,-18.41 253.01,-99.9 258.27,-251.05 5.91,-162.32 -94.63,-268.13 -257.63,-271.41zm2.63 1330.13c-147.22,-2.63 -238.55,75.59 -247.77,223.45 -9.86,156.41 67.04,256.96 228.72,265.5 158.37,8.54 246.45,-75.59 262.87,-233.96 -6.58,-157.72 -82.14,-251.69 -243.81,-255zm-1.32 5376.48c-107.13,-1.31 -178.76,65.72 -182.04,172.18 -3.95,118.31 70.32,191.91 188.63,187.96 106.46,-3.28 162.99,-77.55 175.46,-182.69 -17.09,-105.17 -74.27,-176.13 -182.04,-177.45zm9.86 2738.52c-70.99,-8.54 -122.23,36.14 -131.44,102.53 -11.83,80.83 37.46,134.08 117.63,138 70.32,3.28 109.09,-45.35 126.18,-124.22 -9.86,-55.86 -43.37,-107.78 -112.37,-116.32zm-1307.81 -6794.7c-157.72,-9.86 -256.31,69 -261.55,231.32 -5.26,159.69 81.5,249.73 243.17,250.4 149.85,0.65 226.73,-85.44 241.19,-228.04 -3.97,-149.83 -72.31,-243.82 -222.8,-253.68zm-17.09 -2667.53c-161.67,-2.63 -267.48,95.95 -278.64,255 -12.5,172.85 89.37,285.22 260.26,295.73 173.5,11.18 266.81,-98.59 298.36,-276.03 -23.03,-155.74 -105.17,-271.41 -279.98,-274.69zm-0.67 1328.17c-151.14,-2.63 -254.32,93.99 -265.5,243.17 -12.5,163.64 88.05,272.73 247.76,283.26 162.32,10.51 255,-94.63 284.56,-263.54 -21.02,-148.54 -102.51,-259.61 -266.82,-262.89zm8.54 -5339.67c-184.67,-5.91 -297.04,93.99 -303.63,280.63 -5.91,184.68 93.99,296.4 280.63,303.63 185.99,7.23 286.54,-97.27 307.58,-279.96 -8.54,-184.03 -96.62,-298.39 -284.58,-304.3zm-7.23 1320.94c-176.13,2.63 -277.32,95.95 -291.13,271.41 -13.14,169.55 113.69,301.64 314.81,304.27 140.64,-10.5 246.45,-95.95 259.59,-272.73 12.49,-170.19 -114.36,-305.59 -283.26,-302.96zm-37.46 1886.15c185.99,1.96 316.1,-118.31 315.45,-274.04 -1.31,-174.15 -94.63,-275.36 -267.49,-291.13 -164.31,-14.46 -302.96,119.6 -297.04,284.55 6.58,176.13 109.76,263.54 249.08,280.63zm-3954.96 783.36c-179.41,-9.19 -314.8,128.15 -304.27,306.91 10.51,185.99 118.95,277.99 301,289.17 184,-16.42 291.8,-112.37 292.45,-298.36 0,-184.03 -104.5,-288.52 -289.17,-297.72zm22.36 -2707.61c-172.85,-17.74 -341.73,125.54 -355.54,301.64 -13.81,173.5 132.09,339.77 307.58,350.28 173.5,10.5 337.13,-138.68 345.04,-314.13 6.53,-165.6 -130.16,-320.69 -297.07,-337.78zm-34.18 1322.91c-164.31,2.63 -313.49,153.13 -314.8,317.41 -1.32,172.85 163.64,330.58 334.5,320.72 163.64,-9.86 308.87,-166.92 302.96,-329.26 -5.24,-164.93 -159.02,-311.48 -322.66,-308.87zm5312.72 -722.24c172.18,0 279.96,-105.14 279.31,-277.32 -0.65,-173.5 -113.69,-260.91 -283.26,-279.96 -167.59,28.91 -276.04,121.59 -268.13,295.08 7.23,160.33 110.41,262.2 272.08,262.2zm-5294.99 3434.47c-166.27,-7.23 -297.72,117.63 -299.03,283.91 -0.65,166.91 128.81,295.73 295.73,286.54 174.81,-9.86 260.91,-113.69 275.36,-251.72 1.34,-189.27 -114.98,-312.17 -272.06,-318.73zm-28.91 -8040.06c-183.36,7.9 -318.08,147.86 -318.73,333.19 -0.65,194.54 144.59,338.45 339.12,335.82 193.87,-1.96 335.17,-149.85 329.91,-344.36 -5.26,-193.22 -155.76,-332.54 -350.3,-324.64zm36.81 9369.55c-172.85,-11.82 -284.55,92 -293.77,262.22 -8.54,161 92.67,269.45 251.05,281.94 173.5,13.81 267.49,-95.28 301.64,-270.76 -19.05,-147.87 -97.27,-262.22 -258.92,-273.4zm-21.04 -6687.57c-193.22,0 -338.45,149.85 -332.54,343.72 5.91,183.36 147.87,320.72 332.54,320.72 193.22,0 338.45,-149.85 332.54,-343.72 -5.91,-184.03 -147.87,-320.72 -332.54,-320.72zm-10.51 -1365.63c-193.22,5.26 -332.54,156.41 -324,350.94 7.9,183.36 148.54,317.41 333.19,318.08 194.54,0.65 337.81,-144.58 335.82,-339.12 -2.63,-193.87 -150.5,-335.17 -345.01,-329.91zm-2.63 12102.15c-128.14,28.91 -214.23,103.18 -199.78,241.18 13.14,122.9 99.9,201.09 224.09,191.91 133.41,-9.86 215.55,-99.23 202.41,-236.59 -13.14,-123.55 -100.55,-186.64 -226.73,-196.5zm7.23 4083.78c-77.55,4.59 -129.46,57.18 -124.86,136.69 4.59,77.55 57.18,128.81 136.69,124.86 78.22,-3.95 120.27,-57.82 128.14,-136.04 -17.09,-76.88 -59.78,-130.78 -139.96,-125.51zm-1303.21 -16193.83c-197.17,-3.28 -342.4,134.08 -348.96,329.26 -6.58,197.17 129.46,345.68 323.35,354.89 205.69,9.86 360.13,-136.69 360.81,-341.08 0.62,-195.85 -140.02,-339.12 -335.2,-343.07zm1293.35 14840.02c-93.99,7.9 -147.22,75.58 -155.76,172.18 19.05,105.81 80.18,172.85 187.96,163.64 93.32,-8.54 157.72,-75.58 152.46,-172.85 -6.56,-105.79 -77.52,-171.51 -184.65,-162.97zm1343.3 -15484.71c176.13,-5.91 324,-164.31 318.08,-340.42 -5.91,-176.13 -164.31,-323.99 -340.41,-318.08 -176.13,5.91 -324,164.31 -318.08,340.41 5.89,176.78 164.28,324 340.41,318.09zm-1332.13 14101.96c-118.31,3.28 -185.99,74.27 -183.36,192.55 2.63,117.64 74.27,185.99 192.55,183.36 118.95,-2.63 177.44,-76.23 187.31,-193.22 -15.77,-114.98 -77.55,-186.61 -196.5,-182.69zm-23.67 -2684.61c-118.31,28.26 -213.59,98.58 -206.36,248.41 7.23,146.55 96.6,230.68 243.17,225.41 146.55,-5.27 230,-95.95 225.41,-242.5 -4.59,-147.87 -98.58,-218.83 -262.22,-231.32zm-14590.27 -1271c-89.37,4.59 -143.91,49.28 -147.22,141.31 -3.28,90.04 42.05,147.87 134.08,153.13 101.86,5.91 160.36,-46.67 159.04,-150.5 -0.67,-92.03 -54.57,-138.7 -145.91,-143.94zm17306.43 6719.76c-62.44,-4.6 -105.15,25.63 -110.41,88.72 -5.91,72.28 28.27,117.64 105.81,116.32 63.09,-1.32 95.95,-37.46 100.55,-101.22 -1.96,-61.75 -33.51,-99.23 -95.95,-103.82zm-1362.35 -13521.04c-161.67,-5.27 -318.08,136.69 -330.58,301 -13.14,169.55 139.32,337.13 312.17,342.4 161.67,5.26 318.08,-136.69 330.58,-301 12.49,-170.2 -139.32,-337.14 -312.17,-342.4zm-10.51 2709.6c-169.55,0.65 -297.04,128.14 -288.5,298.36 8.54,174.81 105.14,272.73 279.96,283.26 170.22,9.86 299.03,-116.32 301.64,-285.22 1.31,-170.87 -122.88,-297.05 -293.1,-296.4zm-3.95 -5349.53c-176.78,2.63 -326.63,157.72 -324,333.85 2.63,176.78 157.73,326.63 333.86,324 176.78,-2.63 326.63,-157.72 324,-333.85 -2.63,-176.78 -157.06,-326.61 -333.86,-324zm-3.28 3966.14c-166.27,5.26 -318.08,161.67 -300.99,325.31 19.05,178.09 126.18,283.91 306.26,295.08 165.62,10.51 316.1,-145.9 314.13,-312.17 -1.31,-165.6 -153.8,-312.81 -319.4,-308.22zm6.58 -2647.8c-176.13,0.65 -329.26,158.37 -325.31,333.85 3.95,166.27 149.85,313.49 316.1,319.4 174.81,5.91 334.5,-146.55 336.49,-322.04 3.28,-175.48 -151.81,-331.89 -327.28,-331.22zm1351.82 10750.31c-129.46,7.9 -195.85,90.69 -186.64,218.18 8.54,117.64 83.46,183.36 201.09,181.4 130.13,-1.96 193.87,-80.18 201.76,-210.96 -16.42,-122.9 -86.74,-197.17 -216.22,-188.62zm5.91 1336.07c-105.81,2.63 -173.5,74.27 -172.85,181.4 0.65,107.78 71.63,164.95 176.13,182.69 105.81,-11.82 179.41,-67.69 184,-174.15 3.98,-118.31 -68.98,-192.57 -187.28,-189.94zm-0.65 1401.13c-81.5,3.95 -130.78,49.95 -134.08,132.09 -4.59,92.67 44.04,149.18 137.36,151.81 93.99,2.63 141.31,-51.27 148.54,-153.78 -11.18,-79.53 -56.53,-134.72 -151.81,-130.13zm-1366.94 -2743.11c-127.5,7.23 -201.09,90.04 -194.54,217.54 6.58,128.14 90.69,191.9 213.59,197.17 132.09,-18.41 205.69,-93.32 198.46,-220.82 -6.56,-127.52 -90.02,-201.12 -217.51,-193.89zm19.05 4080.5c-70.99,-5.27 -120.92,41.41 -126.83,107.78 -7.23,80.18 42.72,133.41 124.22,132.76 69,-0.65 108.44,-49.28 119.6,-126.83 -12.49,-58.52 -47.32,-109.12 -116.99,-113.71zm-2.63 -2748.37c-99.23,10.5 -176.78,59.81 -187.96,167.59 -12.49,119.59 53.9,196.5 172.85,207 109.09,9.19 181.4,-55.86 193.87,-161.68 14.46,-121.56 -57.85,-187.28 -178.76,-212.91zm-3.95 -6716.48c-172.18,-0.65 -278,105.14 -279.31,277.32 -1.96,174.14 109.09,262.22 288.5,287.19 153.13,-26.95 268.78,-109.76 268.13,-285.22 -0.65,-172.16 -105.14,-277.97 -277.32,-279.28zm19.72 8117.6c-99.9,-9.19 -167.59,37.46 -172.85,143.27 -4.6,102.54 51.26,161.67 155.09,161.67 91.36,0 141.95,-51.91 151.81,-153.13 -1.96,-80.82 -42.05,-143.27 -134.06,-151.81zm-26.28 -6794.02c-161.67,13.14 -247.09,112.37 -268.78,271.41 21.69,158.37 107.78,265.5 268.78,268.78 161,3.28 258.94,-98.58 276.68,-257.63 15.78,-143.89 -132.09,-294.39 -276.68,-282.56zm3.95 2713.53c-141.95,21.68 -233.95,97.27 -230,244.48 3.95,134.08 88.05,219.5 222.13,223.45 145.91,4.59 237.24,-82.14 240.54,-227.4 3.93,-147.19 -90.71,-222.13 -232.67,-240.54zm-11.85 -1370.9c-147.87,7.23 -230.01,92.67 -231.32,240.54 -0.65,159.69 86.09,249.08 246.45,248.41 161,-0.65 238.55,-94.63 246.45,-262.87 -18.41,-145.23 -100.55,-233.96 -261.57,-226.08zm11989.14 -11546.83c90.04,0.65 149.18,-40.09 157.08,-132.09 7.9,-88.05 -32.19,-151.81 -124.86,-161.67 -99.23,-10.51 -164.31,35.49 -168.24,141.31 -3.3,90.69 45.31,141.95 136.02,152.46zm-1295.98 1352.52c107.78,-3.95 174.81,-73.6 175.46,-181.4 0,-120.91 -76.23,-180.08 -192.55,-191.23 -106.46,19.05 -177.44,76.9 -176.13,185.99 0,119.6 73.6,190.56 193.22,186.64zm-1374.85 972.63c-128.14,1.96 -205.04,80.82 -203.73,208.32 1.32,128.14 80.83,205.04 209,203.72 128.14,-1.31 195.85,-80.82 206.36,-207.68 -13.81,-128.14 -83.48,-206.33 -211.63,-204.37zm1382.07 9410.96c-71.63,-7.23 -118.31,25.63 -118.95,102.53 -0.65,63.09 34.82,98.59 97.91,102.54 63.09,3.28 99.23,-29.58 108.44,-92 1.32,-61.8 -23.67,-106.48 -87.41,-113.06zm-1382.07 -8094.61c-128.14,1.96 -205.04,80.82 -203.73,208.99 1.32,128.14 80.83,205.04 209,203.73 128.14,-1.32 195.85,-81.5 206.36,-207.68 -13.81,-129.46 -83.48,-207.01 -211.63,-205.04zm1368.26 4048.95c-91.36,-2.63 -149.18,46.67 -155.09,138 -6.58,101.87 45.36,159.69 161.68,169.55 76.23,-7.23 137.36,-47.32 142.6,-140.64 6.58,-101.86 -44.02,-164.28 -149.18,-166.92zm2.63 2654.39c-79.51,-4.59 -132.09,47.32 -136.04,124.87 -4.59,80.18 49.28,122.9 126.18,139.99 77.55,-8.54 131.44,-49.95 135.37,-128.14 3.95,-80.18 -47.29,-132.76 -125.51,-136.71zm-1366.95 -5381.72c-129.46,0.65 -203.72,75.58 -201.76,204.4 1.96,130.13 82.81,192.55 208.32,198.46 130.13,-17.09 199.13,-90.69 191.23,-218.85 -6.56,-116.32 -80.15,-184.68 -197.79,-184zm1351.18 4052.23c-92.67,13.14 -138.68,68.35 -130.78,159.69 7.22,80.83 58.49,126.83 139.99,125.54 93.32,-0.65 145.23,-53.23 143.27,-146.55 -3.3,-93.99 -60.48,-136.71 -152.48,-138.67zm5.26 -2710.92c-108.44,5.91 -164.31,78.86 -174.14,184.68 24.96,105.14 86.76,178.09 195.85,164.95 103.83,-12.49 172.18,-86.09 157.08,-196.5 -13.19,-94.63 -80.87,-158.37 -178.79,-153.13zm-1347.25 5394.89c-82.14,1.96 -136.69,43.37 -146.55,119.6 -11.82,89.37 37.46,148.54 127.5,156.41 80.18,7.23 133.41,-40.74 143.92,-116.99 12.49,-90.69 -40.09,-141.28 -124.86,-159.02zm5.26 1334.76c-69.67,-11.18 -122.23,32.19 -134.08,99.23 -14.46,82.14 34.82,134.72 113.69,141.31 70.32,5.91 110.41,-43.37 127.5,-111.72 -1.96,-69.67 -41.38,-118.31 -107.11,-128.81zm-5319.3 -9468.81c-174.15,1.32 -275.36,95.28 -289.82,268.13 -13.81,164.31 120.27,302.96 285.22,296.4 176.13,-7.23 262.87,-110.41 279.96,-249.73 0.67,-186.66 -119.6,-316.12 -275.36,-314.81zm5312.07 2723.39c-130.13,-3.95 -203.08,69.67 -199.78,199.78 3.28,118.95 77.54,177.44 193.87,185.99 116.99,-11.83 187.31,-72.28 188.62,-191.91 1.29,-118.28 -64.43,-190.56 -182.71,-193.87zm11.18 4034.5c-99.9,-9.19 -167.59,38.13 -172.18,143.27 -4.59,103.18 51.91,161 155.09,161 91.35,-0.65 141.95,-52.58 151.81,-154.44 -2.63,-78.87 -42.72,-141.28 -134.72,-149.83zm-5.94 -2664.25c-119.6,-7.23 -194.54,62.44 -198.46,182.04 -3.95,109.09 63.74,178.76 170.22,186.64 120.91,8.54 184,-65.06 202.41,-179.41 -10.51,-110.41 -67.04,-182.72 -174.17,-189.27zm-14.46 1324.89c-98.58,-0.65 -164.95,64.41 -174.14,158.37 -10.51,109.09 57.82,183.36 163.64,191.23 109.09,8.54 169.55,-63.74 191.9,-178.76 -19.72,-93.3 -70.99,-170.2 -181.4,-170.84zm3988.5 -7695.05c70.99,5.91 120.91,-41.41 126.83,-107.78 7.22,-80.18 -42.72,-133.41 -123.55,-132.76 -69,0.65 -108.44,49.28 -118.95,118.95 8.54,69.67 47.31,116.34 115.67,121.59zm-1295.98 -267.46c-89.37,-5.91 -150.5,36.81 -159.04,128.14 -8.54,99.9 39.44,162.99 144.59,164.95 91.36,1.32 140.64,-48.63 150.5,-152.46 -4.59,-74.91 -42.72,-134.72 -136.04,-140.64zm1301.89 1629.81c70.32,3.28 109.09,-45.35 124.22,-115 -3.95,-69 -43.37,-116.99 -110.41,-125.54 -70.32,-9.19 -122.23,36.14 -131.44,102.54 -11.18,80.85 37.46,134.08 117.63,138zm-5309.44 968.71c-134.08,-2.63 -222.13,83.46 -228.72,215.55 -7.9,146.55 85.44,222.78 235.94,247.76 118.95,-23 214.9,-88.05 219.5,-222.78 5.94,-145.91 -81.47,-237.91 -226.72,-240.54zm3997.04 80.83c-104.5,0 -155.09,61.13 -148.54,161.67 5.91,92 65.72,132.76 164.95,132.76 79.51,-11.18 130.78,-59.81 128.15,-151.81 -2.61,-90.69 -53.2,-141.95 -144.56,-142.62zm7.23 -1316.35c-90.04,-4.59 -149.18,40.09 -155.76,131.45 -7.23,100.55 44.04,161.67 148.54,161.67 91.36,0 139.32,-51.91 145.9,-144.59 -3.3,-88.07 -46.67,-143.27 -138.67,-148.54zm1318.98 2676.74c-61.13,-5.27 -107.13,21.04 -114.36,84.77 -7.9,70.99 23.67,118.95 101.22,120.92 63.09,1.31 97.91,-33.51 105.81,-107.13 -2.63,-50.57 -28.27,-92.65 -92.67,-98.56zm-114.36 -1231.58c-7.9,70.99 23.67,118.95 101.22,120.92 63.09,1.31 97.91,-33.51 104.5,-95.95 1.31,-63.09 -27.6,-103.18 -91.36,-109.09 -60.46,-6.56 -107.13,20.39 -114.36,84.13zm98.59 2555.16c-51.91,1.31 -86.09,29.58 -91.36,82.14 -5.91,61.77 22.35,103.82 87.41,108.44 63.74,4.59 97.91,-29.58 103.82,-95.28 -3.92,-61.78 -35.47,-97.27 -99.87,-95.31zm-1320.95 -41.41c-78.22,3.28 -128.14,54.54 -128.81,133.41 -0.65,91.36 55.86,136.04 143.27,143.27 78.86,-13.81 130.13,-57.18 130.13,-136.69 0.65,-90.69 -54.57,-143.91 -144.59,-139.99zm-1288.75 -3995.7c-118.95,-11.18 -195.85,56.51 -203.73,176.13 -7.23,109.09 59.14,180.73 164.95,191.23 120.27,12.5 185.99,-60.46 207.68,-172.85 -6.58,-111.06 -61.8,-184.65 -168.9,-194.51zm-13317.31 1163.22c-195.19,-1.96 -339.13,138 -341.09,332.54 -1.96,195.18 138,339.12 332.54,341.09 195.19,1.96 339.12,-138 341.09,-332.54 1.96,-195.18 -138,-339.12 -332.54,-341.08zm14630.36 1511.53c-91.36,-9.19 -146.55,38.13 -159.69,130.78 1.96,92 44.69,148.54 138.67,152.46 81.5,3.28 135.37,-39.44 145.23,-120.27 11.82,-90.02 -30.87,-153.11 -124.22,-162.97zm-1315.68 -38.77c-107.78,-11.18 -182.69,53.9 -195.18,157.72 -14.46,118.95 56.51,195.19 173.5,201.76 107.78,5.91 166.92,-65.72 189.27,-168.9 -6.58,-107.13 -62.44,-179.41 -167.59,-190.59zm1310.44 4072.6c-61.13,-4.6 -106.46,22.35 -113.04,86.09 -7.23,71.63 25.63,118.3 102.54,118.95 63.74,0.65 96.6,-35.5 104.5,-111.06 -3.3,-46.67 -30.26,-88.72 -93.99,-93.99zm-1343.94 -5029.46c118.31,10.51 193.87,-61.13 197.17,-179.41 2.63,-107.78 -69.67,-165.62 -174.15,-184 -105.81,10.51 -178.09,66.37 -185.99,172.85 -8.57,107.75 59.12,181.35 162.97,190.56zm1327.5 3685.52c-77.55,4.59 -128.81,56.51 -124.87,136.04 3.95,78.22 57.83,120.27 136.04,128.14 76.9,-17.09 130.13,-59.81 125.54,-139.99 -5.27,-76.87 -57.18,-128.14 -136.71,-124.19zm-3985.84 -5412.62c-145.9,0 -235.94,87.41 -235.27,233.31 0.65,147.22 95.95,220.17 239.87,234.63 140.64,-25.63 231.32,-103.18 222.78,-250.4 -7.23,-132.76 -92.65,-216.87 -227.37,-217.54zm-2691.87 3931.96c-159.69,4.59 -244.48,99.23 -239.87,256.31 4.59,159.69 98.59,243.81 256.31,240.54 160.36,-3.95 236.59,-100.55 243.17,-255.64 -15.13,-159.04 -101.22,-245.81 -259.61,-241.21zm-0.65 -1331.45c-150.5,4.59 -251.04,104.5 -254.32,254.99 -3.28,162.32 99.23,269.45 260.91,271.41 162.99,1.96 250.4,-105.81 272.08,-269.45 -26.97,-155.09 -114.38,-261.55 -278.67,-256.95zm-0.67 2702.35c-148.54,3.95 -230.68,90.69 -231.32,239.22 0,162.32 93.32,238.55 251.04,245.78 146.55,-15.77 232,-92.67 230.68,-242.5 -0.67,-161.65 -90.69,-247.09 -250.4,-242.5zm1359.74 6726.37c-81.5,5.91 -127.5,55.86 -128.81,137.36 -1.31,93.32 49.95,146.55 143.27,145.91 93.99,-0.65 138.67,-57.18 141.95,-149.18 -11.18,-92.03 -63.76,-140.67 -156.41,-134.08zm19.7 1355.13c-63.09,-3.95 -103.83,26.95 -108.44,90.69 -5.27,72.95 30.23,117.64 107.13,115 63.09,-1.96 95.95,-38.77 98.58,-102.54 -2.63,-62.42 -33.51,-99.23 -97.27,-103.15zm-1368.91 -12105.46c-161,0 -257.63,102.54 -271.41,262.87 -12.49,144.59 138.68,292.45 281.94,277.33 160.36,-17.09 245.13,-116.99 263.54,-275.36 -25.01,-159.02 -113.07,-264.83 -274.07,-264.83zm-8.54 6673.11c-132.09,3.28 -217.54,92.67 -216.22,226.08 1.31,134.08 90.69,205.69 228.71,228.72 120.91,-21.04 216.87,-87.41 220.17,-221.46 2.61,-144.61 -88.07,-237.28 -232.66,-233.33zm62.42 -7991.43c-161.67,5.27 -259.59,99.23 -278.64,258.28 -17.09,143.27 130.78,295.08 275.36,283.91 161.68,-11.82 247.77,-111.06 268.78,-256.96 0.67,-149.85 -128.14,-289.84 -265.5,-285.22zm-50.59 6667.18c-135.37,-3.95 -223.45,78.22 -235.27,210.31 -13.14,145.91 70.99,241.19 214.9,252.36 147.22,11.82 225.41,-80.18 252.36,-220.17 -12.49,-143.92 -84.78,-237.88 -231.99,-242.5zm-1320.3 -8040.06c-173.5,1.31 -272.08,101.86 -281.94,275.36 -9.19,164.95 128.81,299.68 293.77,287.85 174.81,-12.49 259.59,-118.31 274.71,-289.82 -23,-167.59 -110.41,-274.72 -286.54,-273.4zm1317.67 16167.55c-52.58,-1.32 -88.72,26.28 -95.95,76.9 -8.54,59.81 15.77,106.46 81.5,113.69 61.78,6.58 101.22,-23 111.06,-101.86 -6.56,-45.36 -30.23,-87.41 -96.6,-88.72zm-1331.45 -14241.31c164.31,13.81 302.96,-120.27 295.73,-285.87 -7.23,-175.46 -110.41,-262.87 -249.73,-279.31 -185.99,-1.31 -316.09,118.95 -314.13,275.36 1.29,173.47 95.28,274.69 268.13,289.82zm1322.91 8824.74c-117.64,2.63 -188.63,72.28 -193.22,189.92 -4.59,128.14 66.37,207.68 195.85,210.31 129.46,2.63 196.5,-73.6 207.01,-201.09 -11.82,-128.14 -80.18,-202.41 -209.64,-199.13zm-0.65 1332.13c-107.78,2.63 -175.46,72.28 -176.78,180.08 -1.31,120.92 74.27,180.73 190.59,192.55 107.13,-17.74 178.09,-75.59 178.09,-184.68 0.65,-119.6 -71.63,-191.23 -191.9,-187.95zm2678.03 -7582.66c144.59,3.95 235.94,-87.41 233.31,-231.99 -2.63,-133.41 -94.64,-203.73 -233.96,-222.78 -120.91,24.32 -213.59,92 -214.91,227.4 -1.31,133.38 83.46,223.42 215.55,227.37zm-2661.61 10262.68c-90.69,-3.28 -145.23,49.28 -145.23,139.99 0,78.87 49.95,130.13 128.14,134.08 91.36,3.95 137.36,-51.27 148.54,-138 -11.18,-80.2 -52.58,-133.43 -131.44,-136.07zm-5.91 -1332.13c-91.35,-2.63 -148.54,46.67 -155.09,138 -6.58,101.87 45.35,159.69 161.67,169.55 76.23,-7.23 137.36,-47.32 142.6,-140.64 6.58,-101.84 -44.04,-164.28 -149.18,-166.92zm2687.25 -4031.19c-111.05,7.23 -184.67,62.44 -194.54,168.9 -11.18,118.95 56.51,195.85 176.13,203.73 109.09,7.23 180.73,-59.14 191.24,-164.95 12.49,-120.27 -59.79,-185.99 -172.83,-207.68zm-5.91 2725.35c-81.5,-3.28 -135.37,39.44 -145.23,120.27 -11.18,90.69 30.9,153.78 124.22,162.99 91.36,9.19 146.55,-38.13 159.69,-130.78 -1.99,-91.36 -44.04,-148.54 -138.67,-152.48zm-0.65 -1345.91c-97.27,9.19 -164.31,62.44 -171.54,157.08 -8.55,107.13 57.82,178.09 164.31,183.36 97.27,4.59 163.64,-59.81 171.54,-153.13 8.52,-107.8 -59.17,-168.9 -164.31,-187.31zm9.19 2683.97c-70.99,-8.54 -122.23,35.5 -132.09,101.86 -11.82,80.83 37.46,134.73 117.63,138.68 70.32,3.95 109.09,-45.35 126.83,-124.22 -11.15,-55.86 -43.37,-108.44 -112.37,-116.32zm-17.74 -8090.68c-124.22,0.65 -208.99,84.78 -214.9,207.01 -7.23,136.04 78.22,226.73 212.27,232.64 136.04,5.91 209.64,-85.44 231.99,-218.18 -20.39,-132.74 -92.67,-222.11 -229.36,-221.46zm-1315.7 -3973.37c-147.86,1.32 -234.63,82.81 -240.54,230.68 -5.91,157.73 75.58,253.68 236.59,258.27 159.69,4.6 243.17,-84.13 255.64,-242.5 -10.51,-157.08 -90.69,-247.76 -251.69,-246.45zm1316.35 5346.9c-119.59,12.49 -201.09,78.22 -202.41,207 -1.31,128.15 75.59,207.01 203.73,208.99 128.14,1.32 207,-75.58 208.99,-203.72 1.31,-128.14 -76.23,-198.46 -210.31,-212.27zm0 1330.16c-103.18,10.51 -181.39,62.44 -187.95,182.69 -6.58,117.63 55.22,195.18 172.85,203.72 128.14,9.86 207,-57.82 210.31,-189.27 2.61,-119.6 -67.71,-181.37 -195.21,-197.15zm-1303.21 -2717.5c-146.55,-4.6 -237.24,78.86 -242.5,225.41 -5.27,146.55 78.22,236.59 225.41,243.17 147.87,6.58 225.41,-82.14 247.77,-223.45 -11.82,-146.55 -82.81,-240.51 -230.68,-245.13zm-21.69 2693.18c-122.23,6.58 -206.36,90.69 -207,214.91 -0.65,135.37 86.09,224.09 220.81,224.09 136.04,0 207,-92.67 224.76,-229.36 -28.94,-126.18 -101.89,-216.87 -238.57,-209.64zm-3.28 1336.07c-116.99,7.23 -185.32,80.82 -184.67,197.81 0.65,129.46 74.91,203.73 204.4,201.76 130.13,-1.96 192.55,-82.81 199.13,-208.32 -17.11,-129.48 -90.71,-199.15 -218.85,-191.26zm15.1 1378.77c-108.44,-1.32 -178.09,66.37 -183.36,173.5 -6.58,120.91 68.35,183.36 182.69,199.13 108.44,-13.14 180.72,-69.67 185.32,-177.45 5.29,-119.6 -65.03,-193.22 -184.65,-195.18zm23 -6247.9c124.22,-20.37 216.87,-90.04 216.22,-241.18 -0.65,-148.54 -82.14,-235.94 -231.32,-238.55 -161,-2.63 -248.41,88.05 -244.48,247.76 3.95,149.8 95.95,221.44 259.59,231.97zm-1.31 -1799.39c-157.72,-9.86 -256.31,69 -261.55,231.32 -4.59,159.69 81.5,249.73 243.17,250.4 149.85,0.65 226.73,-85.44 241.19,-228.04 -4.59,-149.85 -72.95,-244.49 -222.8,-253.68zm-15.77 4008.19c-145.23,-0.65 -235.27,88.72 -233.31,233.96 1.96,133.41 88.72,219.5 222.13,221.46 146.55,2.63 220.81,-92 238.55,-231.99 -21.02,-132.07 -92.65,-222.76 -227.37,-223.43zm5.94 5371.22c-107.78,-5.27 -176.78,61.78 -179.41,168.9 -1.96,96.6 63.09,162.32 157.73,167.59 107.78,5.91 166.91,-63.09 182.69,-170.86 -13.81,-93.32 -65.72,-161.03 -161,-165.63zm-8000.64 -1443.18c-158.37,-0.65 -249.08,88.05 -249.73,247.09 -0.65,158.37 88.05,248.41 247.09,249.73 159.04,1.31 241.19,-90.04 253.01,-247.09 -10.51,-156.41 -90.69,-249.08 -250.37,-249.73zm-9305.17 4091.65c-103.83,-0.65 -159.04,57.82 -155.76,161 2.63,92 57.83,143.27 149.18,143.91 104.5,0.65 154.45,-59.14 157.08,-157.08 -8.55,-95.93 -59.14,-147.84 -150.5,-147.84zm1.99 1381.43c-77.55,8.55 -131.44,49.28 -136.04,128.15 -4.59,79.51 47.32,132.09 124.87,136.69 79.51,4.59 132.09,-47.32 136.69,-124.86 4.6,-80.18 -49.28,-122.88 -125.51,-139.97zm-20.39 -2735.88c-88.72,21.69 -167.59,70.32 -169.55,181.4 -2.63,119.6 67.04,193.22 187.31,193.22 108.44,0.65 177.45,-67.69 182.04,-174.81 4.59,-120.94 -70.32,-182.71 -199.8,-199.8zm-1307.13 -12071.28c-161,2.63 -264.19,104.5 -268.78,264.85 -5.27,172.18 98.58,281.94 270.09,286.54 173.5,4.59 263.54,-107.13 287.19,-275.36 -24.31,-169.57 -114.36,-279.31 -288.5,-276.03zm1338.04 8028.88c-159.04,-7.23 -253.01,77.54 -253.68,238.55 -0.65,148.54 84.13,233.31 233.31,236.59 149.18,3.28 227.4,-81.5 246.45,-233.96 -9.21,-137.33 -75.58,-234.6 -226.08,-241.18zm-12.5 -1326.86c-158.37,-1.96 -249.73,86.09 -251.71,245.13 -1.96,159.04 87.41,241.85 254.99,255.64 144.59,-11.82 241.19,-87.41 241.85,-248.41 0.67,-159.04 -86.09,-250.4 -245.13,-252.36zm13.81 2656.37c-134.08,-11.82 -226.73,71.64 -239.87,201.77 -14.46,145.23 74.27,239.87 217.54,246.45 134.08,6.58 207.68,-84.13 234.63,-213.59 -11.2,-132.76 -80.85,-223.48 -212.3,-234.63zm-23.67 1381.41c-128.15,3.95 -203.73,84.78 -199.13,212.94 3.95,128.15 85.44,203.08 212.94,199.13 128.15,-3.95 193.87,-85.44 202.41,-209.64 -16.42,-130.8 -88.72,-207.03 -216.22,-202.44zm-1302.54 -9373.5c-172.18,-1.96 -280.63,105.14 -279.31,277.32 1.32,160.36 105.81,264.86 265.5,268.13 173.5,3.28 262.87,-109.09 285.87,-274.71 -24.96,-161.01 -111.06,-269.43 -272.06,-270.74zm-11.18 6666.53c-132.76,22.35 -222.78,93.99 -223.45,228.04 -0.65,145.23 89.37,235.27 233.96,232.64 133.41,-1.96 219.5,-88.72 221.46,-222.13 1.99,-146.55 -91.98,-220.15 -231.97,-238.55zm13.81 1335.4c-135.37,-4.59 -222.78,80.18 -224.09,215.55 -1.31,124.22 80.82,207.67 204.4,212.27 136.69,5.26 210.31,-82.14 228.71,-212.94 -15.8,-126.15 -85.47,-210.93 -209.02,-214.88zm-25.63 2726.04c-93.99,7.9 -147.22,75.59 -155.76,172.19 19.05,105.81 80.18,172.85 187.96,163.64 93.32,-8.55 157.72,-75.59 152.46,-172.85 -5.89,-106.46 -77.52,-172.18 -184.65,-162.97zm6.58 -6704.65c-147.87,5.26 -231.99,88.72 -234.63,236.59 -2.63,159.04 82.14,250.4 242.5,252.36 161,1.31 240.54,-90.69 250.4,-257.63 -17.09,-146.55 -96.62,-237.24 -258.27,-231.32zm4.59 1322.91c-148.54,3.28 -233.31,88.06 -232.64,236.59 0.65,161.67 94.63,245.78 253.68,238.55 149.85,-7.23 218.85,-101.87 224.76,-251.05 -17.76,-142.6 -96.62,-227.37 -245.8,-224.09zm13.14 -2700.39c-162.99,-3.28 -268.78,99.23 -266.82,261.55 1.96,162.32 110.41,262.87 272.73,255.64 150.5,-7.22 232.64,-110.41 248.41,-260.26 -19.05,-152.44 -103.18,-253.65 -254.32,-256.93zm5.91 -1328.17c-143.27,-17.74 -295.73,129.46 -285.22,274.04 11.82,161.68 110.41,248.41 268.78,271.41 158.37,-19.72 266.17,-105.81 271.41,-266.17 5.29,-161.65 -96.6,-259.56 -254.97,-279.28zm-23.65 8073.57c-117.64,6.58 -184,79.51 -178.09,197.17 5.91,117.63 79.51,184 197.17,178.09 118.95,-5.91 175.46,-81.5 181.4,-199.13 -18.46,-112.37 -81.54,-182.69 -200.47,-176.13zm2642.54 1313.07c-131.45,1.31 -199.78,79.51 -191.91,207.68 7.23,118.31 84.78,174.14 204.4,177.44 113.69,-16.42 181.4,-80.18 178.09,-199.13 -3.28,-118.31 -72.28,-187.31 -190.59,-185.99zm-5.91 -2726.67c-142.6,19.72 -232.64,95.28 -228.71,243.81 3.95,147.22 92,231.99 238.55,229.36 146.55,-2.63 231.32,-92 229.36,-238.55 -1.94,-149.21 -95.26,-221.49 -239.2,-234.63zm4.62 1382.05c-134.73,0.65 -221.46,90.04 -219.5,226.08 1.96,124.22 86.09,207.68 208.99,213.59 136.69,5.91 210.95,-82.14 235.94,-215.55 -18.43,-132.09 -89.42,-224.76 -225.43,-224.12zm7.87 2676.74c-108.45,-2.63 -180.73,65.72 -182.04,173.5 -1.32,108.44 72.28,166.27 177.44,180.72 106.46,-20.37 177.45,-80.18 172.19,-189.27 -4.6,-95.95 -70.99,-162.32 -167.59,-164.96zm10.5 -6725.02c-148.54,-3.95 -283.91,122.9 -290.49,260.91 -7.23,144.59 134.08,295.08 278.64,283.26 160.36,-13.81 262.87,-110.41 263.54,-270.76 0.02,-162.32 -105.79,-249.73 -251.69,-273.4zm-9.83 -1322.26c-172.18,-3.95 -280.63,98.59 -286.54,270.1 -5.27,172.18 98.58,279.96 270.09,286.54 174.15,6.58 264.85,-102.54 294.41,-279.31 -21.69,-156.41 -103.18,-273.37 -277.97,-277.33zm-3.3 9446.45c-80.83,5.91 -134.72,47.32 -141.31,124.86 -7.9,90.04 43.37,146.55 133.41,151.15 80.18,3.95 132.09,-45.36 139.32,-122.23 9.21,-90.69 -45.33,-139.96 -131.42,-153.78zm14.46 -10815.39c-165.63,-15.13 -301,111.06 -304.94,276.68 -3.95,166.92 122.9,298.36 289.17,292.45 175.46,-6.58 262.87,-108.44 284.56,-274.05 -11.15,-173.5 -94.61,-279.31 -268.78,-295.08zm-1047.55 -5017.64c5.26,-170.87 -120.27,-302.31 -289.82,-297.05 -176.13,5.91 -274.72,101.87 -285.22,277.33 -9.86,170.22 118.95,299.03 289.17,297.72 160.33,-0.67 281.28,-118.31 285.87,-278zm-295.08 3699.32c-167.59,22.36 -274.72,110.41 -274.05,285.87 0.65,173.5 101.22,272.73 274.72,282.59 164.95,9.19 299.68,-128.14 288.5,-293.1 -11.85,-174.81 -116.99,-259.59 -289.17,-275.36zm23 -1315.03c-166.27,-8.55 -299.68,115 -301.64,281.27 -2.63,166.92 126.18,297.05 292.45,289.17 174.81,-8.55 261.55,-111.06 278,-249.08 3.28,-189.27 -112.39,-313.49 -268.8,-321.36zm1.96 2642.56c-172.18,-10.51 -283.91,92 -293.09,262.87 -9.19,173.5 101.22,266.17 269.45,293.77 168.9,-19.72 279.96,-107.13 281.94,-281.27 1.29,-161.03 -99.26,-266.17 -258.3,-275.36zm-4.59 -6636.97c-166.27,-11.82 -297.72,116.99 -299.03,283.26 -0.65,166.92 128.81,295.73 295.73,286.54 174.81,-9.86 260.91,-113.69 278.64,-282.59 -15.74,-170.89 -100.52,-275.39 -275.33,-287.21zm1297.94 18803.53c-51.91,1.96 -85.44,30.23 -90.04,82.81 -5.27,62.44 23.67,103.18 88.72,107.13 63.74,3.95 97.91,-30.9 102.53,-95.28 -3.95,-62.47 -36.81,-97.3 -101.22,-94.66zm-1297.94 -16174.11c-170.22,-11.18 -304.28,116.32 -300.33,285.87 3.95,176.13 98.59,276.03 274.05,288.5 170.22,11.82 300.32,-115.67 301.64,-317.41 -11.82,-140.63 -97.91,-245.13 -275.36,-256.96zm-11.82 5376.46c-161,-0.65 -257.63,101.86 -272.73,261.55 -13.14,143.91 137.36,293.09 280.63,278.64 161,-16.42 245.78,-116.32 264.85,-274.71 -23.67,-158.35 -111.08,-264.81 -272.75,-265.48zm1314.39 2653.09c-143.92,11.18 -242.5,81.5 -244.49,245.13 -1.96,147.22 75.58,237.9 224.09,247.76 156.41,9.86 256.96,-67.69 265.5,-228.71 7.9,-159.04 -76.87,-246.45 -245.11,-264.19zm-5299.58 2779.89c-89.37,-0.65 -149.18,39.44 -157.73,130.78 -8.54,88.06 31.55,151.81 123.55,162.32 99.23,11.18 164.96,-34.82 168.91,-139.99 3.93,-90.02 -44.71,-141.93 -134.72,-153.11zm-1326.21 -12058.11c-124.87,-3.28 -210.31,78.87 -220.81,201.09 -11.82,136.69 73.59,228.72 205.69,238.55 136.04,9.86 211.63,-80.18 238.55,-213.59 -16.42,-132.09 -87.39,-222.78 -223.43,-226.06zm1315.68 9339.32c-118.31,-0.65 -187.96,68.35 -189.27,186.64 -1.31,118.95 70.99,179.41 187.31,192.55 115.67,-11.83 188.63,-70.99 188.63,-190.59 -0.02,-118.28 -68.35,-187.93 -186.66,-188.6zm-7.23 4052.23c-77.55,4.59 -129.46,56.51 -124.87,136.69 4.59,77.54 57.18,128.81 136.04,124.86 78.22,-3.95 120.27,-57.82 128.14,-135.37 -15.77,-76.87 -58.47,-130.78 -139.32,-126.18zm5.26 -2724.03c-98.58,-0.65 -164.95,64.41 -174.14,158.37 -10.51,109.09 57.82,183.36 163.64,191.23 109.09,8.54 169.55,-63.74 191.9,-178.76 -19.07,-93.3 -70.34,-169.55 -181.4,-170.84zm-6.58 -4911.85c144.59,3.28 235.94,-88.72 232,-233.31 -3.95,-132.76 -95.95,-203.73 -227.4,-220.17 -130.78,21.68 -220.17,93.99 -221.46,228.04 -1.31,132.76 84.13,222.16 216.87,225.44zm7.23 919.4c-134.72,0.65 -221.46,90.04 -219.5,226.08 1.96,124.22 86.09,207.68 209,213.59 136.69,5.91 210.95,-82.81 235.94,-216.22 -18.41,-132.09 -90.04,-224.09 -225.44,-223.45zm1.99 1335.4c-116.99,-1.96 -192.55,63.74 -201.09,181.4 -9.86,127.5 57.18,210.96 185.99,218.85 128.14,7.9 200.45,-63.74 216.22,-193.87 -7.25,-126.2 -71.01,-204.4 -201.12,-206.39zm-1297.3 -6693.48c-137.36,-13.14 -228.72,71.63 -240.54,203.72 -11.82,136.04 78.86,212.27 211.63,239.87 132.09,-15.13 222.78,-85.44 227.4,-221.46 5.24,-124.19 -76.25,-210.28 -198.48,-222.13zm-31.55 6709.25c-107.13,5.26 -174.81,74.91 -173.5,183.36 1.31,120.91 77.55,180.08 194.54,189.27 105.81,-20.37 176.13,-78.22 174.15,-187.96 -1.96,-118.95 -75.59,-189.92 -195.19,-184.67zm-9.86 1333.44c-93.99,11.82 -156.41,79.51 -147.22,176.13 9.19,105.14 80.18,170.22 188.63,157.72 94.63,-11.18 144.59,-79.51 151.14,-175.46 -23,-104.5 -83.46,-171.54 -192.55,-158.4zm1349.86 -5375.81c-145.9,-7.23 -238.55,78.86 -244.49,224.09 -5.91,147.22 87.41,223.45 230.01,244.49 142.6,-19.05 234.63,-93.99 233.31,-241.19 -1.29,-135.39 -85.39,-220.81 -218.83,-227.4zm-1318.96 2718.8c-117.63,-5.27 -193.87,57.82 -201.09,176.13 -7.9,128.81 61.13,206.36 192.55,207 119.6,0.65 180.72,-70.32 193.22,-187.31 -7.9,-116.3 -65.72,-189.89 -184.68,-195.83zm3995.7 7994.08c-92.67,-4.6 -149.18,43.37 -151.81,137.35 -3.28,93.99 50.6,141.31 142.6,148.54 93.32,-7.9 143.92,-57.18 141.31,-150.5 -3.28,-82.17 -50.59,-131.47 -132.09,-135.39zm-4010.16 -9365.63c-117.63,1.31 -189.92,69.67 -195.85,187.31 -5.91,128.14 63.09,208.32 192.55,212.94 128.81,4.6 197.81,-70.32 210.31,-198.46 -10.51,-128.19 -76.9,-203.11 -207.01,-201.79zm17.74 -1330.16c-135.37,-6.58 -224.09,76.9 -227.4,212.27 -3.28,124.86 78.22,208.99 201.09,215.55 136.04,7.23 211.63,-78.86 231.99,-211.63 -14.46,-124.84 -82.79,-210.28 -205.69,-216.19zm199.78 -1081.72c11.83,-136.69 -70.31,-226.08 -204.4,-234.63 -124.22,-7.9 -210.95,70.99 -222.13,193.87 -12.5,137.35 72.28,213.59 205.69,239.22 122.93,-10.51 210.33,-74.91 220.84,-198.46zm2456.57 1051.5c-147.86,5.26 -231.99,88.72 -234.63,236.59 -2.63,159.04 82.14,250.4 242.5,252.36 161.01,1.31 239.87,-90.69 250.4,-256.96 -16.42,-147.22 -96.6,-237.91 -258.28,-231.99zm5.27 1316.35c-147.22,13.14 -235.27,88.05 -236.59,237.91 -1.32,160.36 86.09,249.08 246.45,247.09 148.54,-1.96 232.64,-86.09 235.27,-234.63 2.63,-161.65 -88.06,-241.16 -245.13,-250.37zm5.91 -2636.65c-158.37,-0.65 -248.41,88.06 -249.73,247.1 -1.32,159.04 90.04,241.18 247.09,253 157.08,-9.86 249.08,-90.04 249.73,-249.73 0.02,-159.02 -88.06,-249.06 -247.09,-250.37zm-1360.37 14.46c-146.55,-1.96 -235.94,82.81 -238.55,229.36 -2.63,146.55 82.14,235.27 229.36,238.55 148.54,3.95 224.09,-86.09 243.82,-228.72 -13.81,-143.89 -86.12,-237.21 -234.63,-239.2zm2687.25 13434.3c-61.13,-5.91 -107.13,21.04 -114.36,84.78 -7.9,70.99 23.67,118.95 101.22,120.91 63.74,1.31 97.91,-33.51 104.5,-95.95 1.29,-63.74 -27.62,-103.83 -91.35,-109.74zm-1382.74 -8112.37c-132.09,2.63 -217.54,92 -217.54,225.41 0.65,134.08 89.37,206.36 220.81,228.04 131.45,-16.42 224.09,-86.76 228.04,-219.5 4.62,-144.59 -86.74,-236.59 -231.32,-233.96zm72.3 -6709.25c-162.99,-9.86 -270.09,89.37 -276.68,251.72 -6.58,151.81 90.69,254.99 240.54,264.85 163.64,10.51 255.64,-90.69 281.28,-253.01 -13.81,-149.87 -94.64,-254.37 -245.13,-263.56zm1299.91 -782.72c173.5,0 260.91,-113.69 280.63,-282.59 -28.91,-167.59 -120.91,-276.03 -295.08,-268.13 -159.69,7.23 -262.22,110.41 -262.22,271.41 -1.31,172.18 104.5,279.96 276.68,279.31zm-1370.23 6167.72c-134.72,3.28 -220.17,86.76 -226.08,220.17 -5.91,145.9 80.18,238.55 225.41,243.17 147.22,4.59 222.78,-88.72 245.13,-244.48 -26.95,-124.22 -94.64,-222.78 -244.46,-218.85zm-5.91 2658.33c-127.5,7.23 -201.09,90.04 -194.54,217.54 6.58,128.15 90.69,191.91 213.59,197.82 132.09,-18.41 205.69,-93.32 198.46,-220.82 -7.23,-128.14 -90.69,-201.76 -217.51,-194.54zm-1304.53 -9335.37c-146.55,0.65 -233.96,87.41 -233.96,233.95 0,146.55 86.76,233.31 233.96,233.96 148.54,0.65 222.13,-90.69 239.22,-233.96 -17.09,-143.27 -91.36,-234.63 -239.22,-233.95zm-9.86 1784.26c146.55,5.91 236.59,-77.55 243.81,-224.76 6.58,-147.87 -81.5,-225.41 -222.78,-248.41 -145.91,10.51 -239.87,81.5 -245.13,229.36 -5.94,147.22 77.55,237.91 224.09,243.81zm1341.31 12948.63c-69.67,-11.18 -122.23,32.19 -134.08,99.23 -14.46,82.14 34.82,134.72 113.69,141.31 70.32,5.91 110.41,-43.37 127.5,-111.72 -1.94,-70.34 -40.71,-118.31 -107.1,-128.81zm-17.09 -4066.69c-115.67,13.14 -187.95,73.6 -186.64,192.55 1.31,118.31 70.99,187.31 189.27,186.64 118.31,-0.65 186.64,-70.99 186.64,-188.63 0,-119.6 -73.6,-178.74 -189.27,-190.56zm1.31 2722.72c-89.37,4.59 -143.91,49.28 -147.22,141.31 -3.28,90.04 42.05,147.86 134.08,153.13 101.86,5.91 160.36,-46.67 159.04,-150.5 -0.65,-92 -53.88,-138.67 -145.91,-143.94zm-9.19 -1343.28c-96.6,4.6 -162.99,70.32 -166.27,166.92 -3.28,109.09 65.06,180.73 172.85,182.69 109.09,1.96 166.27,-71.63 182.69,-184 -23.67,-96.6 -78.22,-170.87 -189.27,-165.6zm5378.44 -4102.18c-169.55,16.42 -281.27,103.18 -286.54,276.68 -4.59,161.67 94.64,267.49 253.01,279.96 172.85,13.14 285.22,-88.05 297.72,-258.27 12.49,-173.5 -96.6,-267.49 -264.19,-298.36zm3948.41 8104.46c-107.13,-5.26 -176.78,61.78 -178.76,168.9 -1.96,96.6 63.09,162.32 157.72,167.59 107.78,5.91 166.91,-63.09 182.69,-166.91 -12.47,-98.61 -66.37,-164.98 -161.65,-169.57zm-1320.97 -14834.11c-195.18,-2.63 -339.77,136.69 -342.4,330.58 -2.63,195.18 136.69,339.77 330.58,342.4 195.18,3.28 339.77,-136.69 342.4,-330.58 3.28,-195.18 -136.04,-339.77 -330.58,-342.4zm1303.21 13448.09c-118.95,1.96 -178.09,76.23 -187.31,193.22 10.51,116.32 70.32,187.95 189.92,189.92 118.31,1.96 191.23,-63.09 195.18,-181.4 5.29,-130.75 -67.66,-204.37 -197.79,-201.74zm-1306.49 -14764.44c-195.18,-1.32 -337.81,139.99 -339.12,334.5 -0.65,195.18 139.99,337.8 334.5,339.12 195.18,1.31 337.8,-139.99 339.12,-334.5 0.67,-195.18 -139.97,-337.81 -334.5,-339.12zm1295.31 17494.41c-69.67,20.37 -129.46,64.41 -118.31,156.41 9.86,76.23 61.13,126.18 141.31,120.27 90.04,-5.91 140.63,-63.74 131.44,-153.13 -7.87,-76.23 -61.77,-118.28 -154.44,-123.55zm23 -6792.71c-162.99,-0.65 -267.49,103.18 -262.87,265.5 4.59,161.68 113.04,261.55 276.68,251.05 151.14,-9.86 230.67,-113.69 244.48,-261.55 -21.71,-154.45 -107.13,-255 -258.3,-255zm-9.19 1387.31c-147.22,4.59 -232.64,92 -229.36,238.55 2.63,147.22 91.35,231.99 238.55,230.01 148.54,-1.96 220.81,-94.64 235.94,-254.32 -24.96,-123.52 -94.63,-218.83 -245.13,-214.24zm-11.82 1330.81c-121.58,9.19 -205.04,93.99 -203.08,218.85 1.96,135.37 90.04,223.45 224.76,220.17 135.37,-3.28 205.69,-96.59 219.5,-228.71 -28.91,-132.74 -104.5,-220.81 -241.19,-210.31zm-1280.21 -2707.61c-155.76,-10.51 -256.96,68.35 -268.13,228.71 -10.51,156.41 70.32,249.08 228.71,270.77 154.45,-1.31 256.96,-70.99 267.49,-231.32 10.48,-156.43 -67.71,-257.65 -228.07,-268.16zm-19.05 -1340.67c-171.54,2.63 -278.64,111.72 -272.73,283.26 5.26,159.04 111.05,262.87 272.08,261.55 173.5,-1.31 260.91,-114.35 279.31,-280.63 -28.94,-159.69 -117.02,-266.81 -278.67,-264.19zm12.47 -1328.17c-166.27,-11.82 -297.72,116.99 -299.04,283.26 -0.65,166.92 128.81,295.73 295.73,286.54 174.81,-9.86 260.91,-113.69 278.64,-282.59 -15.07,-170.89 -100.52,-275.39 -275.33,-287.21zm1319.65 1325.54c-173.5,-12.5 -267.49,97.27 -300.32,274.71 21.68,155.76 103.82,272.08 278.64,276.68 161.68,3.95 267.49,-94.64 279.96,-253.68 13.79,-173.5 -88.07,-285.87 -258.27,-297.71zm-1331.48 -5365.95c-176.78,-0.65 -329.91,150.5 -330.58,327.28 -0.65,176.78 150.5,329.91 327.28,330.57 176.78,0.65 329.91,-150.5 330.58,-327.27 1.31,-176.8 -149.83,-329.26 -327.28,-330.58zm-3968.78 38.13c-199.78,1.32 -326.63,129.46 -318.08,299.68 9.19,174.81 106.46,272.08 280.63,281.94 170.87,9.19 302.31,-116.32 299.03,-286.54 -2.63,-188.63 -109.09,-281.3 -261.57,-295.09zm3983.23 2673.44c-183.36,-2.63 -295.09,90.04 -312.17,275.36 -17.09,179.41 113.69,320.72 292.45,318.09 185.32,-2.63 284.55,-104.5 301.64,-268.13 5.29,-189.27 -113.02,-322.68 -281.92,-325.31zm-5.24 -1387.98c-171.54,-6.58 -332.54,150.5 -331.87,323.35 0.65,163.64 147.22,314.13 311.5,320.05 171.54,6.58 332.54,-150.5 331.87,-323.35 -1.31,-162.97 -147.87,-314.13 -311.5,-320.05zm1266.4 2713.55c-139.32,16.42 -241.85,105.14 -247.76,283.26 -5.91,170.22 124.22,300.33 294.41,291.81 175.46,-8.55 272.73,-107.13 279.96,-282.59 6.58,-170.91 -123.55,-297.09 -326.61,-292.48zm1423.48 1328.82c-172.85,-12.5 -285.22,89.37 -296.4,259.59 -11.18,173.5 98.58,266.82 276.03,298.36 155.76,-23 271.41,-105.14 275.36,-279.96 3.28,-161 -95.98,-266.81 -255,-277.99zm-12.49 1332.79c-151.81,-7.23 -255.64,88.06 -266.17,238.55 -11.82,163.64 89.37,255.64 251.04,283.26 149.85,-13.14 254.33,-92.67 264.86,-243.81 11.18,-163.64 -88.06,-270.12 -249.73,-278zm-13.81 1382.72c-142.6,19.72 -232.64,95.28 -228.72,243.82 3.95,147.22 92,231.99 238.55,229.36 147.22,-2.63 231.32,-92 229.36,-238.55 -1.94,-149.18 -94.61,-220.81 -239.2,-234.63zm-2664.25 4.59c-146.55,-4.59 -237.23,78.22 -243.17,224.77 -5.91,146.55 77.54,236.59 224.76,243.81 147.87,6.58 225.41,-81.5 250.4,-235.27 -17.73,-129.46 -82.81,-228.69 -231.99,-233.31zm2680.02 -6762.48c-161.67,-5.91 -318.73,135.37 -331.22,299.68 -13.14,169.55 138,337.14 310.86,343.72 161.67,5.91 318.73,-136.04 331.22,-299.68 13.14,-170.22 -138,-337.13 -310.86,-343.72zm-9.86 9437.91c-131.44,1.32 -199.78,79.51 -191.9,207.68 7.23,118.31 84.78,174.81 204.4,177.45 113.69,-16.42 181.4,-80.18 178.09,-199.13 -2.63,-118.31 -71.64,-187.31 -190.59,-185.99zm21.04 -6723.71c-169.55,-15.77 -304.27,109.09 -309.54,277.33 -5.26,170.86 119.6,301.64 289.82,297.04 177.44,-4.59 267.49,-106.46 289.17,-273.4 -9.86,-176.75 -92.67,-284.55 -269.45,-300.97zm-21.04 -1338.7c-180.08,9.19 -288.5,113.69 -309.54,291.8 -19.72,162.99 130.78,321.37 297.05,328.59 164.95,7.22 319.4,-138.68 323.35,-304.94 3.95,-165.6 -145.23,-323.33 -310.86,-315.45zm0.67 6712.56c-132.09,20.37 -222.13,92.67 -220.81,229.36 1.31,124.86 84.77,208.99 207,215.55 136.04,7.23 226.73,-78.22 232.64,-212.27 5.27,-136.69 -86.09,-210.31 -218.83,-232.64zm-1359.07 -8088.69c-188.63,6.58 -302.31,115.67 -327.28,300.32 -23,167.59 133.41,336.49 305.59,346.35 168.91,9.86 334.5,-141.95 341.09,-313.49 6.56,-170.22 -147.87,-339.12 -319.4,-333.19zm5.27 1376.14c-164.31,-15.13 -318.73,138.67 -321.37,304.94 -2.63,166.27 146.55,316.1 312.82,315.45 166.27,-0.65 320.72,-153.13 308.22,-318.09 -15.13,-179.41 -120.94,-285.87 -299.68,-302.31zm1338.04 9448.44c-93.99,7.23 -158.37,74.27 -153.78,170.87 4.6,107.13 75.59,172.85 182.69,164.95 93.99,-7.23 147.87,-74.27 157.08,-171.54 -17.09,-104.47 -78.22,-172.18 -185.99,-164.28zm-1345.26 -12148.82c-179.41,-1.96 -328.59,142.6 -333.86,321.36 -5.26,188.62 149.85,344.36 338.45,339.77 178.76,-4.59 323.35,-153.78 322.03,-332.54 -0.67,-180.06 -147.22,-326.63 -326.63,-328.59zm1381.4 13497.37c-89.37,-13.14 -148.54,36.14 -158.37,125.54 -8.55,79.51 38.77,134.08 115.67,145.9 90.04,13.81 141.31,-38.78 160.36,-122.23 -1.34,-82.81 -40.76,-138.03 -117.66,-149.2zm-1340.67 -16191.84c-194.54,1.31 -338.45,142.6 -342.4,337.13 -4.6,204.4 144.58,355.54 348.96,354.22 203.73,-1.96 350.28,-155.76 342.4,-360.13 -7.87,-193.87 -153.78,-332.54 -348.96,-331.22zm5.27 1372.21c-195.18,-1.32 -337.81,139.99 -339.12,334.5 -1.32,195.19 139.99,337.81 334.5,338.45 195.19,1.32 337.81,-139.99 339.13,-334.5 1.31,-194.54 -139.99,-337.14 -334.5,-338.45zm-1358.43 1.96c-185.32,-3.28 -329.26,127.5 -341.08,310.19 -12.5,194.54 123.55,349.63 315.45,358.82 194.54,9.86 346.35,-128.81 353.58,-321.37 5.91,-194.51 -134.08,-343.69 -327.94,-347.64zm2677.41 1320.3c-179.41,-2.63 -329.91,140.63 -335.17,319.4 -5.91,188.63 148.54,345.04 337.13,341.09 178.76,-3.28 324,-151.81 323.35,-331.22 -0.67,-178.76 -146.57,-326.63 -325.31,-329.26zm-5306.83 2724.06c-166.92,-5.26 -299.68,120.27 -294.41,287.19 4.59,175.46 106.46,263.54 270.77,287.19 174.14,-10.5 280.63,-92.67 298.36,-266.81 16.44,-165.6 -109.74,-302.29 -274.72,-307.56zm-7.87 3989.15c-135.37,7.9 -233.31,71.63 -242.5,222.78 -9.86,157.73 67.69,256.96 230,262.87 159.69,5.91 250.4,-80.18 251.72,-241.85 0.65,-149.16 -84.13,-226.7 -239.22,-243.79zm-14.46 -5362.67c-182.69,21.04 -286.54,121.59 -279.96,307.58 7.23,186.64 118.95,286.54 303.63,280.63 186.64,-6.58 286.54,-118.31 280.63,-303.63 -5.29,-187.98 -120.3,-276.03 -304.3,-284.57zm15.77 4033.18c-162.99,0 -267.49,103.83 -261.55,266.82 5.91,161.67 114.36,260.91 278,249.73 151.14,-10.51 230,-115 243.81,-262.22 -23.02,-154.44 -108.44,-254.32 -260.26,-254.32zm1307.16 8118.92c-77.55,4.59 -128.81,57.18 -124.86,136.69 3.95,78.22 57.82,120.27 145.9,129.46 61.77,-22.36 121.58,-58.5 115.67,-141.31 -5.94,-78.17 -57.2,-129.43 -136.71,-124.84zm-1311.76 -16176.07c-172.18,0.65 -334.5,161.01 -321.36,331.87 15.13,187.31 126.18,298.36 312.82,315.45 170.22,15.13 331.87,-145.9 334.5,-318.08 2.63,-171.51 -154.44,-329.91 -325.96,-329.24zm9.86 1366.28c-171.54,-5.27 -332.54,152.46 -330.58,324.64 1.96,163.64 149.18,313.49 312.82,318.73 171.54,5.27 331.87,-152.46 330.58,-324.64 -1.32,-163.61 -149.18,-313.46 -312.82,-318.73zm-2.63 1322.29c-164.31,-3.95 -318.08,144.59 -322.04,309.54 -3.95,164.31 143.92,318.08 309.54,321.36 164.31,3.95 318.08,-143.91 321.36,-309.54 4.59,-163.64 -143.27,-317.44 -308.87,-321.36zm-1349.21 -2672.79c-162.99,-20.37 -322.68,128.14 -331.22,294.41 -8.54,164.95 136.69,320.72 302.96,325.31 165.63,5.26 324.64,-142.6 317.41,-308.87 -7.87,-179.43 -111.7,-288.53 -289.15,-310.85zm1322.26 16172.79c-67.04,11.82 -109.76,64.41 -99.23,134.08 10.51,66.37 59.14,105.14 128.14,107.13 68.36,-17.09 117.64,-57.18 111.72,-127.5 -5.91,-78.89 -59.14,-128.17 -140.63,-113.71zm-1343.95 -14800.58c-182.69,15.13 -292.45,109.76 -294.41,295.73 -1.96,184.68 101.22,289.82 286.54,301 179.41,10.51 315.45,-125.54 306.91,-304.94 -9.89,-185.99 -116.35,-278.64 -299.04,-291.78zm1359.05 12059.43c-107.13,1.32 -163.64,74.91 -178.09,180.08 15.13,105.14 70.99,176.78 178.76,180.08 107.78,3.28 180.08,-63.74 185.32,-168.9 5.91,-118.31 -67.69,-192.57 -185.99,-191.26zm8.54 -1342.63c-128.14,-1.31 -207.01,75.58 -208.99,203.73 -1.96,128.14 76.23,197.81 204.4,211.63 126.83,-10.51 206.36,-78.22 207.67,-206.36 1.96,-128.17 -75.58,-207.03 -203.08,-208.99zm9.22 2739.16c-101.87,-5.27 -160.36,47.96 -158.37,151.81 1.32,92 55.86,137.36 146.55,142.6 90.04,-4.59 143.92,-49.95 146.55,-141.95 3.28,-90.69 -43.37,-147.2 -134.72,-152.46zm-7.23 -4081.81c-133.41,13.81 -224.77,84.13 -232.64,216.87 -9.19,145.23 78.86,239.87 222.78,243.17 145.23,3.28 234.63,-88.72 232.64,-233.96 -1.31,-134.72 -92,-205.71 -222.78,-226.08zm1307.8 1335.43c-135.37,1.96 -218.85,93.32 -210.95,228.72 7.23,122.9 92.67,190.59 215.55,203.08 125.53,-17.09 209.64,-86.09 212.27,-210.31 3.95,-135.4 -81.5,-224.12 -216.87,-221.49zm0.65 -12103.49c-179.41,1.96 -325.96,148.54 -327.27,327.94 -1.32,188.62 157.08,341.08 345.68,332.54 178.09,-7.9 320.05,-160.36 315.45,-339.77 -5.24,-178.09 -155.09,-322.01 -333.86,-320.72zm-2.61 4010.85c-164.95,3.28 -313.49,157.08 -309.54,321.36 3.95,164.95 157.08,313.49 321.36,309.54 164.95,-3.28 313.49,-157.08 309.54,-321.36 -3.95,-165.63 -157.72,-313.49 -321.36,-309.54zm10.51 -5326.53c-179.41,-2.63 -329.91,140.63 -335.17,319.4 -5.91,178.76 135.37,332.54 313.49,341.08 187.95,9.19 347.64,-143.27 347,-331.22 -0.67,-179.43 -145.9,-326.63 -325.31,-329.26zm-3.95 16157.67c-94.64,6.58 -150.5,53.23 -153.78,145.23 -3.28,103.18 51.27,161.68 155.09,161.68 91.36,0 146.55,-51.91 149.85,-143.92 3.93,-103.18 -51.94,-156.41 -151.17,-162.99zm17.73 -13477c-175.46,-9.86 -337.13,134.72 -347.64,310.85 -9.86,175.46 134.72,337.14 310.86,347.64 175.46,9.86 337.13,-134.72 347.64,-310.85 9.86,-175.46 -135.37,-337.78 -310.86,-347.64zm1267.74 12075.87c-87.41,26.28 -166.92,79.51 -158.37,201.76 7.9,117.64 80.18,184 197.81,178.09 117.64,-5.91 184.01,-79.51 178.09,-197.17 -5.94,-118.93 -81.52,-175.46 -217.54,-182.69zm33.51 1384.06c-97.27,9.19 -164.96,62.44 -172.19,157.08 -7.9,107.13 57.83,178.09 164.31,183.36 97.27,4.59 163.63,-59.81 171.54,-153.78 9.19,-107.8 -58.52,-168.93 -163.66,-186.67zm1.96 1357.09c-79.51,-4.59 -132.09,47.32 -136.69,124.87 -4.59,80.18 48.63,122.9 125.54,139.99 77.55,-7.9 131.45,-49.95 136.04,-128.14 4.59,-79.53 -47.34,-132.12 -124.89,-136.71zm-1328.82 -13494.73c-187.31,15.13 -298.36,126.18 -315.45,312.82 -15.13,170.22 145.9,331.87 318.08,334.5 171.54,2.63 329.91,-154.44 328.59,-325.96 -0.67,-172.18 -161.03,-335.17 -331.22,-321.36zm-0.67 8082.11c-134.08,2.63 -218.85,87.41 -224.09,221.46 -5.91,147.22 85.44,224.09 227.4,247.1 142.6,-17.74 237.24,-91.36 235.28,-238.55 -1.32,-145.88 -92.03,-232.64 -238.58,-230.01zm1327.53 1327.53c-124.87,-3.95 -210.31,77.55 -222.13,199.13 -13.14,137.36 71.63,228.71 203.73,240.54 136.04,11.82 212.27,-78.86 239.87,-211.63 -15.1,-132.09 -85.42,-223.45 -221.46,-228.04zm-1329.49 1348.54c-117.64,6.58 -184,79.51 -178.09,197.17 5.91,117.64 79.51,184 197.17,178.09 118.95,-5.91 175.46,-81.5 181.4,-199.13 -18.43,-113.04 -81.52,-182.69 -200.47,-176.13zm6.56 -6722.39c-173.5,8.55 -271.41,105.81 -279.31,279.31 -7.22,164.96 132.09,298.36 297.05,284.56 174.81,-14.46 258.94,-120.27 269.45,-263.54 -5.24,-182.69 -131.42,-307.56 -287.19,-300.33zm13.17 2667.55c-157.72,6.58 -251.71,82.14 -254.99,243.82 -2.63,147.22 74.91,238.55 223.45,247.76 156.41,9.86 256.96,-67.04 265.5,-228.71 8.54,-159.04 -75.58,-247.09 -233.96,-262.87zm-5.94 -3993.76c-185.99,-1.96 -293.76,101.86 -296.4,287.85 -1.96,185.99 101.86,293.09 287.85,296.4 187.31,3.28 283.26,-104.5 300.33,-287.85 -12.47,-183.36 -103.83,-294.41 -291.78,-296.4zm1.99 2650.46c-158.37,16.42 -266.81,101.22 -275.36,260.91 -8.54,161.67 91.36,260.91 249.73,283.91 143.27,21.04 297.72,-122.23 290.49,-268.78 -7.9,-161.7 -105.81,-249.75 -264.85,-276.03z"/>
 </g>
</svg>
